<?xml version="1.0" encoding="UTF-8" standalone="no"?>
<!-- Created with Inkscape (http://www.inkscape.org/) -->

<svg
   version="1.1"
   id="svg398"
   width="1055.3333"
   height="727.33331"
   viewBox="0 0 1055.3333 727.33331"
   sodipodi:docname="cloudy.svg"
   inkscape:version="1.2.2 (b0a84865, 2022-12-01)"
   xmlns:inkscape="http://www.inkscape.org/namespaces/inkscape"
   xmlns:sodipodi="http://sodipodi.sourceforge.net/DTD/sodipodi-0.dtd"
   xmlns="http://www.w3.org/2000/svg"
   xmlns:svg="http://www.w3.org/2000/svg">
  <defs
     id="defs402" />
  <sodipodi:namedview
     id="namedview400"
     pagecolor="#ffffff"
     bordercolor="#000000"
     borderopacity="0.25"
     inkscape:showpageshadow="2"
     inkscape:pageopacity="0.0"
     inkscape:pagecheckerboard="0"
     inkscape:deskcolor="#d1d1d1"
     showgrid="false"
     inkscape:zoom="1.6966087"
     inkscape:cx="527.52293"
     inkscape:cy="269.95028"
     inkscape:window-width="3440"
     inkscape:window-height="1412"
     inkscape:window-x="1440"
     inkscape:window-y="28"
     inkscape:window-maximized="0"
     inkscape:current-layer="g404" />
  <g
     inkscape:groupmode="layer"
     inkscape:label="Image"
     id="g404">
    <path
       style="fill:#87aade;fill-opacity:1;stroke-width:0.666667"
       d="m 130.96467,619.15155 c -18.43859,-2.15578 -32.477141,-6.31517 -46.863105,-13.88477 -16.80844,-8.84425 -29.23518,-18.46049 -41.03004,-31.75046 -15.398767,-17.35071 -26.269054,-40.81444 -29.643874,-63.9869 -1.49367,-10.25596 -1.361338,-27.7795 0.281929,-37.33333 2.25756,-13.12527 5.746275,-23.57829 11.839646,-35.47439 18.297949,-35.72313 53.925209,-60.42147 95.113134,-65.93652 13.16534,-1.76283 35.04276,-0.96893 45.43921,1.64894 3.1119,0.78359 3.7737,0.35378 7.29825,-4.73982 5.03333,-7.27405 12.12856,-15.45764 19.84506,-22.88913 36.26331,-34.92389 88.86671,-52.20124 141.89558,-46.60497 9.44911,0.99719 22.62918,3.4303 28.90039,5.33518 5.35241,1.62578 5.29019,1.67138 6.60503,-4.83928 11.04404,-54.6864 37.40517,-103.11427 77.21526,-141.85173 13.20077,-12.84509 23.97519,-21.51463 39.93686,-32.13485 11.37257,-7.56682 14.4193,-9.32195 28.30356,-16.30478 30.09668,-15.136578 59.6148,-23.750878 95.99999,-28.015728 11.39682,-1.33587 46.29397,-1.11707 58.33334,0.36575 53.53986,6.59416 100.40279,26.074558 141.68992,58.898928 51.81534,41.19452 87.24087,100.89191 98.6316,166.20907 4.47667,25.6704 5.25933,48.47745 2.5794,75.16667 l -0.4184,4.16666 h 3.50653 c 4.20314,0 16.11362,1.68844 21.67762,3.07302 9.5693,2.38131 17.9644,5.4938 26.7092,9.90242 29.0042,14.6222 50.54144,39.69676 59.86474,69.69697 15.9318,51.26442 -5.2364,106.96357 -51.24064,134.82821 -4.9862,3.02014 -20.1905,10.0223 -25.4876,11.73796 -3.2151,1.04136 -8.8457,2.41578 -12.5124,3.05425 -3.6667,0.63847 -8.72845,1.58378 -11.24845,2.10068 -3.91407,0.80287 -61.28166,0.92862 -393.66663,0.86296 -372.99695,-0.0737 -389.5178,-0.12747 -399.55511,-1.30101 z M 539.09909,484.19872 c 0.8598,-0.91522 1.41523,-1.81209 1.23427,-1.99305 -0.18095,-0.18095 -1.18826,0.56787 -2.23846,1.66404 -1.05021,1.09617 -1.60563,1.99305 -1.23428,1.99305 0.37135,0 1.37866,-0.74882 2.23847,-1.66404 z"
       id="path408" />
    <path
       style="fill:#87aade;stroke-width:0.589411"
       d="m 206.58859,619.73577 c -80.91239,-0.4004 -76.43336,-0.21365 -92.76339,-3.86773 -9.47496,-2.12015 -17.34008,-4.95232 -26.958551,-9.70756 C 64.146822,594.92811 45.924862,579.18946 33.012766,559.64585 24.908224,547.37891 17.62486,529.6168 14.624706,514.80246 c -1.240397,-6.1249 -1.360452,-8.2406 -1.335106,-23.5283 0.0267,-16.10378 0.09456,-17.09646 1.641468,-24.01269 11.380153,-50.88059 51.974186,-88.17904 104.424682,-95.94706 8.73821,-1.29415 28.74498,-1.28154 38.01702,0.024 11.81985,1.66423 11.72853,1.65803 12.68711,0.86248 0.49962,-0.41465 3.20454,-3.81097 6.01095,-7.54737 5.93597,-7.90306 18.07707,-20.62972 26.09718,-27.35584 24.33045,-20.40488 56.53166,-34.03453 91.06402,-38.5442 10.61802,-1.38664 33.72012,-1.39322 44.13597,-0.0126 8.66484,1.14855 21.26844,3.52526 25.49647,4.80798 1.57582,0.47807 3.71692,0.8721 4.758,0.87561 2.11161,0.007 2.18283,-0.14875 3.97616,-8.70164 6.87923,-32.80917 21.49111,-67.52277 39.97501,-94.96906 15.96865,-23.71148 38.82377,-47.9691 61.42878,-65.19841 22.94165,-17.48588 53.96528,-33.70767 81.63344,-42.684905 19.02702,-6.173523 42.03294,-10.814626 61.88816,-12.485022 10.91938,-0.918634 46.87958,-0.325163 55.99406,0.924099 62.64114,8.585808 115.87976,34.090938 159.37812,76.353558 46.98167,45.64693 75.23485,105.11822 81.766,172.1124 0.91771,9.41395 0.7957,36.7837 -0.21072,47.26252 l -0.77472,8.06669 4.43373,0.3798 c 18.29491,1.56715 31.76896,5.23185 46.79517,12.72742 12.92278,6.4463 23.10221,13.87962 33.12591,24.18945 40.12703,41.27251 43.49903,105.2362 7.99633,151.68502 -3.7031,4.84492 -13.06391,14.46288 -18.05899,18.5552 -9.43476,7.72957 -18.21051,12.80643 -32.47378,18.78639 -7.59728,3.18521 -10.6806,4.08368 -22.00938,6.41338 l -7.40501,1.52281 -41.25878,0.42592 c -49.37326,0.50967 -571.72685,0.46776 -677.23337,-0.0543 z M 539.12583,484.6879 c 1.34235,-1.26108 1.8308,-2.84432 0.87749,-2.84432 -0.51061,0 -2.57772,2.12835 -3.2916,3.38912 -0.68404,1.20806 0.93789,0.84203 2.41411,-0.5448 z"
       id="path488" />
    <path
       style="fill:#87aade;stroke-width:0.589411"
       d="m 206.58859,619.76662 c -72.67795,-0.38121 -74.42931,-0.41705 -81.91354,-1.6765 -15.3661,-2.58581 -26.61648,-6.19351 -39.049989,-12.52228 -27.769944,-14.13517 -47.885298,-34.06303 -60.335534,-59.77315 -9.167088,-18.93032 -12.29238,-32.54972 -12.311684,-53.65187 -0.01158,-12.66239 0.54006,-18.87142 2.381298,-26.80275 11.473361,-49.42268 52.695791,-86.68843 103.993189,-94.01154 9.54731,-1.36295 28.57587,-1.32487 38.31514,0.0767 3.89012,0.55981 8.25506,1.03691 9.69989,1.06022 l 2.62696,0.0424 5.6248,-7.36764 c 6.79708,-8.90314 19.97245,-22.56453 28.02242,-29.0561 24.94707,-20.11756 55.50803,-32.85424 89.59049,-37.33802 10.56005,-1.38925 33.64897,-1.39103 44.13597,-0.004 8.65662,1.14543 21.26263,3.52172 25.49647,4.8062 3.51804,1.06731 5.77543,1.11738 6.54821,0.14523 0.32212,-0.40522 1.03829,-2.85865 1.5915,-5.45206 6.66992,-31.26794 17.86327,-60.24262 33.02838,-85.49603 12.8532,-21.40352 26.19133,-38.07992 45.35927,-56.71178 20.31301,-19.74477 40.77891,-34.17557 66.9323,-47.19478 29.75575,-14.812466 52.62653,-21.859444 88.70638,-27.332336 8.12904,-1.233085 10.83502,-1.341342 33.59643,-1.344077 25.90208,-0.0031 29.13058,0.207263 45.52016,2.966174 59.20859,9.96678 111.34047,37.127209 152.81898,79.617849 27.67073,28.34598 47.91618,60.68247 61.58326,98.36221 7.26532,20.03031 12.25687,42.16296 14.82163,65.71934 1.21212,11.13325 1.26216,38.77253 0.0914,50.50476 l -0.77561,7.77245 4.42878,0.36046 c 29.91491,2.43483 56.00231,13.87894 76.47603,33.54876 10.93373,10.50452 18.05963,20.17383 24.36623,33.06343 19.6784,40.21928 13.9595,88.66157 -14.654,124.12745 -5.115,6.34011 -16.02865,16.63774 -22.56292,21.28946 -3.0581,2.17703 -8.61036,5.53169 -12.33838,7.45479 -15.14522,7.81265 -23.42674,10.63619 -40.07996,13.665 l -7.36764,1.34 -320.05023,0.10057 c -176.02763,0.0553 -353.46984,-0.0747 -394.31604,-0.28897 z m 332.45466,-135.2439 c 1.84765,-1.84764 1.95682,-3.1616 0.16377,-1.97106 -0.70563,0.46852 -1.66631,1.4292 -2.13483,2.13483 -1.19054,1.79305 0.12342,1.68388 1.97106,-0.16377 z"
       id="path490" />
    <path
       style="fill:#87aade;stroke-width:0.589411"
       d="M 206.58859,619.74171 C 125.53279,619.34708 129.07275,619.4959 113.46164,615.8267 94.229956,611.30654 73.647885,600.72049 57.077046,586.82621 47.463899,578.7658 37.559206,567.33679 31.223196,556.9935 24.294379,545.68248 17.500394,528.70418 14.713201,515.73472 13.1004,508.22998 12.408646,484.57199 13.536894,475.50503 c 3.322059,-26.69709 18.184372,-54.62907 38.890818,-73.09074 17.526895,-15.62681 40.229088,-26.64903 62.802158,-30.4913 12.68027,-2.15836 32.71085,-2.16015 46.6975,-0.004 3.63964,0.56103 6.99278,0.87607 7.45141,0.70007 0.45863,-0.17599 3.31427,-3.58841 6.34587,-7.58316 6.73983,-8.8811 19.87918,-22.47749 28.21159,-29.19291 32.1999,-25.95113 75.35788,-39.96188 117.82979,-38.2521 14.04459,0.56539 23.4661,1.94887 43.58252,6.39975 3.91734,0.86674 4.28982,0.47781 5.69006,-5.94142 7.59492,-34.81786 18.89723,-63.0613 36.35757,-90.85426 11.64919,-18.54296 23.89743,-33.49969 41.44917,-50.61497 20.70508,-20.19021 40.96756,-34.52793 67.47878,-47.74794 29.04512,-14.483549 51.91646,-21.631727 86.35604,-26.989591 10.35955,-1.611669 11.17518,-1.649733 35.65206,-1.663896 30.10925,-0.01742 38.26935,0.788073 62.18288,6.138172 105.31138,23.560995 187.35658,107.355335 208.65589,213.104235 5.39253,26.7731 6.54818,50.03693 4.03057,81.13353 l -0.36514,4.51008 4.64863,0.39997 c 22.20683,1.91067 41.25282,8.29093 58.57974,19.62379 8.65421,5.66039 14.12371,10.21847 21.56991,17.97556 33.78559,35.19624 41.57479,87.13056 19.66919,131.14348 -6.778,13.61851 -13.006,22.05387 -24.25557,32.85272 -10.88583,10.44962 -20.81152,16.79928 -37.61292,24.06171 -6.81406,2.94539 -11.3431,4.29533 -22.39762,6.67595 l -7.36764,1.58663 -41.25878,0.41588 c -49.49155,0.49886 -572.61851,0.45376 -677.82278,-0.0585 z M 539.04325,484.52272 c 1.84765,-1.84764 1.95682,-3.1616 0.16377,-1.97106 -0.70563,0.46852 -1.66631,1.4292 -2.13483,2.13483 -1.19054,1.79305 0.12342,1.68388 1.97106,-0.16377 z"
       id="path492" />
    <path
       style="fill:#87aade;stroke-width:0.589411"
       d="m 197.45272,619.71773 c -70.80193,-0.3924 -69.02399,-0.31059 -83.95357,-3.86318 -29.246999,-6.9595 -57.26728,-25.24151 -75.867541,-49.50026 -8.258619,-10.77102 -16.017744,-26.2662 -20.330013,-40.59958 -3.27247,-10.87723 -3.84312,-15.07583 -4.165692,-30.64938 -0.349859,-16.89093 0.277183,-22.97963 3.621037,-35.16093 13.677317,-49.825 59.662833,-86.58224 111.885329,-89.43239 10.3281,-0.56368 25.31577,0.0525 33.44579,1.37494 3.07967,0.50096 6.04907,0.91191 6.59867,0.91321 0.55527,10e-4 2.51939,-1.99843 4.42058,-4.50076 10.4672,-13.77691 23.60081,-27.15509 35.24952,-35.90594 38.06182,-28.59315 88.63373,-40.52736 137.33279,-32.40844 4.86264,0.81068 11.57672,2.14263 14.92018,2.95989 7.21193,1.76286 8.14943,1.81094 8.86169,0.45446 0.29789,-0.56731 1.4008,-4.87738 2.45092,-9.57793 9.76551,-43.71243 28.9173,-82.57049 57.66429,-116.99811 5.99987,-7.18549 26.70395,-27.80384 34.07027,-33.92919 23.6456,-19.66213 53.07356,-36.39844 83.76039,-47.636335 19.29749,-7.066977 46.90002,-13.053621 68.60926,-14.880502 9.143,-0.769403 46.89897,-0.322732 54.72323,0.647402 53.78105,6.668334 101.55512,26.913725 143.81631,60.945575 10.5949,8.53179 30.59609,28.75468 39.71752,40.15775 24.53837,30.67643 41.88132,65.27222 51.60336,102.93849 8.09037,31.34484 10.33963,60.78818 7.31548,95.76375 l -0.36285,4.19658 4.64704,0.40922 c 26.45136,2.32931 48.01148,10.71557 68.30338,26.568 5.32085,4.15675 15.76871,14.71159 19.83111,20.03428 17.9943,23.57613 26.4058,52.88147 23.4555,81.71834 -1.4577,14.24848 -5.1102,26.79983 -11.7247,40.28976 -6.7095,13.68394 -12.7021,21.83849 -24.13315,32.83967 -8.43642,8.11915 -15.70539,13.37287 -25.4058,18.36223 -13.98066,7.19088 -19.99466,9.36189 -34.77526,12.55362 -7.35113,1.58741 -7.44167,1.59186 -40.37466,1.9861 -40.5509,0.48544 -605.23985,0.42831 -695.21041,-0.0703 z M 538.93609,484.41556 c 1.80327,-1.80327 2.04612,-2.87688 0.45855,-2.02724 -1.26036,0.67453 -3.31794,3.58114 -2.53508,3.58114 0.28744,0 1.22188,-0.69925 2.07653,-1.5539 z"
       id="path494" />
    <path
       style="fill:#87aade;stroke-width:0.589411"
       d="m 193.32684,619.74373 c -42.85266,-0.25937 -61.87099,-0.576 -65.42463,-1.08925 -13.73736,-1.98406 -28.010058,-6.12887 -38.7375,-11.24944 -37.812902,-18.04934 -63.260801,-47.97193 -72.949053,-85.77621 -2.613317,-10.19735 -3.274921,-16.31077 -3.26969,-30.2129 0.005,-13.35 0.522462,-18.3253 2.929542,-28.16832 12.603728,-51.53913 58.765658,-89.52282 112.725881,-92.7549 10.22014,-0.61216 24.58385,-0.0235 33.89299,1.38899 3.30315,0.50119 6.36841,0.77208 6.81169,0.60198 0.44328,-0.1701 2.36842,-2.35613 4.2781,-4.85785 8.61107,-11.2807 20.29853,-23.59785 30.05737,-31.67679 11.95899,-9.90034 32.07043,-21.29475 47.7423,-27.04904 35.0727,-12.87776 72.14088,-14.86442 109.83295,-5.88646 3.59644,0.85664 6.93119,1.40702 7.41058,1.22307 0.47939,-0.18397 1.11856,-1.34277 1.42038,-2.57512 0.30183,-1.23236 1.80152,-7.41273 3.33267,-13.73416 12.28918,-50.73675 36.92768,-93.76756 74.92732,-130.85959 21.96985,-21.44511 41.20796,-35.03933 69.12055,-48.84261 26.54094,-13.124977 47.75587,-19.990177 77.58223,-25.105783 6.48352,-1.112008 15.50151,-2.331697 20.03998,-2.71042 11.44182,-0.954791 48.20775,-0.395851 57.9153,0.880467 54.30786,7.140232 103.21738,28.522636 144.84212,63.322556 7.65433,6.39932 26.86306,25.77548 33.39379,33.68491 27.02928,32.73522 45.36621,68.96618 55.32183,109.30732 7.6752,31.1006 9.66499,58.66581 6.70562,92.89424 l -0.38506,4.45413 7.29714,0.74483 c 29.21634,2.98216 54.07423,14.35381 74.10955,33.90261 10.65451,10.39584 17.98781,20.46276 23.94241,32.86764 15.5056,32.30183 15.1948,70.08156 -0.8383,101.90635 -6.741,13.3806 -12.9339,21.73091 -24.05242,32.43153 -9.52164,9.16379 -16.08785,13.7346 -28.73119,20.00019 -11.91949,5.90687 -17.85669,8.05123 -29.61355,10.69561 l -8.10877,1.82384 -35.65937,0.45038 c -41.82679,0.52829 -609.6008,0.50241 -697.86276,-0.0318 z m 347.07795,-137.5924 c -0.45775,-0.45776 -3.45127,2.4363 -3.45127,3.3366 0,0.41446 0.84841,-0.0948 1.88536,-1.13179 1.03695,-1.03695 1.74161,-2.02911 1.56591,-2.20481 z"
       id="path496" />
    <path
       style="fill:#87aade;stroke-width:0.589411"
       d="m 193.32684,619.74373 c -42.68676,-0.25836 -61.88475,-0.57709 -65.42463,-1.08618 -19.3463,-2.78229 -34.913,-8.27501 -51.769986,-18.26708 -30.471315,-18.06203 -51.416175,-45.59443 -59.916718,-78.76164 -2.938356,-11.4648 -3.439233,-16.96042 -3.074679,-33.73534 0.275834,-12.69246 0.509934,-15.45649 1.79474,-21.19055 12.01932,-53.64195 58.422074,-92.90127 113.720003,-96.21348 10.17634,-0.60953 24.38424,-0.0186 33.89372,1.4097 3.27294,0.49159 6.29844,0.75441 6.72332,0.58404 0.42487,-0.17037 2.23129,-2.2062 4.01426,-4.52407 9.10564,-11.83739 20.5493,-23.90689 30.35467,-32.01471 15.87843,-13.12949 39.98034,-25.50051 61.39858,-31.51465 17.5034,-4.91487 30.60371,-6.6913 49.70541,-6.7402 17.63517,-0.0451 29.88999,1.35719 46.72953,5.34727 3.49518,0.82818 6.70307,1.37215 7.12866,1.20884 0.85696,-0.32885 1.10199,-1.16495 4.43683,-15.13953 8.89499,-37.27426 24.94002,-71.24774 47.94605,-101.52016 13.81562,-18.17925 34.37333,-38.75117 52.46885,-52.50513 20.56306,-15.62947 47.97031,-30.45572 73.01969,-39.500796 20.61997,-7.445656 47.62875,-13.417944 68.63288,-15.176368 12.54833,-1.050524 48.78839,-0.362773 59.7677,1.134249 62.29086,8.493333 117.97706,36.242945 161.22593,80.342245 29.64425,30.22715 50.32639,63.68364 63.9013,103.36982 12.59123,36.8105 17.03663,75.79711 13.21171,115.86876 l -0.37186,3.89566 4.94015,0.40066 c 49.4757,4.01268 90.96625,35.65245 105.96835,80.8091 9.6162,28.94496 7.3176,60.87887 -6.3424,88.11566 -6.5882,13.13624 -13.0136,21.78974 -24.10642,32.46566 -9.42827,9.07388 -16.06221,13.68971 -28.73119,19.99079 -11.86013,5.89879 -17.45276,7.92466 -29.47822,10.67817 l -8.2441,1.88767 -35.65937,0.4319 c -42.48717,0.51458 -611.307,0.47358 -697.86276,-0.0503 z M 540.18681,482.52276 c -0.38903,-0.38903 -3.23329,2.31186 -3.23329,3.07031 0,0.32831 0.79294,-0.16274 1.76209,-1.09125 0.96914,-0.9285 1.63119,-1.81908 1.4712,-1.97906 z"
       id="path498" />
    <path
       style="fill:#87aade;stroke-width:0.589411"
       d="M 190.08508,619.73326 C 127.54309,619.3271 128.11285,619.35399 114.34576,616.15839 95.07193,611.68457 73.883314,600.9363 57.700755,587.42428 34.126537,567.74043 18.132853,539.50907 13.793841,509.92171 12.349894,500.07556 12.8628,476.24737 14.70272,467.69772 c 9.196864,-42.73554 40.175384,-77.08733 82.123427,-91.06591 19.694173,-6.5628 41.907023,-8.1689 65.822143,-4.75928 4.82524,0.68795 6.34734,0.72419 7.02611,0.16733 0.47656,-0.39097 3.36705,-3.85458 6.4233,-7.6969 5.83513,-7.33591 13.2103,-15.32999 20.34591,-22.05328 26.57428,-25.03875 65.17156,-41.28478 105.4831,-44.39902 18.41507,-1.42265 36.78564,0.11045 58.40313,4.87398 4.55882,1.00456 8.37976,1.57346 8.66242,1.28973 0.27814,-0.27921 1.82474,-5.94496 3.43689,-12.59057 10.76429,-44.37277 28.50868,-80.22594 56.15424,-113.46164 6.42199,-7.72058 22.032,-23.63703 30.56787,-31.16796 15.0859,-13.30983 31.62885,-24.7599 49.285,-34.11224 32.40633,-17.165414 59.13696,-25.780825 97.77307,-31.512734 10.41195,-1.54468 55.24939,-1.523972 66.89816,0.0309 68.66044,9.164753 129.07449,41.194344 173.90711,92.199994 34.86702,39.66789 57.36779,88.84743 65.05513,142.18953 2.84785,19.76142 3.2885,45.3607 1.13532,65.96087 l -0.34881,3.33766 7.06922,0.70681 c 23.65141,2.36473 44.75475,10.43619 63.09599,24.1325 5.5658,4.15625 16.17526,14.35076 20.72375,19.91321 17.5518,21.46446 26.8648,49.2777 25.7556,76.91815 -1.1955,29.78765 -12.7039,56.60368 -33.21607,77.39776 -10.62885,10.77492 -18.74133,16.58381 -32.63917,23.37105 -10.76436,5.25697 -16.42642,7.30251 -27.36601,9.88657 l -8.84116,2.08838 -29.47056,0.40394 c -37.08911,0.50835 -629.26796,0.49723 -707.88275,-0.0133 z M 539.01973,484.19762 c 1.57577,-1.74121 0.73218,-2.01505 -0.88956,-0.28877 -0.76017,0.80916 -1.11177,1.4712 -0.78133,1.4712 0.33044,0 1.08234,-0.5321 1.67089,-1.18243 z"
       id="path500" />
    <path
       style="fill:#87aade;stroke-width:0.589411"
       d="m 194.54693,620.2782 c -40.72035,-0.26119 -59.55305,-0.58717 -63.06699,-1.09167 -32.902811,-4.7238 -64.109948,-21.84309 -85.309892,-46.79839 -11.210801,-13.19668 -20.499626,-30.68959 -25.10375,-47.27589 -3.471229,-12.50506 -3.638666,-14.03164 -3.620244,-33.00702 0.01565,-16.1186 0.134707,-18.2205 1.346288,-23.76773 11.815231,-54.09614 57.588207,-93.39996 113.388268,-97.36296 8.94937,-0.63559 25.32619,-0.0403 33.41391,1.21452 6.95808,1.07958 8.16271,0.75818 11.15414,-2.97605 16.45316,-20.53852 27.46639,-31.10323 43.73236,-41.95131 29.90968,-19.94732 67.4917,-30.42943 104.62047,-29.18 14.33811,0.4825 23.9241,1.80792 43.0269,5.9492 3.41479,0.74029 4.25968,0.76051 4.90286,0.11733 0.42739,-0.42739 2.06525,-6.05422 3.63968,-12.50404 7.63506,-31.27784 17.73279,-56.07536 32.97681,-80.98277 16.36214,-26.73434 40.72086,-53.89926 65.90254,-73.49472 30.47583,-23.71518 69.64204,-42.074993 107.71328,-50.492407 22.44919,-4.963437 34.67688,-6.261676 58.94111,-6.2579 24.96062,0.0039 36.182,0.938268 53.93112,4.490742 47.00978,9.408989 88.40306,29.129445 125.14141,59.619445 2.97723,2.47088 9.49735,8.48203 14.48914,13.35811 23.05186,22.51754 39.66017,45.06255 53.64207,72.81671 15.51406,30.79549 24.84138,62.94697 28.29898,97.54754 1.47188,14.72937 1.33419,37.90624 -0.31917,53.72463 l -0.36484,3.49097 7.06922,0.70681 c 23.47984,2.34757 44.55111,10.35609 62.78271,23.86166 5.57913,4.13288 16.76989,14.87046 21.34299,20.47876 8.9141,10.93185 16.5286,25.31254 20.6695,39.03616 12.2173,40.49002 1.3201,84.69654 -28.3207,114.88891 -10.50743,10.70295 -18.8354,16.6696 -32.7544,23.46718 -10.66652,5.2092 -16.33046,7.25939 -27.36601,9.90573 l -8.84116,2.12013 -30.35468,0.39048 c -38.32474,0.49301 -628.76142,0.45779 -706.70392,-0.0421 z M 543.18687,484.73398 c 1.57577,-1.74121 0.73218,-2.01505 -0.88956,-0.28877 -0.76017,0.80916 -1.11177,1.4712 -0.78133,1.4712 0.33044,0 1.08234,-0.5321 1.67089,-1.18243 z"
       id="path502" />
    <path
       style="fill:#535d6c;stroke-width:0.589411"
       d="m 165.91922,619.75645 c -37.14261,-0.43767 -40.34828,-0.68386 -53.61631,-4.11762 -9.97837,-2.5824 -16.302895,-4.95034 -25.954184,-9.71743 C 47.768386,586.86532 23.30165,555.71968 14.3442,514.26118 c -0.917682,-4.24738 -1.079837,-7.70156 -1.065284,-22.69232 0.01565,-16.1186 0.134707,-18.2205 1.346289,-23.76773 11.815231,-54.09614 57.588205,-93.39996 113.388265,-97.36296 8.94937,-0.63559 25.32619,-0.0403 33.41391,1.21452 6.95808,1.07958 8.1627,0.75818 11.15414,-2.97605 16.45315,-20.53852 27.46639,-31.10323 43.73235,-41.9513 24.02812,-16.02481 53.63984,-26.16143 83.99109,-28.75166 18.17007,-1.55067 38.34752,-0.0459 58.864,4.38991 8.53042,1.84432 9.66572,1.8609 10.3883,0.15166 0.30835,-0.7294 1.63678,-5.83517 2.95206,-11.34617 8.47292,-35.5014 22.64206,-67.53619 41.94869,-94.84113 11.24528,-15.90395 29.98583,-36.68875 44.80241,-49.68949 32.6977,-28.69049 75.48043,-50.453102 118.36899,-60.211636 11.81105,-2.687395 27.56235,-5.216425 37.46716,-6.01574 11.65131,-0.940253 49.12435,-0.372649 58.60032,0.887617 32.54857,4.328842 63.47303,13.585666 91.65342,27.435229 22.79542,11.20306 44.03131,25.41157 61.06671,40.85857 7.96854,7.22557 22.6325,22.26855 28.26833,28.99906 36.40951,43.48152 58.57738,97.6726 63.08526,154.21684 0.69144,8.673 0.3441,40.47281 -0.52835,48.3774 l -0.4374,3.9627 2.66437,0.34166 c 28.77452,3.68977 48.22874,10.84767 66.69476,24.53939 6.67355,4.94815 19.33781,17.46101 24.06461,23.77702 10.4916,14.0188 17.2974,29.11998 21.1023,46.82313 1.4957,6.95946 1.5903,8.3026 1.5798,22.43267 -0.011,14.09699 -0.1108,15.4967 -1.6145,22.54848 -3.8203,17.91562 -11.2789,34.24719 -22.1385,48.47556 -3.5841,4.69583 -14.14359,15.52572 -18.9388,19.42367 -6.1228,4.97709 -12.13739,8.76225 -20.96058,13.19099 -11.01315,5.528 -15.79115,7.35561 -27.66165,10.58074 l -10.03243,2.72573 -365.72958,0.0759 c -201.15128,0.0417 -381.11322,-0.1054 -399.91544,-0.32696 z"
       id="path5754" />
  </g>
</svg>
