<?xml version="1.0" encoding="UTF-8" standalone="no"?>
<!-- Created with Inkscape (http://www.inkscape.org/) -->

<svg
   version="1.1"
   id="svg3479"
   width="1027.3333"
   height="942"
   viewBox="0 0 1027.3333 942"
   sodipodi:docname="hail.svg"
   inkscape:version="1.2.2 (b0a84865, 2022-12-01)"
   xmlns:inkscape="http://www.inkscape.org/namespaces/inkscape"
   xmlns:sodipodi="http://sodipodi.sourceforge.net/DTD/sodipodi-0.dtd"
   xmlns="http://www.w3.org/2000/svg"
   xmlns:svg="http://www.w3.org/2000/svg">
  <defs
     id="defs3483" />
  <sodipodi:namedview
     id="namedview3481"
     pagecolor="#ffffff"
     bordercolor="#000000"
     borderopacity="0.25"
     inkscape:showpageshadow="2"
     inkscape:pageopacity="0.0"
     inkscape:pagecheckerboard="0"
     inkscape:deskcolor="#d1d1d1"
     showgrid="false"
     inkscape:zoom="1.0902335"
     inkscape:cx="513.65141"
     inkscape:cy="470.54138"
     inkscape:window-width="3440"
     inkscape:window-height="1412"
     inkscape:window-x="1440"
     inkscape:window-y="28"
     inkscape:window-maximized="0"
     inkscape:current-layer="g3485" />
  <g
     inkscape:groupmode="layer"
     inkscape:label="Image"
     id="g3485">
    <path
       style="fill:#d5f6ff;stroke-width:0.666667"
       d="m 778.18297,889.6812 c -9.85919,-2.77027 -18.55093,-9.781 -22.72873,-18.33287 -2.36913,-4.84946 -2.45006,-5.25706 -2.45213,-12.34833 0,-6.86627 0.13347,-7.61953 2.1266,-11.8272 8.76787,-18.50907 34.6976,-22.14327 51.09086,-7.16073 6.76127,6.1794 10.44707,14.17213 10.44707,22.6546 0,5.83633 -1.4094,10.33153 -4.84753,15.4608 -3.20814,4.7862 -9.17067,9.23233 -14.5058,10.81673 -5.10574,1.5162 -15.00054,1.89747 -19.13034,0.737 z m -313.51632,-5.3116 c -10.65859,-3.00033 -18.6558,-9.71333 -23.11313,-19.40147 -1.63007,-3.543 -1.82895,-4.75506 -1.85627,-11.31313 -0.0289,-6.945 0.0854,-7.5804 2.0994,-11.66667 11.49088,-23.31446 46.98817,-21.426 58.71009,3.12334 2.39246,5.0106 2.49324,5.50606 2.49324,12.25626 0,6.7904 -0.0871,7.21087 -2.51058,12.1144 -4.27775,8.6554 -11.68506,13.93027 -21.31915,15.1816 -6.37898,0.82854 -10.83607,0.73807 -14.5036,-0.29433 z m 137.25818,-6.6206 c -26.96184,-9.51773 -30.9964,-42.9124 -6.63928,-54.95427 4.60201,-2.2752 5.45669,-2.4656 12.08528,-2.69253 7.70614,-0.26373 12.14332,0.61567 17.94814,3.5572 6.83467,3.4634 13.36653,10.59553 16.13698,17.62 1.15382,2.92553 1.47558,5.1526 1.50571,10.42187 0.0368,6.4406 -0.0593,6.8988 -2.47227,11.78106 -2.85442,5.77554 -7.14632,10.103 -12.72872,12.8342 -6.91315,3.38227 -18.49348,4.02434 -25.83584,1.43247 z m -293.03072,-2.4796 c -7.41789,-1.2386 -15.42053,-5.63333 -20.25116,-11.1212 -1.47864,-1.67987 -3.8032,-5.3098 -5.1657,-8.06667 -2.38769,-4.83113 -2.47726,-5.268 -2.47726,-12.08153 0,-6.8304 0.0848,-7.24073 2.51059,-12.149 5.10988,-10.33913 14.47313,-15.79347 27.18268,-15.83473 13.50601,-0.044 25.54746,7.37073 31.20264,19.213 2.34926,4.91946 2.43742,5.3698 2.43742,12.4514 0,6.97326 -0.11264,7.5762 -2.21246,11.84153 -2.62528,5.33267 -7.57649,10.45493 -12.36842,12.79573 -5.25022,2.5646 -14.95266,3.93747 -20.85833,2.95147 z m 486.7254,-61.19793 c -3.2548,-1.47827 -6.4816,-5.203 -7.52527,-8.68634 -1.7024,-5.68226 -0.59493,-11.08893 5.06327,-24.71846 1.44606,-3.48334 3.46613,-9.33334 4.48913,-13 2.7968,-10.02514 4.69787,-14.66954 8.09813,-19.7842 3.5654,-5.36314 6.68394,-7.6926 11.1106,-8.29934 5.97294,-0.81866 11.89934,2.95694 13.83167,8.812 1.2072,3.65787 0.43593,12.86627 -1.58613,18.9382 -0.91587,2.75 -2.89434,7.9688 -4.3966,11.59734 -1.50234,3.62853 -3.7826,10.3278 -5.06734,14.88733 -1.2848,4.55947 -3.05173,9.69067 -3.92653,11.40267 -4.355,8.52226 -12.7102,12.20306 -20.09093,8.8508 z m -313.28619,-5.019 c -4.70398,-2.1058 -8.35105,-8.23154 -8.31704,-13.9696 0.0251,-4.24074 1.10516,-8.0438 4.68574,-16.49974 1.81124,-4.2774 4.52346,-12.08346 6.02719,-17.3468 5.82941,-20.40406 13.80241,-29.29873 23.84004,-26.59586 3.70624,0.99793 7.08746,4.0828 8.48441,7.74066 0.9064,2.37334 1.06112,4.24674 0.75445,9.1356 -0.43119,6.87394 -0.53001,7.22934 -5.50889,19.8166 -1.95798,4.95 -4.64052,12.71307 -5.96121,17.2512 -3.67049,12.6126 -6.53425,17.43394 -11.8974,20.0302 -3.32061,1.60747 -9.03297,1.814 -12.10729,0.43774 z m 142.32901,-5.00867 c -7.07978,-2.1536 -10.66235,-7.19647 -10.66235,-15.00847 0,-4.14046 1.53742,-9.64486 4.66501,-16.702 2.05787,-4.6434 3.68455,-9.37266 6.42055,-18.66666 3.56432,-12.10774 9.03563,-21.30467 14.291,-24.02234 2.88631,-1.4926 9.15136,-1.26046 11.94499,0.44254 2.85259,1.739 3.70726,2.7604 5.47035,6.5376 1.21101,2.59446 1.32526,3.70006 0.93004,9 -0.46195,6.19466 -1.77358,10.6322 -6.64828,22.4924 -1.30741,3.181 -3.45893,9.631 -4.78115,14.33333 -3.90713,13.8954 -7.49565,19.122 -14.58018,21.2356 -3.59406,1.07227 -4.54329,1.12047 -7.04998,0.358 z m -301.40925,-5.23993 c -6.62093,-3.4588 -9.23763,-10.62727 -7.02786,-19.25287 0.57585,-2.24773 2.43868,-7.34127 4.13963,-11.31893 1.70095,-3.9776 4.29428,-11.43207 5.76295,-16.5654 2.75906,-9.64347 6.3158,-17.4752 9.92436,-21.85267 5.80981,-7.04787 16.35427,-6.886 21.11375,0.32407 1.74998,2.65106 1.83056,3.13186 1.75725,10.48686 -0.0833,8.3536 -0.43677,9.70654 -6.10784,23.37507 -1.44522,3.48333 -3.71002,10.1488 -5.03288,14.8122 -1.32286,4.66333 -3.13916,9.91333 -4.03623,11.66667 -3.11119,6.0808 -9.05892,10.1878 -14.75391,10.1878 -1.19536,0 -3.77802,-0.83827 -5.73922,-1.8628 z m 417.89616,-53.7596 c -11.8596,-4.18547 -20.39086,-13.79694 -22.5474,-25.40227 -1.88806,-10.16033 2.524,-20.745 11.2528,-26.99553 10.16487,-7.27894 26.08774,-7.28934 37.409,-0.0247 7.51627,4.82313 13.26793,13.29847 14.8696,21.91093 2.69507,14.49214 -8.18707,29.36527 -23.06033,31.51754 -7.2484,1.04886 -13.0184,0.725 -17.92367,-1.0062 z m -308.48259,-3.80874 c -5.80749,-0.9404 -12.8375,-4.6486 -17.74321,-9.35926 -12.72615,-12.22034 -13.35787,-30.37407 -1.44887,-41.636 6.08036,-5.75 12.58556,-8.24027 21.52542,-8.24027 16.5503,0 30.91228,11.56227 33.80751,27.21713 2.05853,11.13067 -3.88034,23.2894 -13.98285,28.62714 -5.75943,3.04306 -15.2952,4.50246 -22.158,3.39126 z m 138.18143,-6.19346 c -9.68002,-2.34554 -19.03584,-9.68634 -22.9177,-17.98167 -5.49066,-11.73327 -3.70141,-23.66153 4.83615,-32.2408 17.83142,-17.91853 51.83261,-6.56727 55.75713,18.61453 2.52458,16.19907 -8.35902,29.9852 -25.19035,31.90827 -6.94413,0.79347 -8.08465,0.766 -12.48523,-0.30033 z M 271.7387,731.02833 c -13.32552,-3.83446 -23.06782,-14.20413 -25.09846,-26.71466 -1.93446,-11.918 4.45204,-23.742 15.69597,-29.0596 7.36345,-3.48247 14.25759,-4.07067 22.62557,-1.93054 6.6033,1.68887 11.74485,4.61887 16.37154,9.32974 10.6377,10.83113 12.26111,25.9838 4.01723,37.49626 -3.07053,4.28794 -9.18615,8.68734 -14.10811,10.149 -4.94042,1.4672 -15.56024,1.86454 -19.50374,0.7298 z m 491.59461,-59.797 c -7.2762,-2.11326 -11.4024,-9.61456 -10.00647,-18.19144 0.33787,-2.07612 2.38314,-8.18442 4.54494,-13.574 2.16186,-5.38957 4.89466,-13.20994 6.07293,-17.3786 5.06967,-17.93637 11.40706,-26.14901 20.23953,-26.22838 4.17807,-0.0375 6.8296,1.17526 9.68873,4.43162 3.11867,3.55197 3.7922,6.85216 2.89267,14.17326 -0.72767,5.92243 -2.25733,10.79813 -6.75667,21.53621 -1.15226,2.75 -3.15273,8.75 -4.44546,13.33333 -2.85627,10.12666 -4.76354,14.30165 -8.05567,17.63354 -3.9198,3.96713 -9.4596,5.6338 -14.17453,4.26446 z m -314.24182,-5.50308 c -6.76242,-2.51086 -10.30374,-9.62872 -8.98248,-18.05429 0.32308,-2.0602 2.36396,-8.15465 4.5353,-13.54323 2.17133,-5.38856 4.897,-13.2474 6.05704,-17.46406 2.19627,-7.98327 4.50932,-13.32656 7.85983,-18.15668 4.0722,-5.8705 7.21722,-7.84332 12.50362,-7.84332 3.96697,0 6.83913,1.28862 9.41754,4.22527 3.12902,3.56376 3.83154,6.88442 2.99762,14.16922 -0.6928,6.05207 -1.97358,10.25129 -6.38646,20.93884 -1.28687,3.11667 -3.4316,9.41667 -4.76607,14 -2.76884,9.50977 -4.32677,13.33255 -6.70337,16.44843 -3.70059,4.85172 -11.21891,7.25277 -16.53257,5.27982 z m 138.18001,-6.59958 c -3.93127,-2.05784 -7.03747,-6.69 -7.62169,-11.36592 -0.56705,-4.53847 0.62631,-9.28422 4.97961,-19.80294 1.82461,-4.40874 4.40125,-11.82826 5.72588,-16.48784 5.34707,-18.80912 12.65235,-27.6917 21.91573,-26.64758 4.0258,0.45376 7.39068,2.69431 9.53085,6.34623 1.56605,2.67226 1.78269,3.73437 1.73082,8.48569 -0.072,6.59462 -1.37047,11.90956 -4.96199,20.31038 -2.58598,6.0488 -4.25964,10.93506 -8.28799,24.19698 -2.31987,7.63733 -5.47824,12.1722 -10.19283,14.63514 -4.5401,2.37177 -8.71241,2.47914 -12.81839,0.32986 z m -298.66666,-4.01376 c -4.20612,-2.2214 -6.8026,-6.64464 -7.15571,-12.19015 -0.34001,-5.33985 0.47507,-8.60858 4.55281,-18.25809 1.78191,-4.21667 4.32098,-11.50698 5.64239,-16.20068 2.84131,-10.0925 4.60471,-14.2758 8.33031,-19.76198 3.85205,-5.67242 7.11112,-7.70401 12.35868,-7.70401 4.87192,0 8.5372,2.02426 11.08456,6.12179 1.39142,2.23815 1.57448,3.30822 1.51876,8.87821 -0.0735,7.34945 -0.90404,10.57484 -5.91841,22.98456 -1.95907,4.84838 -4.31411,11.63528 -5.2334,15.082 -2.55657,9.5854 -4.23896,13.50425 -7.28127,16.96049 -4.97456,5.65141 -11.93026,7.24001 -17.89872,4.08786 z m -80.93818,-91.20844 c -20.48529,-1.77276 -35.28736,-7.0108 -52.66667,-18.63728 -23.00791,-15.39192 -44.72801,-41.43218 -51.26713,-61.46422 -4.14941,-12.71138 -5.263823,-35.07372 -2.4936,-50.0381 4.33614,-23.4234 14.46522,-43.32488 30.36555,-59.66186 10.17796,-10.45746 18.66643,-16.61737 31.39518,-22.78281 8.82042,-4.27236 15.47034,-6.53249 25.81771,-8.77474 9.28416,-2.01185 29.99704,-2.17912 40.32185,-0.32561 6.25917,1.12365 7.0905,1.13922 10.34305,0.19368 4.25315,-1.23643 6.69056,-3.62704 10.20783,-10.01182 7.37538,-13.3883 19.78312,-24.08873 39.29774,-33.89034 25.91311,-13.01538 53.63883,-19.51276 86.67848,-20.31264 18.92838,-0.45824 27.88223,0.37398 31.78074,2.95389 3.92626,2.59828 8.68083,2.58947 12.10519,-0.0224 3.13116,-2.38825 4.19507,-4.49906 5.13993,-10.19773 3.85506,-23.25044 8.95768,-38.89597 18.78601,-57.60114 11.07386,-21.07565 24.71285,-38.93414 44.3103,-58.01859 28.90778,-28.15107 62.37832,-48.74513 102.90114,-63.313973 19.30592,-6.94092 40.60115,-10.06192 68.64335,-10.060307 51.09327,0.0027 96.13113,12.111513 131.563,35.37111 5.07626,3.3324 10.47626,6.68409 12,7.4482 8.4724,4.2488 29.14506,22.13573 41.1948,35.64356 40.34686,45.22924 62.00186,99.33338 63.47786,158.59665 0.25813,10.36535 -0.36727,26.52655 -1.2224,31.58797 l -0.422,2.49807 8.17207,0.84222 c 36.80106,3.79273 68.95419,25.58107 85.29593,57.80017 4.28423,8.44683 7.84043,18.66568 9.72253,27.93824 0.9545,4.70238 1.2101,8.95568 1.182,19.66666 -0.033,12.52433 -0.1913,14.33536 -1.8948,21.66667 -4.8263,20.77119 -14.32927,38.24541 -28.4484,52.31133 -8.16206,8.13136 -16.72026,14.2213 -27.6206,19.6546 -11.20113,5.58322 -18.69226,8.02598 -30.82786,10.05252 l -9.8388,1.64299 -348.66666,-0.089 C 371.23332,564.52344 211.33333,564.2238 207.66666,563.9065 Z M 72.333331,474.87196 C 58.135819,466.87848 44.045183,453.59616 34.891496,439.57799 10.926036,402.87673 10.79163,357.11625 34.545051,321.62609 50.41301,297.91765 74.850058,281.68052 103.9323,275.52193 c 7.52351,-1.59322 9.86338,-1.78303 22.40103,-1.81716 10.90567,-0.0297 15.54461,0.23872 20.98844,1.21435 l 6.98844,1.25245 1.34489,-1.86736 c 15.84949,-22.00672 33.21774,-36.87432 55.98161,-47.9215 20.45438,-9.9264 40.69156,-14.83328 64.03267,-15.52594 17.20308,-0.5105 32.80992,1.19334 47.15276,5.14781 2.46886,0.68069 4.61054,1.03312 4.7593,0.78318 0.14876,-0.24993 0.62549,-2.25443 1.0594,-4.45443 18.8081,-95.36189 95.08094,-170.139361 191.02581,-187.28065 16.3336,-2.918124 22.325,-3.386086 43.33333,-3.384577 25.93949,0.0019 40.59988,1.874756 63.33333,8.09096 13.0654,3.572584 38.95458,13.9338 45.81373,18.335302 2.77694,1.78198 3.18627,2.335436 3.18627,4.308466 v 2.263836 l -5.16667,0.0069 c -18.90888,0.02517 -45.92815,4.48338 -74.62596,12.313362 -25.71184,7.01528 -40.80682,13.421553 -58.32296,24.752126 -3.90633,2.526867 -11.19534,7.1443 -16.1978,10.260965 -32.71392,20.38163 -62.96433,49.06476 -82.96513,78.66667 -14.17256,20.97592 -25.25821,44.61298 -30.74165,65.54803 -1.39397,5.32198 -1.67233,5.84508 -2.92682,5.49981 -0.76248,-0.20986 -4.98633,-1.05045 -9.38633,-1.86799 -6.95903,-1.29302 -10.25545,-1.48709 -25.33334,-1.49148 -18.42073,-0.005 -24.22521,0.57554 -40.27371,4.03052 -34.6239,7.45395 -65.51438,23.55092 -86.45885,45.05355 -6.04843,6.20961 -12.78862,14.77835 -15.21132,19.338 l -1.27723,2.40381 -12.38944,-0.33183 c -18.27779,-0.48955 -33.16963,1.82505 -48.56079,7.54764 C 118.38166,343.91408 86.362097,384.5102 79.047404,436 c -1.221167,8.59609 -1.675933,28.92789 -0.82386,36.83333 0.306287,2.84167 0.306287,5.13848 0,5.10404 -0.306287,-0.0345 -2.95688,-1.41388 -5.890213,-3.06541 z"
       id="path3489" />
    <path
       style="fill:#b7c4c8;stroke-width:0.917235"
       d="m 325.15969,563.62853 c -126.08426,-0.49999 -126.60731,-0.5097 -133.98738,-2.48632 -4.07495,-1.0914 -10.22336,-3.04368 -13.66312,-4.33841 -23.83925,-8.97307 -52.46159,-34.20612 -66.63602,-58.74538 -8.02561,-13.89422 -10.35005,-23.96955 -10.36896,-44.9445 -0.0137,-15.23015 0.62416,-19.81651 4.65646,-33.47906 6.65471,-22.54805 24.03735,-46.45004 43.28765,-59.52267 7.9336,-5.38761 22.92601,-12.43476 32.70553,-15.37316 7.75205,-2.32921 9.37301,-2.48285 26.5998,-2.52118 10.08958,-0.0225 21.5084,0.15465 25.37515,0.39356 8.79531,0.5434 10.22025,-0.36395 17.42257,-11.09391 9.98173,-14.87071 21.86758,-24.54605 42.11133,-34.27949 26.63353,-12.80574 52.94414,-18.26428 88.4483,-18.34997 19.04513,-0.046 20.43056,0.0673 24.65263,2.01508 10.04941,4.63618 16.88752,1.48453 18.92129,-8.7207 5.2983,-26.58626 8.35455,-36.3219 16.91444,-53.88057 10.19448,-20.91164 22.49554,-37.96361 41.26617,-57.20397 23.7206,-24.31419 47.79484,-41.63799 78.02347,-56.14558 35.94336,-17.250268 57.78507,-22.23336 97.68549,-22.286526 53.79525,-0.07168 92.49578,10.316769 133.91626,35.947376 19.67397,12.17407 26.42616,17.48122 42.22602,33.18919 42.02198,41.77759 66.06661,92.74133 71.58114,151.71963 1.08155,11.56737 0.75825,45.2494 -0.46334,48.27074 -0.47598,1.17719 1.29323,1.6632 10.75185,2.95355 44.58911,6.08285 78.4529,35.46883 90.63138,78.64712 1.9967,7.07945 2.1949,9.48366 2.1549,26.14119 -0.042,17.37726 -0.178,18.78003 -2.5836,26.5998 -9.33713,30.35187 -27.07166,52.19572 -53.4283,65.8084 -10.58908,5.46904 -19.41579,8.3923 -32.39984,10.73028 -10.39979,1.87264 -11.95737,1.8835 -239.84533,1.67115 -126.15766,-0.11754 -286.33783,-0.4396 -355.95594,-0.71567 z"
       id="path3569" />
    <path
       style="fill:#6f7c91;stroke-width:0.917235"
       d="M 72.461538,474.51499 C 44.528828,458.5219 24.275333,429.39923 18.666465,397.16261 c -2.092838,-12.02846 -1.296648,-31.03928 1.792792,-42.80692 8.050196,-30.66311 28.474155,-55.43445 57.047072,-69.18996 16.476375,-7.932 31.410961,-11.35613 49.530671,-11.35613 6.66032,0 20.99098,1.27843 25.65233,2.28843 1.46502,0.31743 3.14265,-1.2801 7.82674,-7.45303 7.96399,-10.49537 22.6745,-24.4509 33.18119,-31.47826 16.45723,-11.00735 38.35184,-19.89375 58.08366,-23.57452 7.30799,-1.36323 13.46036,-1.70416 30.26874,-1.67732 18.52691,0.0296 22.21356,0.28663 30.26874,2.11044 5.04479,1.14222 10.61699,2.29496 12.38267,2.56165 l 3.21032,0.48489 3.78692,-15.43661 c 4.65412,-18.97155 8.56618,-29.71301 17.34952,-47.63701 29.60656,-60.417543 86.177,-106.952542 150.84506,-124.085571 24.10992,-6.387633 29.49616,-6.981822 63.28919,-6.981822 29.92833,0 31.05348,0.06597 43.26833,2.536733 20.76255,4.199764 42.40055,11.421456 59.00334,19.692393 7.56447,3.768357 9.63096,5.425498 9.63096,7.723161 0,1.518848 -0.84132,1.692309 -8.20813,1.692309 -30.78395,0 -89.68095,14.646261 -116.17444,28.889778 -7.5191,4.042448 -34.57167,21.004569 -43.01275,26.969259 -49.67858,35.10418 -85.70316,83.39151 -100.40422,134.58179 l -1.87682,6.53527 -5.72803,-1.34496 c -9.32092,-2.18858 -42.86684,-2.64375 -55.7373,-0.7563 -29.10106,4.2677 -56.08624,14.35261 -79.32082,29.6438 -11.01828,7.25137 -29.57029,25.31847 -34.8224,33.91223 l -3.50358,5.73272 -14.7747,0.004 c -17.01346,0.005 -27.72912,1.47878 -40.68884,5.599 -20.45032,6.50165 -37.70856,17.05123 -52.99734,32.39611 -19.13983,19.21005 -31.332448,41.72035 -37.256004,68.78291 -2.282483,10.42782 -3.701917,31.20059 -2.935307,42.95686 0.32074,4.91867 0.420968,8.93916 0.222731,8.93443 -0.198237,-0.005 -2.630587,-1.30839 -5.405222,-2.89703 z"
       id="path3571" />
    <path
       style="fill:#d7e3f4;stroke-width:0.917235"
       d="m 258.20156,562.70715 -63.28919,-0.56559 -9.17235,-3.00288 c -19.20702,-6.28804 -36.04708,-17.14611 -52.74099,-34.0061 -15.60623,-15.76149 -25.74987,-31.50516 -29.47867,-45.75305 -2.29691,-8.77656 -3.34799,-33.23885 -1.84098,-42.84606 2.48049,-15.81319 8.90635,-32.13449 18.07951,-45.92091 6.1832,-9.29277 17.69599,-21.63956 25.95757,-27.83798 7.16516,-5.37579 21.33535,-12.60831 32.78663,-16.73444 l 8.15416,-2.9381 27.35994,-0.1654 c 31.76444,-0.19201 27.95513,1.04528 37.78699,-12.27354 13.82935,-18.73409 32.40149,-31.22706 61.16841,-41.14632 19.93123,-6.87257 35.03523,-9.17724 64.92809,-9.90716 20.35991,-0.49713 21.85838,-0.41865 27.02663,1.41548 7.89713,2.80257 12.81543,2.59918 16.07958,-0.66497 1.43372,-1.43372 3.00263,-4.21982 3.48646,-6.19133 0.48384,-1.97152 2.22161,-9.36315 3.86171,-16.42586 3.86874,-16.65976 7.10843,-25.72165 14.42478,-40.34823 13.86959,-27.72757 35.08706,-53.49995 63.53369,-77.17297 24.59994,-20.47182 59.61669,-39.54211 90.42933,-49.248224 30.84998,-9.717881 84.02054,-10.542049 123.28635,-1.910996 29.96784,6.587256 66.26091,23.6223 92.01894,43.19134 8.84184,6.71739 23.10629,20.08 31.5809,29.58428 27.55638,30.9045 45.57258,64.23859 55.27671,102.2745 5.8388,22.88556 7.43489,37.25455 7.23949,65.1746 l -0.16689,23.84811 6.7747,1.2317 c 22.81495,4.14796 35.88282,8.82496 49.55097,17.73431 19.95389,13.0066 34.4752,32.10975 43.10507,56.70585 l 3.0573,8.71372 v 21.55502 21.55501 l -3.5024,9.63097 c -13.46852,37.03643 -38.82917,60.49714 -76.13454,70.43079 l -9.29311,2.47456 -299.0185,0.0527 c -164.46018,0.029 -327.49864,-0.20178 -362.3077,-0.51286 z"
       id="path3573" />
  </g>
</svg>
