<?xml version="1.0" encoding="UTF-8" standalone="no"?>
<!-- Created with Inkscape (http://www.inkscape.org/) -->

<svg
   version="1.1"
   id="svg5226"
   width="842"
   height="1041.3333"
   viewBox="0 0 842 1041.3333"
   sodipodi:docname="humid.svg"
   inkscape:version="1.2.2 (b0a84865, 2022-12-01)"
   xmlns:inkscape="http://www.inkscape.org/namespaces/inkscape"
   xmlns:sodipodi="http://sodipodi.sourceforge.net/DTD/sodipodi-0.dtd"
   xmlns="http://www.w3.org/2000/svg"
   xmlns:svg="http://www.w3.org/2000/svg">
  <defs
     id="defs5230" />
  <sodipodi:namedview
     id="namedview5228"
     pagecolor="#ffffff"
     bordercolor="#000000"
     borderopacity="0.25"
     inkscape:showpageshadow="2"
     inkscape:pageopacity="0.0"
     inkscape:pagecheckerboard="0"
     inkscape:deskcolor="#d1d1d1"
     showgrid="false"
     inkscape:zoom="0.66933424"
     inkscape:cx="421.31417"
     inkscape:cy="519.91962"
     inkscape:window-width="3440"
     inkscape:window-height="1412"
     inkscape:window-x="1440"
     inkscape:window-y="28"
     inkscape:window-maximized="0"
     inkscape:current-layer="g5232" />
  <g
     inkscape:groupmode="layer"
     inkscape:label="Image"
     id="g5232">
    <path
       style="fill:#80e5ff;stroke-width:0.666667"
       d="m 434.66667,958.32004 c -36.21884,-4.4946 -70.69471,-22.22994 -97.28908,-50.04814 -6.42396,-6.7196 -14.62616,-16.7014 -18.71092,-22.77066 -1.28334,-1.9068 -2.69989,-3.4746 -3.14789,-3.48407 -0.44801,-0.009 -4.81107,1.15147 -9.69569,2.5798 -17.23081,5.0386 -31.43518,7.27767 -49.82309,7.85387 -77.72969,2.43573 -150.97907,-41.25693 -191.613358,-114.29586 -15.949027,-28.66787 -25.902797,-61.6084 -29.104351,-96.31647 -1.151284,-12.48106 -0.445078,-40.98986 1.300635,-52.5052 1.897366,-12.51569 2.527392,-15.72084 5.110751,-26 5.494149,-21.86116 12.831896,-39.52392 26.13551,-62.91101 4.838266,-8.50545 24.1192,-47.24137 47.164923,-94.75565 3.02334,-6.23333 17.10862,-35.03333 31.30061,-64 14.192,-28.96666 33.79483,-68.97965 43.56185,-88.91775 19.39579,-39.59397 20.32064,-41.10086 27.34169,-44.54867 7.56378,-3.71432 17.19251,-1.92084 23.26142,4.33277 1.53466,1.58136 32.60824,52.69337 76.43911,125.73242 40.6193,67.68735 74.09734,123.0679 74.39566,123.0679 0.29832,0 6.45926,-12.525 13.69096,-27.83334 7.2317,-15.30833 14.02758,-29.22388 15.10195,-30.92345 5.77686,-9.13854 17.53751,-10.29752 25.0468,-2.4683 1.17379,1.2238 6.29844,9.42509 11.38812,18.22509 9.32057,16.11516 22.25061,38.42838 58.14107,100.33333 10.73536,18.51666 26.04004,44.91666 34.01041,58.66666 19.68071,33.95198 26.72683,45.95556 33.65477,57.33334 7.28754,11.96839 11.14294,19.65353 15.88612,31.66666 8.77736,22.2306 13.44196,44.19293 14.23016,67 1.16167,33.6138 -5.32826,64.89566 -19.43267,93.66666 -8.7365,17.8212 -17.93527,31.0906 -30.67317,44.24647 -20.3941,21.06333 -40.97781,33.9674 -66.47263,41.6722 -19.5771,5.9164 -41.47534,7.84913 -61.19967,5.4014 z M 627.45876,555.94986 c -3.04769,-0.2943 -9.34769,-1.29164 -14,-2.2163 -66.67141,-13.25112 -120.18743,-69.83146 -135.70832,-143.47898 -5.08771,-24.14145 -5.45992,-53.21592 -0.98475,-76.92126 4.20154,-22.25584 10.05217,-38.44422 21.92552,-60.66666 3.6243,-6.78334 13.6824,-27.33333 22.35132,-45.66667 C 535.2033,197.05231 573.11586,116.8293 578.69845,105 599.28418,61.379621 609.5356,40.193999 610.96217,38.323674 c 0.96232,-1.261671 3.16451,-3.125636 4.89376,-4.142144 2.58484,-1.519466 3.91482,-1.843812 7.4774,-1.823539 4.96571,0.02825 8.3999,1.512657 11.76102,5.083588 1.15188,1.223798 19.56706,32.375085 40.92265,69.225081 21.35553,36.85 44.83127,77.35 52.16833,90 7.33707,12.65 17.6876,30.5 23.0012,39.66667 5.31367,9.16666 13.643,23.27853 18.50974,31.3597 10.42293,17.30741 13.08566,22.41725 17.6054,33.78534 12.00153,30.1861 16.62466,57.56029 14.79573,87.60725 -3.28493,53.9672 -24.37033,98.4849 -62.0974,131.10636 -31.213,26.98896 -71.3352,39.73704 -112.54124,35.75788 z"
       id="path5318" />
    <path
       style="fill:#ffffff;stroke-width:0.666667"
       d="M 435.89191,958.00764 C 393.45718,952.7259 354.78809,930.5243 326.73049,895.3333 c -3.06959,-3.85 -6.63216,-8.575 -7.91683,-10.49999 -1.28467,-1.925 -2.81829,-3.49774 -3.40805,-3.49494 -0.58975,0 -3.02228,0.60874 -5.40561,1.34654 -23.2377,7.19333 -41.78,9.79526 -64.95918,9.11533 -15.20221,-0.44594 -20.72147,-1.05574 -34.37415,-3.79794 -32.12396,-6.45219 -62.78037,-21.07933 -90.05711,-42.96899 -6.66694,-5.35027 -21.526167,-19.9232 -28.24416,-27.7 C 67.506673,788.55664 49.746917,753.12704 41.068887,714.99998 33.767889,682.92291 33.0864,649.8116 39.072726,618.01307 c 5.258579,-27.93284 13.807903,-50.4227 29.909414,-78.67975 3.238487,-5.68334 8.956267,-16.63334 12.706167,-24.33334 3.7499,-7.7 10.640646,-21.8 15.312766,-31.33333 4.672127,-9.53333 11.422037,-23.33333 14.999787,-30.66666 3.57776,-7.33334 10.77637,-22.03334 15.99693,-32.66667 5.22055,-10.63333 12.12122,-24.73333 15.33482,-31.33333 3.21361,-6.6 10.26402,-21 15.66758,-32 5.40356,-11 12.30411,-25.1 15.33455,-31.33333 5.0061,-10.29708 21.48349,-43.92034 30.30175,-61.83284 1.94034,-3.9414 4.70157,-8.49955 6.13607,-10.12923 7.94916,-9.03073 21.8059,-9.01956 29.83594,0.0241 1.60774,1.81068 35.68277,57.87184 76.31477,125.55515 40.37554,67.25609 73.79014,122.40778 74.25467,122.55931 0.52989,0.17285 2.17821,-2.54117 4.42369,-7.2838 1.9685,-4.15762 5.00081,-10.55931 6.73848,-14.22598 1.73767,-3.66667 5.84145,-12.36666 9.11952,-19.33333 8.59446,-18.26524 8.51965,-18.13149 11.92192,-21.31392 5.96733,-5.58174 13.80919,-5.78925 19.9557,-0.52807 2.80623,2.40203 5.34802,6.52763 25.36822,41.17532 6.35604,11 16.34029,28.25 22.18721,38.33333 5.84692,10.08334 15.49725,26.73334 21.44519,37 5.94792,10.26667 15.16378,26.16667 20.47966,35.33333 5.31588,9.16667 14.61505,25.21667 20.66482,35.66667 12.39555,21.41133 21.42576,36.71867 28.31648,48 11.85151,19.40306 19.01558,36.54986 24.51133,58.66666 4.71458,18.97307 5.36187,24.74494 5.30821,47.33334 -0.0448,18.85453 -0.17968,21.12513 -1.85461,31.22099 -3.13698,18.9084 -7.18278,32.7856 -14.12403,48.44567 -11.07791,24.99273 -25.01342,43.85766 -45.97306,62.23513 -19.649,17.22827 -43.44438,28.7004 -70.2697,33.87813 -7.82638,1.51067 -11.11126,1.77434 -24.06364,1.93167 -8.25,0.1002 -16.99864,-0.0667 -19.44142,-0.3706 z M 468,941.68037 c 3.34606,-0.56247 3.08575,-0.51093 10,-1.9788 31.76603,-6.7438 62.91851,-27.05353 84.21112,-54.9012 15.64711,-20.4642 25.97375,-41.96233 31.44082,-65.45393 4.17119,-17.92327 4.70095,-23.23453 4.62274,-46.34646 -0.0532,-15.72834 -0.22447,-18.25927 -1.8493,-27.33334 -3.71041,-20.7212 -10.48641,-41.45913 -17.69194,-54.1462 C 577.23005,688.87331 576,686.55704 576,686.37311 c 0,-0.18393 -3.23977,-5.51813 -7.19949,-11.85373 -3.95972,-6.33567 -8.04402,-13.0194 -9.07624,-14.85273 -1.03222,-1.83334 -2.63361,-4.68334 -3.55864,-6.33334 -0.92504,-1.65 -2.79957,-4.95 -4.16563,-7.33333 -1.36606,-2.38333 -3.22899,-5.68333 -4.13985,-7.33333 -2.40389,-4.35459 -7.90789,-14.184 -14.55878,-26 -8.30094,-14.74752 -30.143,-53.71639 -32.32218,-57.66667 -1.01136,-1.83333 -3.1083,-5.58333 -4.65988,-8.33333 -1.55158,-2.75 -7.09342,-12.65 -12.3152,-22 -19.83108,-35.509 -22.31373,-39.7776 -25.46094,-43.77669 -3.12972,-3.97689 -8.39279,-8.08675 -12.30902,-9.61195 -5.97082,-2.32538 -13.6995,-1.75699 -19.27024,1.41719 -6.00816,3.42343 -8.0014,6.24078 -14.837,20.97145 -2.55221,5.5 -5.87486,12.63077 -7.38365,15.84615 -1.50879,3.21538 -2.73658,6.51538 -2.72841,7.33333 0.008,0.81795 3.79968,7.48719 8.42559,14.82052 18.38317,29.14238 22.55709,37.51187 32.74841,65.66666 3.80535,10.51278 7.6869,27.41928 10.2865,44.80399 1.34938,9.02391 1.51666,12.53346 1.45512,30.52935 -0.0729,21.31793 -1.11763,33.16099 -4.25101,48.18933 -4.84101,23.21853 -13.39183,46.74093 -23.55985,64.81066 -1.23796,2.2 -2.92357,5.2 -3.7458,6.66667 -3.05336,5.44653 -11.40585,17.55866 -17.01,24.66666 -10.081,12.78614 -28.41713,30.34707 -42.54994,40.75107 -5.63026,4.1448 -16.85328,10.78753 -25.6472,15.18033 -4.125,2.06054 -7.5,4.1004 -7.5,4.533 0,1.7786 10.19352,14.1214 18.63726,22.56693 13.06309,13.0658 22.94579,20.3576 37.76738,27.86607 14.341,7.26507 24.6227,10.59553 42.59536,13.7978 7.63905,1.36107 30.20012,1.3524 38.33333,-0.0147 z m 12.80331,-30.27653 c -6.87348,-2.37414 -11.5831,-7.75867 -13.09137,-14.96747 -2.22095,-10.615 2.86759,-19.57533 14.03021,-24.7056 8.23188,-3.78326 11.55998,-5.68226 16.72178,-9.54133 13.7996,-10.31693 25.76677,-28.07513 30.22832,-44.85613 1.28927,-4.84927 1.5823,-7.338 2.28141,-19.3764 0.62699,-10.79654 4.64418,-17.3578 12.9578,-21.16393 9.23325,-4.22714 21.27301,-0.0982 26.22055,8.99206 2.47888,4.55453 3.30184,8.75207 3.30978,16.8816 0.0201,20.5312 -7.37241,43.11147 -20.5309,62.7114 -4.80646,7.15933 -5.42956,7.9732 -11.15674,14.57187 -12.34248,14.22066 -31.39246,27.38406 -45.83848,31.67406 -4.63502,1.37647 -10.76827,1.2872 -15.13236,-0.22013 z M 268.33333,870.98951 c 9.9918,-1.3186 22.70986,-4.2656 32.86794,-7.61614 7.89957,-2.60553 10.19988,-3.49873 16.79873,-6.52253 2.01667,-0.92407 4.86667,-2.2082 6.33333,-2.85353 4.34959,-1.9138 18.21809,-10.09234 24.62468,-14.5216 12.23034,-8.45567 26.91839,-21.85554 36.88726,-33.65227 14.08861,-16.6718 27.4656,-38.20786 34.52672,-55.5858 4.5514,-11.2014 9.66737,-27.864 11.63786,-37.90433 0.43176,-2.2 1.04388,-5.2 1.36026,-6.66667 1.96566,-9.11246 2.89902,-21.5344 2.93034,-38.99999 0.0347,-19.32797 -0.49718,-25.79414 -3.36334,-40.8914 -3.79958,-20.01392 -10.79436,-41.60272 -18.36854,-56.69294 -3.54936,-7.07149 -13.11084,-23.06251 -20.57806,-34.41566 -4.41561,-6.71349 -13.04324,-21.03315 -16.4684,-27.33333 -0.89704,-1.65 -2.47573,-4.35 -3.50821,-6 -1.03247,-1.65 -5.32449,-9 -9.53781,-16.33334 -4.21332,-7.33333 -11.84331,-20.53333 -16.95553,-29.33333 -15.77396,-27.15273 -31.64113,-54.48821 -33.86021,-58.33333 -9.78622,-16.95715 -15.63437,-27.04563 -17.97028,-31 -1.51618,-2.56666 -2.96927,-5.11666 -3.2291,-5.66666 -0.25984,-0.55 -1.031,-1.9 -1.7137,-3 -0.68269,-1.1 -3.48386,-5.9 -6.22481,-10.66667 -2.74095,-4.76667 -5.97359,-10.31667 -7.18365,-12.33333 -3.07656,-5.12738 -8.67214,-14.8237 -8.67214,-15.02753 0,-0.28227 -5.33894,-9.07599 -7.71588,-12.70877 -2.52838,-3.86422 -8.03428,-9.37206 -12.64742,-12.65188 -4.69056,-3.33487 -10.92591,-5.19503 -17.30337,-5.16202 -11.84808,0.0613 -21.56633,6.90322 -27.77283,19.5528 -4.26671,8.69604 -12.43214,25.6221 -16.24015,33.66406 -5.37094,11.34266 -9.3304,19.66211 -13.48461,28.33333 -2.19578,4.58334 -5.41661,11.33334 -7.15738,15 -1.74078,3.66667 -5.2684,11.01667 -7.83916,16.33334 -2.57076,5.31666 -5.80053,12.06666 -7.17727,15 -1.37674,2.93333 -4.67397,9.83333 -7.32719,15.33333 -2.65322,5.5 -5.80392,12.1 -7.00156,14.66667 -1.19764,2.56666 -4.04574,8.56666 -6.3291,13.33333 -2.28337,4.76667 -5.42885,11.36666 -6.98995,14.66666 -2.97791,6.29501 -14.59147,30.55969 -22.49513,47 -2.555977,5.31667 -5.43495,11.31667 -6.397703,13.33334 -0.96276,2.01666 -5.016787,9.81666 -9.008947,17.33333 -12.785127,24.07256 -16.74926,33.26866 -21.551006,49.99456 -7.154477,24.92116 -10.181638,48.51853 -9.237133,72.00544 2.735313,68.01873 34.639512,128.22506 87.675789,165.45279 14.39006,10.1008 33.76367,19.5132 51,24.7776 10.50574,3.20867 28.29643,6.51707 39.33333,7.31447 6.98782,0.50486 27.66747,-0.21034 35.33333,-1.222 z m -90.60376,-62.75307 c -4.63418,-1.42267 -10.41617,-7.2864 -12.07238,-12.24307 -1.4884,-4.45446 -1.50656,-10.56006 -0.044,-14.7914 0.90032,-2.60473 11.41594,-21.34153 36.21892,-64.53533 2.00022,-3.48333 4.52807,-7.93126 5.61743,-9.88433 1.08937,-1.95307 4.10231,-7.19633 6.69543,-11.6516 2.59312,-4.45533 5.27132,-9.0824 5.95156,-10.28233 2.3918,-4.2192 3.92728,-6.9026 30.04968,-52.51507 14.48939,-25.3 27.88396,-48.66804 29.76573,-51.929 1.88176,-3.26094 3.42139,-5.99158 3.42139,-6.06807 0,-0.0765 2.85,-5.01218 6.33333,-10.96818 3.48333,-5.95601 6.33333,-10.93983 6.33333,-11.07515 0,-0.49749 7.5087,-12.66707 8.56997,-13.88963 2.55055,-2.93815 7.62227,-6.33967 11.06904,-7.42381 9.28823,-2.92151 19.70013,1.56146 24.35117,10.48468 2.17062,4.16443 2.56358,11.68015 0.87076,16.65439 -0.9254,2.7192 -39.95518,71.99309 -50.55213,89.72487 -0.38016,0.63611 -1.51241,2.65657 -2.51611,4.4899 -1.0037,1.83334 -2.45108,4.38334 -3.2164,5.66667 -0.76533,1.28333 -8.35224,14.48333 -16.85979,29.33333 -8.50756,14.85 -23.09913,40.31573 -32.42573,56.59047 -18.87678,32.93966 -19.69188,34.36886 -26.29078,46.09986 -5.65273,10.049 -11.41516,16.32607 -16.66666,18.1552 -4.02224,1.401 -10.14904,1.4252 -14.60376,0.0573 z M 307,803.23811 c -6.13703,-1.4362 -8.24963,-2.1496 -13,-4.38974 -13.87543,-6.54326 -24.06358,-18.15546 -29.28314,-33.37606 -2.68888,-7.841 -3.59964,-14.3814 -3.22213,-23.139 1.00372,-23.28467 14.74665,-43.66387 34.8823,-51.7266 8.2466,-3.30207 12.98108,-4.10247 22.28964,-3.76813 7.10245,0.25513 9.13193,0.5902 13.74004,2.26846 19.46512,7.08907 33.0558,22.33067 38.03114,42.65107 1.74768,7.13787 1.57698,21.7254 -0.33346,28.49787 -5.44264,19.294 -18.23331,34.28486 -34.43772,40.36153 -8.23256,3.0872 -21.49294,4.2994 -28.66667,2.6206 z m 16.19291,-45.03573 c 3.99473,-3.21074 5.68911,-6.91954 5.69933,-12.47507 0.0217,-11.7994 -8.71475,-19.01547 -17.20199,-14.2084 -8.08324,4.57827 -9.40317,18.7246 -2.38284,25.538 3.35883,3.25987 4.2895,3.6404 8.21884,3.36087 2.32421,-0.16534 3.86594,-0.76807 5.66666,-2.2154 z M 172.23495,655.29665 c -22.77172,-2.96844 -43.30012,-21.29246 -51.11929,-45.63 -2.68617,-8.36085 -3.36414,-12.70482 -3.38155,-21.66667 -0.0348,-17.90634 5.80824,-32.9609 17.22328,-44.37594 20.94154,-20.94154 52.41309,-21.69822 76.03218,-1.82806 19.32013,16.25355 28.34664,44.82669 22.02892,69.73189 -7.54724,29.75212 -32.18925,47.49624 -60.78354,43.76878 z m 11.62494,-43.89846 c 8.67664,-4.44964 11.13602,-16.9628 5.63556,-28.67334 -3.02755,-6.44569 -8.72088,-11.39079 -14.28533,-12.40791 -9.35323,-1.70969 -16.27491,10.28301 -13.51928,23.42387 1.62884,7.76751 6.52949,14.49437 12.64249,17.35367 4.0531,1.8958 6.2834,1.96691 9.52656,0.30371 z M 628.33333,555.58701 C 610.3162,553.03618 599.30974,550.28347 586,544.99948 540.41899,526.90374 502.86997,486.15195 485.36618,435.78205 c -15.37731,-44.25064 -15.04297,-92.1303 0.94584,-135.44873 2.67874,-7.25748 10.95343,-24.6807 15.09698,-31.7882 1.42841,-2.45018 5.70564,-11.00018 9.50497,-19 3.79932,-7.99982 8.33258,-17.54513 10.0739,-21.21179 1.74132,-3.66667 5.34394,-11.31667 8.00582,-17 2.66188,-5.68334 9.1137,-19.33334 14.33738,-30.33334 5.22368,-11 10.5489,-22.25 11.8338,-24.99999 1.2849,-2.75 3.83026,-8.15 5.65634,-12 1.82609,-3.85 8.2775,-17.5 14.33647,-30.33334 6.05897,-12.83333 12.29214,-26.033329 13.85148,-29.333329 1.55934,-3.3 5.59666,-11.85 8.97182,-19 10.83025,-22.942989 12.7509,-26.602796 14.9238,-28.437267 4.5596,-3.849449 9.75368,-5.057468 15.21889,-3.539551 4.7552,1.320718 7.90954,5.303798 17.93216,22.643485 10.06307,17.409653 26.1965,45.218642 39.8371,68.666662 4.58607,7.88334 12.58734,21.68334 17.78067,30.66667 5.19333,8.98333 14.39933,24.88333 20.45767,35.33333 6.0584,10.45 15.3564,26.5 20.6622,35.66667 11.7882,20.36592 21.705,37.21395 25.31006,42.99999 15.57087,24.99104 24.6158,48.9132 29.732,78.63511 1.6564,9.62284 1.78234,11.72516 1.7588,29.36489 -0.0213,15.93136 -0.25586,20.53135 -1.453,28.48165 -3.34806,22.23552 -8.83506,40.25716 -17.81686,58.51835 -10.74947,21.85517 -23.68194,38.79936 -41.64374,54.56202 -21.139,18.55083 -44.971,29.95147 -73.68073,35.24703 -5.6223,1.03704 -10.75539,1.39641 -22,1.54022 -8.06667,0.10317 -15.56667,0.0601 -16.66667,-0.0956 z m 32.43577,-17.30676 c 31.10717,-5.22887 60.70097,-21.55456 82.08023,-45.28027 13.52194,-15.00603 25.2058,-33.04013 31.84614,-49.1548 9.45746,-22.95094 13.9712,-45.998 13.9712,-71.33641 0,-15.39523 -1.60134,-28.55837 -5.33554,-43.85838 -5.14026,-21.06117 -11.7536,-36.38989 -24.2082,-56.11065 -5.8686,-9.29241 -13.40406,-22.31213 -27.12873,-46.87308 -4.50767,-8.06667 -10.81467,-19.31667 -14.0156,-25 -3.20093,-5.68333 -6.71427,-11.98333 -7.8074,-14 -1.09313,-2.01667 -5.36907,-9.66667 -9.50207,-17 -10.12266,-17.96101 -13.73653,-24.40804 -17.00346,-30.33333 -1.5162,-2.75 -5.69754,-10.25 -9.2918,-16.66667 C 670.7796,116.25 667.16747,109.8 666.347,108.33333 654.73309,87.573164 651.67089,82.362251 649.02236,78.852144 c -6.79852,-9.01008 -16.00339,-13.192856 -25.23825,-11.468479 -4.32284,0.807186 -7.16036,2.232526 -10.77032,5.410139 -3.86604,3.40302 -5.91578,7.003693 -13.96952,24.539526 -3.6206,7.88333 -7.76568,16.88333 -9.21128,20 C 588.38739,120.45 584.71878,128.4 581.68052,135 c -3.03827,6.6 -6.43473,13.95 -7.5477,16.33333 -5.02484,10.76029 -15.46615,33.47758 -15.46615,33.64992 0,0.10497 -1.8,3.98796 -4,8.62886 -2.2,4.6409 -4,8.5409 -4,8.66666 0,0.12578 -1.8,4.02578 -4,8.66667 -2.2,4.6409 -4,8.54655 -4,8.67924 0,0.13269 -1.8,4.02708 -4,8.65421 -2.2,4.62712 -4,8.52146 -4,8.65409 0,0.13262 -1.75046,3.95196 -3.8899,8.48741 -2.13944,4.53545 -4.90075,10.49627 -6.13624,13.24627 -1.2355,2.75 -6.358,13.25 -11.38334,23.33333 -10.25206,20.57074 -13.01659,27.22495 -16.32852,39.30273 -5.38454,19.63603 -7.18469,32.59449 -7.18164,51.69727 0.003,21.88475 2.74476,39.18402 9.34337,58.96287 11.84624,35.50826 33.85573,64.84064 63.9096,85.17327 14.24592,9.63793 35.08626,17.94906 53,21.13641 13.34105,2.37373 30.67558,2.37672 44.7691,0.008 z M 670,519.41452 c -9.02685,-2.96134 -14.64694,-10.46278 -14.66015,-19.56771 -0.007,-5.1185 1.2355,-8.89377 4.26168,-12.94443 2.55854,-3.4247 5.99752,-5.8861 15.39847,-11.0212 21.5262,-11.75831 41.4794,-30.99477 48.8508,-47.09603 0.94187,-2.0574 2.24567,-6.6559 2.89733,-10.21889 1.40434,-7.67876 3.46327,-12.0642 7.28514,-15.51703 4.2008,-3.79513 8.06073,-5.26611 13.96673,-5.32251 4.13987,-0.0395 5.6322,0.2617 8.675,1.75099 16.87093,8.25752 16.40053,32.78028 -1.14713,59.80166 -14.454,22.25751 -41.07894,45.30399 -66.19454,57.29792 -5.76966,2.75529 -6.83766,3.04047 -12,3.20423 -3.11666,0.0989 -6.41666,-0.0663 -7.33333,-0.367 z"
       id="path5293" />
  </g>
</svg>
