<?xml version="1.0" encoding="UTF-8" standalone="no"?>
<!-- Created with Inkscape (http://www.inkscape.org/) -->

<svg
   version="1.1"
   id="svg2710"
   width="1091.3333"
   height="1015.3333"
   viewBox="0 0 1091.3333 1015.3333"
   sodipodi:docname="light-rain.svg"
   inkscape:version="1.2.2 (b0a84865, 2022-12-01)"
   xmlns:inkscape="http://www.inkscape.org/namespaces/inkscape"
   xmlns:sodipodi="http://sodipodi.sourceforge.net/DTD/sodipodi-0.dtd"
   xmlns="http://www.w3.org/2000/svg"
   xmlns:svg="http://www.w3.org/2000/svg">
  <defs
     id="defs2714" />
  <sodipodi:namedview
     id="namedview2712"
     pagecolor="#ffffff"
     bordercolor="#000000"
     borderopacity="0.25"
     inkscape:showpageshadow="2"
     inkscape:pageopacity="0.0"
     inkscape:pagecheckerboard="0"
     inkscape:deskcolor="#d1d1d1"
     showgrid="false"
     inkscape:zoom="1.2153644"
     inkscape:cx="545.51539"
     inkscape:cy="507.66666"
     inkscape:window-width="3440"
     inkscape:window-height="1412"
     inkscape:window-x="1440"
     inkscape:window-y="28"
     inkscape:window-maximized="0"
     inkscape:current-layer="g2716" />
  <g
     inkscape:groupmode="layer"
     inkscape:label="Image"
     id="g2716">
    <path
       style="fill:#0055d4;stroke-width:0.666667"
       d="m 466.66234,939.41704 c -5.52406,-1.81247 -10.60695,-6.79034 -11.99465,-11.74667 -1.61058,-5.75247 -0.60076,-11.48607 4.16889,-23.6704 9.90443,-25.30147 32.50146,-80.01886 35.57162,-86.13466 2.76776,-5.51334 5.51436,-8.70467 9.51655,-11.05747 2.61609,-1.53793 3.82175,-1.80553 8.07523,-1.7924 7.50454,0.0233 12.28918,3.0454 15.2794,9.6512 1.62453,3.5888 1.84072,10.79573 0.45996,15.33333 -2.80176,9.20754 -35.64868,91.39907 -39.51708,98.88207 -3.40107,6.579 -9.06082,10.46613 -15.79805,10.85013 -2.24999,0.1282 -4.84283,-0.0133 -5.76187,-0.31513 z m 180.88516,-2.75 c -9.15813,-4.0722 -12.46827,-14.19867 -8.46241,-25.8884 1.7422,-5.08407 12.45489,-31.835 24.4729,-61.112 14.46966,-35.24953 15.23546,-36.86667 19.57072,-41.33053 3.4258,-3.52747 7.62887,-5.2892 12.55794,-5.26367 12.2668,0.0633 19.47926,11.94487 15.41759,25.39793 -1.62966,5.39767 -24.88399,64.41673 -34.09393,86.5296 -6.26513,15.04253 -8.91053,18.8516 -15.01033,21.61273 -3.88957,1.76067 -10.55869,1.78574 -14.45248,0.0547 z m 256.08207,-104.9162 c -6.02766,-2.8068 -10.29626,-9.6342 -10.29626,-16.46833 0,-4.5842 3.39546,-13.88987 18.46886,-50.61587 23.9916,-58.45506 23.53353,-57.46166 28.51773,-61.84893 3.80814,-3.35207 9.1968,-5.14153 13.52714,-4.4922 11.10413,1.6652 17.04593,12.0184 13.87206,24.17127 -2.0036,7.67193 -33.715,87.39993 -39.51386,99.34486 -2.08067,4.28573 -7.7316,9.60567 -11.35747,10.69193 -4.29986,1.28827 -9.422,0.985 -13.2182,-0.78273 z m -519.6944,-12.88707 c -9.73491,-2.49133 -14.96747,-12.713 -11.98983,-23.4218 1.9355,-6.96086 34.84677,-88.31813 39.55284,-97.77533 4.5411,-9.12573 10.50141,-13.41786 18.33051,-13.20033 9.54484,0.2652 16.1713,7.3978 16.1713,17.40647 0,6.7176 -0.11738,7.04866 -21.55166,60.79386 -13.87284,34.78527 -17.30728,42.95613 -19.93603,47.42973 -4.39157,7.47354 -12.36241,10.86974 -20.57713,8.7674 z M 187.66666,805.36871 c -5.95169,-1.5878 -10.11311,-5.02207 -12.33016,-10.1758 -1.25219,-2.9108 -1.44153,-4.31754 -1.1882,-8.82774 0.35872,-6.38646 1.10811,-8.4108 22.34647,-60.36519 16.58152,-40.5626 18.64583,-45.09747 22.36586,-49.1332 7.08714,-7.68867 18.13772,-8.43254 24.89444,-1.6758 5.83459,5.83453 6.46877,14.484 1.94122,26.47566 -9.67334,25.62087 -33.01786,83.5768 -36.85104,91.4876 -2.5073,5.1746 -6.5295,9.47213 -10.3651,11.07473 -2.98841,1.24867 -8.30481,1.809 -10.81349,1.13974 z m 349.11516,-97.2764 c -3.70738,-1.31073 -8.17474,-5.05933 -9.86248,-8.2756 -1.71599,-3.27007 -2.40849,-8.85493 -1.58802,-12.80707 1.1622,-5.59833 24.41124,-64.17249 26.25356,-66.14386 0.52706,-0.56398 6.31359,-0.93949 19.56323,-1.26951 16.41761,-0.40893 18.86379,-0.34096 19.19934,0.53348 0.52509,1.36835 -26.08501,68.20836 -30.95623,77.75669 -4.6145,9.0452 -13.96031,13.26387 -22.6094,10.20587 z m 333.88482,-2.1028 c -6.38533,-2.9762 -10.00347,-8.25507 -10.51187,-15.33673 -0.2676,-3.7274 0.0333,-5.37967 2.11114,-11.58887 2.37026,-7.08353 19.31446,-49.33309 23.07773,-57.5435 l 1.90047,-4.14622 18.71546,-0.18711 c 10.29347,-0.10291 19.01354,-0.0871 19.37794,0.0351 0.36433,0.12223 0.66246,0.50938 0.66246,0.86033 0,0.77579 -21.63773,55.12085 -27.3298,68.64112 -6.508,15.45846 -10.90486,19.90466 -20.17773,20.4042 -3.88033,0.209 -5.41353,-0.014 -7.8258,-1.13834 z M 221.33333,595.55725 c -18.16717,-1.27044 -33.36252,-5.26808 -48.22708,-12.68775 -28.35084,-14.15136 -47.84309,-33.41662 -60.44069,-59.73684 -8.55352,-17.87092 -12.28396,-35.40333 -11.65984,-54.79934 1.85089,-57.52229 44.16484,-103.90547 103.32761,-113.26442 8.3706,-1.32414 28.26694,-1.3542 36.66666,-0.0554 3.66667,0.56695 7.89228,1.20486 9.39025,1.41755 l 2.72357,0.38673 5.925,-7.9089 c 7.16992,-9.57068 20.15801,-22.69406 29.51397,-29.82142 41.71458,-31.77808 96.48499,-42.53586 149.36364,-29.33739 7.76066,1.93705 7.67465,1.96721 8.41196,-2.94954 2.48347,-16.56099 13.6818,-49.53004 23.4334,-68.99039 19.28269,-38.48063 53.54025,-76.38626 90.90487,-100.58525 58.48092,-37.874846 128.74493,-51.366105 196.99999,-37.825593 67.2562,13.342347 126.27933,51.807683 166.13087,108.267363 32.91673,46.63481 50.23739,107.17244 46.90653,163.94352 -0.4106,6.99772 -0.91674,13.67896 -1.1248,14.84718 -0.4352,2.44335 -1.06694,2.24439 11.13386,3.50646 22.6125,2.33906 45.6883,12.7123 63.6429,28.60933 18.6394,16.50341 31.3519,39.15491 36.1175,64.35548 1.8056,9.54793 1.6004,31.15565 -0.3837,40.40469 -8.0535,37.54323 -29.1654,64.79307 -62.9,81.18709 -10.6482,5.17474 -18.76323,7.72156 -31.2079,9.79431 l -10.1182,1.68526 -375.76518,-0.11647 c -206.67086,-0.0641 -377.11519,-0.21088 -378.76519,-0.32626 z M 74.333331,500.76701 C 56.231755,490.88527 38.894506,473.87282 28.609099,455.89939 13.437008,429.38662 8.9317397,399.97503 15.68304,371.51464 28.448016,317.70335 79.066818,280.42318 136,282.90256 c 7.75484,0.33772 12.9539,0.98243 22.33333,2.76946 1.89777,0.36157 2.25557,0.033 7,-6.42822 9.59528,-13.06739 24.41744,-27.16473 38.12798,-36.2635 28.94596,-19.2095 62.87095,-28.59585 99.18743,-27.44312 13.12716,0.41667 20.93368,1.40292 32.92468,4.15959 4.08462,0.93903 8.34507,1.87149 9.46769,2.07213 l 2.04111,0.3648 1.51068,-7.23352 C 365.46125,134.12985 419.55445,67.263904 495.29484,33.558256 553.49496,7.6583084 620.08931,4.4343569 681.14385,24.560974 c 16.40346,5.407393 36.50593,14.36157 39.93046,17.786071 1.82153,1.821525 2.12013,5.051646 0.58487,6.325843 -0.68994,0.572541 -4.52567,0.914508 -12.16667,1.084694 -66.54972,1.482236 -134.41517,27.434409 -190.49253,72.845518 -11.45629,9.27724 -32.93787,30.82436 -41.9356,42.06356 -22.23555,27.77473 -37.38887,58.40672 -43.47903,87.89155 -1.8274,8.84715 -1.8451,8.88971 -3.5443,8.5258 -19.95417,-4.27349 -26.44335,-5.08676 -40.51479,-5.0776 -58.45227,0.0381 -120.66884,30.36465 -147.78695,72.03671 -2.01274,3.09295 -4.05247,6.12813 -4.53275,6.74486 -0.72763,0.93434 -3.04086,1.23966 -13.87323,1.83109 -13.70911,0.74849 -24.63412,2.27895 -35.66667,4.99644 -56.62027,13.9465 -96.853403,53.07614 -107.022989,104.08763 -2.746593,13.7771 -2.56252,33.36669 0.461547,49.12104 1.069819,5.57338 1.065639,5.88202 -0.09695,7.16667 -0.668206,0.73835 -1.39342,1.33825 -1.611593,1.33309 -0.218167,-0.005 -2.496673,-1.15578 -5.06334,-2.55693 z"
       id="path2720" />
    <path
       style="fill:#afc6e9;stroke-width:0.822798"
       d="m 210.76707,593.99835 c -27.43685,-3.99642 -53.03226,-17.01778 -73.41107,-37.347 -17.34319,-17.30099 -28.73062,-38.13031 -33.77179,-61.77372 -2.62048,-12.29022 -2.61911,-32.88963 0.003,-45.21827 3.4081,-16.0241 8.5002,-28.50308 16.75307,-41.05595 17.40585,-26.47485 45.41483,-45.10444 78.24396,-52.04234 12.93208,-2.73299 42.82011,-2.39743 53.26878,0.59806 0.89959,0.25789 3.13474,-2.01904 7.12375,-7.25691 6.96329,-9.14335 19.9927,-22.5365 28.50567,-29.30144 16.3593,-13.00014 40.06904,-24.70096 61.15239,-30.17888 28.61772,-7.43551 57.7789,-7.56775 88.60485,-0.40184 7.18083,1.66929 8.56446,1.50122 9.07947,-1.10285 6.24049,-31.55467 19.17062,-65.12691 34.46391,-89.48334 27.26722,-43.42638 68.35283,-79.56903 114.10022,-100.372983 36.29281,-16.504412 70.61175,-23.991765 110.255,-24.054311 44.30176,-0.0699 83.01112,9.23417 122.23549,29.380164 48.20457,24.7583 88.347,64.43863 112.98548,111.68486 22.0909,42.36104 32.54266,90.32581 29.75856,136.56676 -0.52165,8.66307 -0.81185,15.88763 -0.64491,16.05457 0.16695,0.16693 4.72229,0.87634 10.12289,1.57645 28.49181,3.69354 52.21881,15.54986 71.24361,35.60016 15.2108,16.03082 25.3804,36.19394 29.1409,57.7774 1.6977,9.74341 1.2202,33.56971 -0.841,41.96272 -5.8251,23.7201 -15.7783,41.65189 -31.6531,57.02717 -16.895,16.36333 -37.3761,26.87946 -60.4375,31.03203 -8.91181,1.60471 -13.96297,1.62468 -388.81242,1.53742 -315.63309,-0.0735 -381.08155,-0.2775 -387.46922,-1.20793 z"
       id="path2800" />
    <path
       style="fill:#afc6e9;stroke-width:0.822798"
       d="M 72.436303,499.04532 C 34.454668,476.21769 11.755767,435.72655 13.385933,393.70907 c 1.108921,-28.58239 11.492106,-53.05468 31.302007,-73.7762 16.558342,-17.32033 37.901074,-29.11543 62.27586,-34.41688 9.4235,-2.04958 32.21776,-2.54105 42.15956,-0.909 11.98819,1.96797 10.9908,2.3261 17.70852,-6.35842 6.51385,-8.42095 21.57023,-23.49574 29.55987,-29.59598 21.74972,-16.60632 49.74377,-27.72508 79.24574,-31.47507 8.66324,-1.10118 14.63877,-1.30897 27.15235,-0.94416 14.06988,0.41016 17.75665,0.82488 29.95542,3.36953 7.65097,1.59598 14.22307,2.70883 14.60467,2.47298 0.3816,-0.23583 0.69382,-1.07435 0.69382,-1.86335 0,-0.78899 1.28412,-6.66424 2.85361,-13.0561 11.40875,-46.46319 33.85432,-86.38076 67.45939,-119.970923 22.50862,-22.498621 46.90086,-39.395361 75.73373,-52.46148 68.18057,-30.8972127 149.15853,-30.1646737 215.75073,1.951714 10.55888,5.092385 13.70072,7.839842 12.0216,10.512577 -0.67596,1.075959 -2.87826,1.478789 -10.63975,1.946147 -20.32969,1.22415 -32.24136,2.419655 -43.61741,4.377627 -51.98568,8.947438 -102.70724,32.138774 -147.01875,67.221148 -9.54157,7.55426 -35.59031,33.33499 -43.03505,42.59227 -22.40194,27.85604 -38.3105,59.82015 -44.36988,89.14968 -0.82735,4.00469 -1.96946,7.45975 -2.53802,7.67793 -0.56856,0.21817 -4.70799,-0.35268 -9.19872,-1.26858 -35.17438,-7.17388 -74.59275,-2.11127 -111.43432,14.31182 -30.47603,13.58548 -52.81092,31.37269 -68.72969,54.73541 -5.45823,8.0106 -3.51505,7.31121 -24.88522,8.95681 -29.97404,2.30814 -57.05828,11.36969 -80.63425,26.9777 -12.51185,8.28323 -28.61391,24.21201 -36.441524,36.04935 -9.387174,14.19581 -16.087825,30.30784 -19.22627,46.23048 -2.01856,10.241 -1.983257,33.69765 0.06885,45.74637 1.321705,7.76025 1.364422,9.06285 0.331095,10.09618 -1.033328,1.03333 -2.07291,0.65358 -8.057599,-2.94333 z"
       id="path2802" />
  </g>
</svg>
