<?xml version="1.0" encoding="UTF-8" standalone="no"?>
<!-- Created with Inkscape (http://www.inkscape.org/) -->

<svg
   version="1.1"
   id="svg5115"
   width="765.33331"
   height="823.33331"
   viewBox="0 0 765.33331 823.33331"
   sodipodi:docname="martianDust.svg"
   inkscape:version="1.2.2 (b0a84865, 2022-12-01)"
   xmlns:inkscape="http://www.inkscape.org/namespaces/inkscape"
   xmlns:sodipodi="http://sodipodi.sourceforge.net/DTD/sodipodi-0.dtd"
   xmlns="http://www.w3.org/2000/svg"
   xmlns:svg="http://www.w3.org/2000/svg">
  <defs
     id="defs5119" />
  <sodipodi:namedview
     id="namedview5117"
     pagecolor="#ffffff"
     bordercolor="#000000"
     borderopacity="0.25"
     inkscape:showpageshadow="2"
     inkscape:pageopacity="0.0"
     inkscape:pagecheckerboard="0"
     inkscape:deskcolor="#d1d1d1"
     showgrid="false"
     inkscape:zoom="0.84655873"
     inkscape:cx="382.72596"
     inkscape:cy="411.07603"
     inkscape:window-width="3440"
     inkscape:window-height="1412"
     inkscape:window-x="1440"
     inkscape:window-y="28"
     inkscape:window-maximized="0"
     inkscape:current-layer="g5121" />
  <g
     inkscape:groupmode="layer"
     inkscape:label="Image"
     id="g5121">
    <g
       id="g5143"
       transform="translate(-11.812532,-2.362506)">
      <path
         style="fill:#fcca65;stroke-width:0.666667"
         d="m 418.99999,799.31904 c -14.34666,-1.61133 -25.1297,-4.18206 -36.6231,-8.7312 -17.87424,-7.07466 -35.54305,-19.15686 -48.13502,-32.91546 -6.95001,-7.59387 -7.32918,-7.71647 -15.78421,-5.10513 -13.38531,4.134 -15.10034,4.3908 -29.12434,4.3602 -12.35624,-0.0267 -13.38592,-0.1304 -20.7932,-2.08867 -12.88457,-3.40627 -24.53158,-9.14 -34.20967,-16.84107 -6.03104,-4.79906 -15.46558,-14.93526 -19.57184,-21.02746 -7.57172,-11.23374 -13.43496,-26.17334 -15.42536,-39.30414 -0.98449,-6.49473 -0.98069,-21.14437 0.007,-27.3328 0.40969,-2.56666 0.90424,-6.76666 1.099,-9.33333 l 0.35412,-4.66666 -6.03651,-6.8872 c -7.48739,-8.54256 -14.1262,-17.2801 -19.08077,-25.1128 -4.1558,-6.5699 -13.10494,-24.52276 -16.03446,-32.16667 -1.0188,-2.65833 -2.15613,-4.83333 -2.52741,-4.83333 -0.37127,0 -2.64887,2.025 -5.06134,4.5 -4.95184,5.0802 -9.60252,7.66364 -15.82829,8.79259 -11.88968,2.15601 -24.52039,-4.60169 -31.47765,-16.84122 -5.391316,-9.48465 -6.286683,-21.34638 -2.26038,-29.94521 4.56914,-9.75811 14.12381,-15.83981 24.84668,-15.81529 5.11216,0.0117 8.92394,0.99653 14.21976,3.67392 2.5042,1.26603 5.00032,2.30188 5.54693,2.30188 0.84729,0 0.96234,-1.53183 0.78024,-10.38847 -0.18665,-9.07799 -0.36474,-10.49881 -1.41175,-11.26319 -0.65898,-0.4811 -4.40898,-1.97629 -8.33333,-3.32266 -19.22422,-6.59545 -35.15723,-17.94255 -46.742886,-33.28917 -13.938153,-18.46278 -20.725599,-38.68122 -20.725599,-61.73739 0,-21.79258 6.286499,-41.25931 18.724506,-57.98216 2.551186,-3.43006 4.803486,-6.89376 5.005113,-7.69711 0.248493,-0.99006 -1.2544,-4.76719 -4.66472,-11.72358 -5.674313,-11.57452 -8.319533,-18.4382 -10.718613,-27.81216 -3.445767,-13.46371 -3.9703,-18.09926 -3.97368,-35.11744 -0.004,-19.09517 1.13638,-26.82387 6.23822,-42.28615 17.778606,-53.88204 65.629159,-88.74996 121.722499,-88.69722 21.22004,0.0199 36.41022,3.61882 55.56514,13.16453 l 7.56514,3.77002 3.31436,-3.64226 c 15.94619,-17.52372 25.53724,-23.7871 41.84909,-27.32933 11.82328,-2.56751 20.5433,-2.36526 32.47706,0.75324 18.38121,4.80334 34.83716,18.44804 43.73938,36.26717 5.19893,10.40644 7.17177,18.35638 8.17541,32.94443 0.23754,3.45277 0.68531,6.9443 0.99504,7.75894 0.30973,0.81465 3.5083,3.81142 7.10792,6.6595 3.59964,2.84807 12.33385,11.02329 19.40936,18.16716 11.87439,11.98909 12.98262,12.93507 14.39818,12.2901 0.84349,-0.38432 4.1349,-4.55107 7.31426,-9.25944 3.17936,-4.70838 6.84916,-10.05326 8.15512,-11.8775 2.87078,-4.01008 2.75006,-5.38668 -0.99198,-11.31179 C 445.4384,190.53217 440.35783,177.66328 438.24063,166 c -1.54429,-8.50723 -1.54634,-24.14902 -0.004,-32.6406 4.09663,-22.55866 17.69428,-43.910736 35.51484,-55.768122 20.61777,-13.7186 50.23396,-18.040412 74.43807,-10.862553 24.53959,7.27734 45.28583,25.217292 56.52133,48.875855 5.04693,10.62729 7.73525,20.42843 8.97706,32.72875 0.84284,8.34855 0.69935,8.20186 12.66004,12.94223 5.77984,2.29072 13.24108,5.68052 16.58054,7.5329 44.97468,24.94717 73.59641,67.76001 80.11295,119.83421 1.403,11.21147 1.0522,35.62893 -0.64687,45.02399 -4.66007,25.76769 -14.18226,47.90892 -29.32346,68.18336 -6.6188,8.86273 -19.0576,21.45319 -28.71863,29.06889 -4.02293,3.17123 -8.10721,6.94631 -9.07618,8.38906 -0.96896,1.44276 -2.41087,5.21131 -3.20424,8.37458 -4.02397,16.04406 -9.38133,28.55896 -17.28565,40.37963 -10.62068,15.88291 -24.8344,29.32435 -41.27893,39.03611 -28.58047,16.87898 -61.27221,21.60809 -95.79386,13.85731 -4.00764,-0.8998 -7.83295,-1.46259 -8.5007,-1.25066 -3.12992,0.9934 -3.15152,6.19938 -0.0377,9.0877 1.00376,0.93108 4.096,3.20631 6.87164,5.05608 40.07339,26.70608 63.02797,71.77441 61.03194,119.82826 -1.50092,36.13453 -13.32254,64.7664 -36.41768,88.2034 -19.24547,19.53026 -44.54061,32.41066 -71.51596,36.41613 -8.85264,1.31447 -23.20948,1.80147 -30.14491,1.02253 z m 23.09603,-1.3268 c 46.86753,-4.5782 87.9027,-35.19313 104.87276,-78.24193 2.36366,-5.996 5.97271,-20.1978 7.47564,-29.417 1.83067,-11.2296 1.67768,-33.93404 -0.30179,-44.78901 -7.11893,-39.03862 -26.71271,-68.90184 -60.14265,-91.66452 -7.11563,-4.84509 -9.33333,-7.52155 -9.33333,-11.2641 0,-5.01597 2.50148,-5.59548 12.83647,-2.9738 43.12198,10.93879 89.11622,-1.68926 120.5492,-33.09766 16.48805,-16.47516 26.15475,-33.59383 32.30628,-57.2109 2.97025,-11.40344 4.59515,-13.70981 16.30805,-23.14753 6.56,-5.28576 18.667,-17.78789 23.8466,-24.62487 16.22046,-21.41079 26.57999,-46.35768 30.27026,-72.89426 1.29393,-9.30501 1.0834,-33.06812 -0.37807,-42.66667 -3.11026,-20.4269 -8.68146,-37.55504 -17.56439,-54 -8.63354,-15.9832 -21.63247,-31.93479 -35.8866,-44.03802 -12.48059,-10.59732 -31.591,-21.37435 -46.62114,-26.29133 -4.03333,-1.31946 -8.14851,-2.8463 -9.14484,-3.39297 -2.34532,-1.28683 -11.73847,-3.29875 -20.18849,-4.32419 -9.69246,-1.1762 -28.46268,-1.01954 -37.85861,0.316 -27.15943,3.86042 -53.19842,15.44946 -73.80805,32.84936 -7.65649,6.46407 -19.02997,18.20403 -19.70171,20.33651 -0.2676,0.84956 -1.82292,3.03404 -3.45626,4.85442 -2.80776,3.12928 -8.5686,11.54876 -15.90253,23.2416 -1.80006,2.86992 -3.83621,6.11335 -4.52479,7.20762 -2.10001,3.3373 -6.22111,15.90882 -8.74913,26.68946 -1.31787,5.62002 -2.81377,10.6395 -3.32421,11.15442 -1.20692,1.2175 -2.2732,0.52583 -9.6981,-6.29102 -10.97812,-10.07909 -27.23319,-20.09173 -40.53745,-24.96987 -2.32513,-0.85253 -4.38786,-1.96793 -4.58384,-2.47866 -0.21286,-0.55468 1.64792,-2.99594 4.62105,-6.06263 12.03604,-12.4148 18.97395,-25.94649 20.66975,-40.31422 0.93345,-7.90868 -0.0321,-21.1773 -2.17005,-29.81981 -2.0185,-8.15979 -8.20747,-20.44554 -13.75235,-27.29987 -8.97642,-11.09624 -22.07995,-19.54059 -35.89038,-23.12894 -9.16146,-2.38042 -22.49036,-2.54381 -31.1688,-0.38208 -16.41064,4.08777 -26.50438,10.69559 -40.19108,26.31089 -4.1848,4.77448 -5.28362,4.85426 -12.57249,0.91269 -11.32324,-6.12321 -26.1077,-10.81542 -38.9789,-12.37091 -7.9521,-0.961 -24.88865,-0.95988 -32.90219,0.002 -8.35831,1.00346 -22.47339,4.68052 -30.73694,8.00713 -28.54958,11.49305 -50.59706,31.46353 -64.702603,58.60722 -7.648753,14.7187 -11.895833,27.87845 -14.118173,43.74573 -1.675286,11.96137 -1.02438,34.25371 1.32614,45.41775 2.60706,12.38251 6.474613,23.38041 12.427887,35.34031 6.398166,12.85369 6.450213,11.76314 -1.0611,22.2334 -11.699173,16.30784 -16.871753,32.0712 -17.480367,53.27114 -0.26032,9.06776 -0.07661,12.40527 1.045794,19 3.60396,21.17515 12.704786,38.88473 27.775672,54.04957 11.41428,11.48542 23.38711,18.76546 39.39497,23.95394 3.9384,1.27653 7.67183,2.78349 8.2965,3.34881 0.93564,0.84674 1.21676,2.87383 1.59544,11.50443 0.25282,5.76212 0.5857,10.92658 0.73974,11.47658 0.15404,0.55 0.0196,1.41484 -0.29876,1.92186 -0.46074,0.73377 -1.78374,0.2289 -6.48478,-2.47468 -11.28342,-6.48912 -20.03671,-7.06238 -29.74068,-1.94774 -16.907383,8.91131 -18.445543,33.58334 -3.0618,49.11092 5.53697,5.58873 10.97991,8.18515 18.01218,8.59224 10.37927,0.60085 17.37029,-2.62065 24.1635,-11.13469 2.0777,-2.60402 4.17828,-4.73458 4.66796,-4.73458 0.48968,0 1.57496,1.875 2.41173,4.16667 8.38642,22.96787 21.13532,43.99709 37.11946,61.22826 2.17943,2.34945 4.6622,5.53527 5.51726,7.07959 2.97205,5.36782 20.15048,18.81438 33.68636,26.36829 15.30658,8.54206 27.9058,13.43839 44.98474,17.48199 10.15691,2.40473 13.20014,3.51807 14.32592,5.24093 0.51547,0.78887 1.96675,5.48954 3.22509,10.44594 1.25834,4.9564 3.6908,12.6064 5.40548,17 5.79996,14.86146 15.57186,31.4466 20.69602,35.1258 1.47445,1.05866 6.88082,6.065 12.01416,11.1252 5.13333,5.0602 11.87011,11.07273 14.97062,13.36119 26.222,19.35407 58.19895,28.422 89.45874,25.3684 z m 141.42799,-10.9212 c -7.13634,-2.3274 -12.31278,-7.031 -15.7619,-14.32213 -1.8617,-3.93547 -2.08804,-5.068 -2.08165,-10.4156 0.006,-5.09993 0.27519,-6.57526 1.79393,-9.83506 2.49551,-5.35634 7.62121,-10.5646 12.71068,-12.91547 3.64747,-1.6848 4.9128,-1.91613 10.48158,-1.91613 5.72498,0 6.74957,0.20013 10.66666,2.0838 6.34099,3.04926 9.55268,6.15846 12.48016,12.0818 2.33059,4.71566 2.51545,5.51686 2.4912,10.79733 -0.0335,7.29766 -1.79306,11.97373 -6.40396,17.01873 -4.94043,5.40567 -10.37914,7.89173 -17.81617,8.14393 -3.58987,0.12174 -6.80698,-0.14933 -8.56053,-0.7212 z m 17.88362,-2.19473 c 12.47077,-5.86327 17.7429,-20.48653 11.81787,-32.77906 -1.94224,-4.02954 -7.38834,-9.42474 -11.40636,-11.29974 -7.38086,-3.44433 -14.45991,-3.5012 -21.59158,-0.17366 -14.74068,6.87793 -18.54808,26.37926 -7.492,38.37366 7.56286,8.20473 18.81706,10.51227 28.67207,5.8788 z m 69.47515,-230.46378 c -6.19528,-2.02365 -11.77381,-7.13351 -14.64278,-13.41255 -1.51201,-3.3092 -1.82569,-4.92106 -1.81633,-9.33333 0.021,-9.89522 4.71855,-17.51984 13.43911,-21.81295 4.0336,-1.98575 4.996,-2.18608 10.45653,-2.17656 5.09647,0.009 6.5934,0.28047 9.81167,1.78012 4.838,2.25442 9.4816,6.89385 11.75553,11.74506 1.53767,3.28033 1.78014,4.66041 1.78014,10.131 0,5.47058 -0.24247,6.85066 -1.78014,10.131 -2.28273,4.86991 -6.93546,9.50689 -11.75553,11.71574 -4.57507,2.09656 -12.803,2.68448 -17.2482,1.23247 z m 17.58907,-2.43101 c 4.76066,-2.34367 8.2558,-6.01784 10.76346,-11.31487 1.44627,-3.05501 1.7358,-4.61195 1.7358,-9.33333 0,-4.72883 -0.2922,-6.29519 -1.76566,-9.46433 -8.1448,-17.51792 -32.84205,-17.99947 -41.53916,-0.80993 -2.70215,5.3407 -3.09684,12.92464 -0.96663,18.57387 1.57195,4.16875 5.83818,9.35465 9.61691,11.69004 6.20174,3.83287 15.16608,4.09933 22.15528,0.65855 z m 27.35513,-88.26003 c -4.9404,-1.77814 -6.79467,-4.74977 -6.34527,-10.16901 0.78654,-9.4841 12.87227,-12.23126 17.8552,-4.05859 4.6426,7.6145 -3.14333,17.23888 -11.50993,14.2276 z m 8.42973,-1.78037 c 8.86727,-6.97497 0.76953,-20.32089 -9.40133,-15.49449 -3.51667,1.66875 -4.98653,4.45278 -4.66187,8.82986 0.23267,3.13716 0.5854,3.90099 2.694,5.83334 2.12127,1.94402 2.877,2.22349 6.0128,2.22349 2.6276,0 4.05973,-0.37223 5.3564,-1.3922 z M 645.1439,165.93954 c -5.81573,-0.85054 -9.52064,-2.81484 -14.0517,-7.45004 -8.20872,-8.39738 -10.99019,-18.8708 -7.77561,-29.27841 2.31848,-7.50635 7.12983,-12.95385 14.48492,-16.40009 3.41379,-1.59952 4.64363,-1.80826 10.5318,-1.78748 9.28467,0.0327 13.06108,1.57423 19.38634,7.91322 5.4344,5.4462 7.8756,10.01145 9.06626,16.9551 1.38387,8.07016 -0.88253,15.77206 -6.46986,21.98654 -5.834,6.48882 -15.26729,9.50975 -25.17215,8.06116 z m 17.03837,-3.14878 c 8.82818,-4.3461 13.95544,-12.42804 14.03578,-22.1241 0.12753,-15.39684 -11.23194,-28.00682 -26.26804,-29.1597 -22.12616,-1.6965 -35.2874,24.5847 -21.43885,42.81044 5.88599,7.74639 13.17473,11.14324 23.22331,10.823 5.27006,-0.16796 6.64368,-0.47688 10.4478,-2.34964 z M 88.219231,159.41564 c -6.924513,-2.56951 -11.836887,-7.02028 -15.097047,-13.6784 -7.460382,-15.23608 0.245834,-33.35658 16.16548,-38.01174 13.760316,-4.02374 28.308176,4.30152 32.401506,18.54231 1.67603,5.83096 1.12375,14.19762 -1.26698,19.19366 -2.65767,5.55391 -7.06477,10.11492 -12.23115,12.65832 -3.80131,1.87137 -5.20089,2.18831 -10.45655,2.36783 -4.722226,0.16131 -6.832333,-0.0764 -9.515259,-1.07198 z m 18.929009,-1.71537 c 5.0779,-2.28397 10.18163,-7.44569 12.72064,-12.86518 1.59416,-3.40273 1.79678,-4.62584 1.79725,-10.84911 5e-4,-6.587 -0.13328,-7.28583 -2.19738,-11.47862 -7.87393,-15.99422 -27.308153,-19.94282 -40.057846,-8.13886 -10.531066,9.74991 -11.139906,26.66623 -1.342313,37.29536 5.44706,5.90937 11.713213,8.46006 19.931406,8.11324 3.715983,-0.15682 6.065283,-0.69015 9.148243,-2.07683 z M 365.83197,65.048829 c -8.26679,-2.950122 -12.68059,-11.533633 -10.23795,-19.909726 2.13908,-7.33521 8.06077,-11.805771 15.63786,-11.805771 4.84185,0 7.58214,0.999441 11.02254,4.02015 4.88781,4.291561 6.67546,10.457459 4.84521,16.711937 -2.67064,9.126289 -12.39665,14.149159 -21.26766,10.98341 z m 12.66575,-1.629315 c 5.22256,-2.66435 8.30227,-7.902212 8.30227,-14.120207 0,-8.527476 -6.9387,-15.320728 -15.61192,-15.284667 -4.4734,0.0186 -8.19389,1.710616 -11.27429,5.127354 -3.1202,3.460895 -4.12651,6.623369 -3.78986,11.910233 0.4015,6.305597 4.02244,11.014151 10.24795,13.326148 3.35206,1.244866 8.62323,0.828044 12.12585,-0.958861 z"
         id="path5157" />
      <path
         style="fill:#fd9065;stroke-width:0.666667"
         d="m 414.84298,797.61618 c -22.20267,-2.68987 -43.68004,-11.3188 -62.2057,-24.99234 -3.10051,-2.28846 -9.83729,-8.30099 -14.97062,-13.36119 -5.13334,-5.0602 -10.53971,-10.06654 -12.01416,-11.1252 -5.12416,-3.6792 -14.89606,-20.26434 -20.69602,-35.1258 -1.71468,-4.3936 -4.14714,-12.0436 -5.40548,-17 -1.25834,-4.9564 -2.70962,-9.65707 -3.22509,-10.44594 -1.12578,-1.72286 -4.16901,-2.8362 -14.32592,-5.24093 -17.07894,-4.0436 -29.67816,-8.93993 -44.98474,-17.48199 -13.53588,-7.55391 -30.71431,-21.00047 -33.68636,-26.36829 -0.85506,-1.54432 -3.33783,-4.73014 -5.51726,-7.07959 -15.98414,-17.23117 -28.73304,-38.26039 -37.11946,-61.22826 -0.83677,-2.29167 -1.92205,-4.16667 -2.41173,-4.16667 -0.48968,0 -2.59026,2.13056 -4.66796,4.73458 -6.79321,8.51404 -13.78423,11.73554 -24.1635,11.13469 -7.03227,-0.40709 -12.47521,-3.00351 -18.01218,-8.59224 -15.383743,-15.52758 -13.845583,-40.19961 3.0618,-49.11092 9.70397,-5.11464 18.45726,-4.54138 29.74068,1.94774 4.70104,2.70358 6.02404,3.20845 6.48478,2.47468 0.31836,-0.50702 0.4528,-1.37186 0.29876,-1.92186 -0.15404,-0.55 -0.48692,-5.71446 -0.73974,-11.47658 -0.37868,-8.6306 -0.6598,-10.65769 -1.59544,-11.50443 -0.62467,-0.56532 -4.3581,-2.07228 -8.2965,-3.34881 -16.00786,-5.18848 -27.98069,-12.46852 -39.39497,-23.95394 -15.070886,-15.16484 -24.171712,-32.87442 -27.775672,-54.04957 -1.122407,-6.59473 -1.306114,-9.93224 -1.045794,-19 0.608614,-21.19994 5.781194,-36.9633 17.480367,-53.27114 7.511313,-10.47026 7.459266,-9.37971 1.0611,-22.2334 -5.953274,-11.9599 -9.820827,-22.9578 -12.427887,-35.34031 -2.35052,-11.16404 -3.001426,-33.45638 -1.32614,-45.41775 5.861647,-41.85152 30.974016,-78.29398 66.760646,-96.88142 12.47621,-6.4801 29.70849,-11.9073 42.79707,-13.47866 8.01354,-0.96208 24.95009,-0.9632 32.90219,-0.002 12.8712,1.55549 27.65566,6.2477 38.9789,12.37091 7.28887,3.94157 8.38769,3.86179 12.57249,-0.91269 13.6867,-15.6153 23.78044,-22.22312 40.19108,-26.31089 8.67844,-2.16173 22.00734,-1.99834 31.1688,0.38208 13.81043,3.58835 26.91396,12.0327 35.89038,23.12894 5.55202,6.86315 11.73689,19.14465 13.748,27.29987 1.95537,7.92916 3.01935,20.95184 2.31491,28.33333 -0.55992,5.86706 -0.5831,5.70458 -1.04622,-7.33333 -0.38988,-10.97643 -0.76672,-14.46833 -2.13184,-19.75412 -3.67237,-14.2198 -8.45976,-22.60584 -18.78898,-32.91274 -7.80099,-7.78413 -12.77001,-11.18 -21.65291,-14.79774 -8.92645,-3.63547 -13.92399,-4.53789 -25,-4.51431 -8.77385,0.0187 -10.79974,0.24226 -16.52233,1.82346 -14.65815,4.05017 -24.89798,10.73194 -34.97466,22.82192 -4.89213,5.86957 -7.94895,8.33333 -10.33926,8.33333 -0.65472,0 -3.8094,-1.31068 -7.0104,-2.91262 -12.86161,-6.43657 -17.4503,-7.98793 -34.15335,-11.5467 -8.07608,-1.7207 -31.21951,-1.72534 -39.33333,-0.008 -15.2469,3.22731 -20.56452,4.80891 -29.75054,8.84858 -26.64672,11.71825 -45.65505,29.22389 -59.307106,54.61862 -12.43502,23.13088 -17.477933,49.06766 -14.660593,75.40257 1.807293,16.89359 6.99966,34.81015 13.689953,47.23801 6.03948,11.21892 5.890413,12.94846 -2.0322,23.57862 -9.004813,12.0822 -14.04054,24.06212 -16.72174,39.7808 -1.149833,6.74096 -1.309313,9.8361 -1.01336,19.66666 0.506974,16.83955 2.756114,25.89602 10.1822,41 11.750706,23.89986 31.251556,40.51136 57.467936,48.95317 4.93328,1.58854 9.19523,3.36518 9.87528,4.11662 1.02928,1.13735 1.27327,3.28673 1.74701,15.39013 0.30285,7.73749 0.42353,14.19526 0.26817,14.35062 -0.15536,0.15534 -1.54061,-0.3594 -3.07834,-1.1439 -1.53774,-0.78449 -2.96319,-1.25903 -3.16768,-1.05454 -1.11244,1.11244 5.45273,32.13917 7.18948,33.9772 0.31334,0.33162 1.44948,-0.38798 2.59813,-1.64558 1.78779,-1.95739 2.15969,-2.11336 2.99487,-1.256 0.52448,0.53841 1.59294,2.92892 2.37436,5.31226 6.93544,21.15308 20.33317,43.64101 36.93503,61.99499 2.1583,2.38609 4.65262,5.98834 5.54292,8.00501 1.31719,2.98361 2.7735,4.63844 7.81749,8.88321 14.59198,12.27986 29.54685,21.18534 47.10487,28.05045 9.15118,3.57813 15.89953,5.57327 28.17825,8.3308 5.07891,1.14067 9.5082,2.24313 9.84286,2.44993 1.31816,0.81467 3.16901,5.66007 5.1701,13.5348 5.34116,21.01894 18.21248,45.359 27.19058,51.41827 1.75155,1.18213 5.04483,4.15847 7.3184,6.61413 12.18911,13.1654 30.47484,25.60233 47.21873,32.11553 29.41827,11.44347 62.48143,11.46554 91.02493,0.0607 7.54415,-3.01433 20.75254,-9.98393 25.33086,-13.36613 10.9704,-8.10434 21.4518,-18.32853 28.7984,-28.0918 6.68885,-8.88913 15.07702,-25.87373 17.77923,-36 0.73384,-2.75 2.15709,-9.5 3.16277,-15 1.6422,-8.98107 1.83129,-11.56233 1.85575,-25.33333 0.0248,-13.97383 -0.13231,-16.16086 -1.77219,-24.66667 -2.08963,-10.83862 -3.97605,-18.10367 -5.79901,-22.33333 -0.71113,-1.65 -2.25083,-5.25 -3.42154,-8 -8.83349,-20.74973 -25.05067,-40.51907 -44.60094,-54.37005 -7.92313,-5.61338 -9.69958,-7.219 -12.08961,-10.927 -2.37457,-3.684 -2.61369,-8.54114 -0.58436,-11.86948 1.12739,-1.84906 1.70269,-2.16667 3.92453,-2.16667 1.43191,0 5.41131,0.72801 8.84312,1.61781 15.63403,4.05356 36.41233,5.1846 50.90223,2.77078 36.96676,-6.15814 68.50689,-27.51765 87.20289,-59.05525 4.61482,-7.78457 9.09156,-18.36479 11.14225,-26.33334 1.81299,-7.04489 4.26125,-12.8151 7.40081,-17.44268 2.24512,-3.30923 4.75021,-5.69303 13.7624,-13.09608 19.6386,-16.13213 36.63027,-41.60395 45.4466,-68.1279 14.336,-43.13007 7.05173,-94.89354 -18.80986,-133.66666 -17.24794,-25.85906 -42.49472,-46.13543 -70.141,-56.33214 -6.58547,-2.42891 -11.36546,-4.85796 -10.75701,-5.46641 0.70395,-0.70395 15.3684,4.83376 24.09034,9.09719 24.21187,11.83517 43.6738,29.09038 59.44113,52.70136 12.16207,18.21218 20.1892,39.87295 23.96433,64.66666 1.46147,9.59855 1.672,33.36166 0.37807,42.66667 -3.69027,26.53658 -14.0498,51.48347 -30.27026,72.89426 -5.1796,6.83698 -17.2866,19.33911 -23.8466,24.62487 -11.7129,9.43772 -13.3378,11.74409 -16.30805,23.14753 -6.15153,23.61707 -15.81823,40.73574 -32.30628,57.2109 -31.43298,31.4084 -77.42722,44.03645 -120.5492,33.09766 -10.33499,-2.62168 -12.83647,-2.04217 -12.83647,2.9738 0,3.74255 2.2177,6.41901 9.33333,11.2641 33.42994,22.76268 53.02372,52.6259 60.14265,91.66452 1.97947,10.85497 2.13246,33.55941 0.30179,44.78901 -1.50293,9.2192 -5.11198,23.421 -7.47564,29.417 -6.26317,15.88814 -16.85296,31.6108 -29.21624,43.3774 -27.99389,26.6428 -65.07991,39.0716 -102.90956,34.48847 z m 169.77657,-11.15494 c -12.24998,-3.4618 -20.11329,-15.80206 -17.89659,-28.08593 3.55179,-19.6824 27.3785,-26.96853 41.64334,-12.7344 12.14581,12.11967 8.63711,31.90293 -6.95867,39.2354 -4.96483,2.33427 -11.83973,2.98333 -16.78808,1.58493 z M 672.05425,553.649 c -4.6482,-1.30289 -7.15501,-2.88269 -10.86095,-6.84464 -4.34539,-4.64558 -6.06569,-9.62682 -5.71543,-16.54944 0.33242,-6.56976 2.57495,-11.57147 7.02878,-15.67687 11.59753,-10.69026 30.04233,-7.02584 36.6988,7.29094 1.47346,3.16914 1.76566,4.7355 1.76566,9.46433 0,6.51528 -1.6408,10.89876 -5.91606,15.80533 -5.166,5.92887 -15.07214,8.73277 -23.0008,6.51035 z m 40.83326,-92.53917 c -2.1086,-1.93235 -2.46133,-2.69618 -2.694,-5.83334 -0.32466,-4.37708 1.1452,-7.16111 4.66187,-8.82986 6.28,-2.98005 13.13553,1.06435 13.14213,7.75313 0.007,5.54607 -3.5678,9.13356 -9.0972,9.13356 -3.1358,0 -3.89153,-0.27947 -6.0128,-2.22349 z M 418.78383,279.78257 c -15.34403,-14.3988 -28.07782,-22.64208 -45.95051,-29.74626 -3.3501,-1.33162 -5.5,-2.56352 -5.5,-3.15151 0,-0.53093 2.35176,-3.27221 5.22614,-6.09173 2.87438,-2.81953 6.65272,-7.07641 8.39631,-9.45974 3.55892,-4.86472 4.57963,-5.98204 2.74059,-3 -2.1957,3.56038 -5.2113,7.22622 -10.2559,12.46736 -2.94508,3.05983 -4.79754,5.5092 -4.58516,6.06263 0.19598,0.51073 2.25871,1.62613 4.58384,2.47866 13.30426,4.87814 29.55933,14.89078 40.53745,24.96987 7.4249,6.81685 8.49118,7.50852 9.6981,6.29102 0.51044,-0.51492 2.00634,-5.5344 3.32421,-11.15442 2.52802,-10.78064 6.64912,-23.35216 8.74913,-26.68946 0.68858,-1.09427 2.72473,-4.3377 4.52479,-7.20762 7.58185,-12.0881 13.16243,-20.19652 16.017,-23.27222 2.75968,-2.97346 2.97744,-3.0927 2.33583,-1.27916 -0.38916,1.1 -1.97984,3.65 -3.53484,5.66667 -2.93663,3.80849 -7.98222,11.56621 -12.17058,18.71254 -1.33595,2.27945 -3.43839,5.26173 -4.6721,6.6273 -3.90922,4.32703 -7.80858,15.29192 -11.23036,31.57935 -1.5962,7.59784 -2.43766,9.74748 -3.81557,9.74748 -0.34899,0 -2.33726,-1.59784 -4.41837,-3.55076 z m -32.45051,-57.11591 c 0.92902,-1.83333 1.83913,-3.33333 2.02246,-3.33333 0.18333,0 -0.42677,1.5 -1.35579,3.33333 -0.92902,1.83333 -1.83913,3.33333 -2.02246,3.33333 -0.18334,0 0.42677,-1.5 1.35579,-3.33333 z m 2.38058,-4.33333 c 0,-0.36667 0.42874,-1.41667 0.95275,-2.33334 0.52402,-0.91666 0.95276,-1.36666 0.95276,-1 0,0.36667 -0.42874,1.41667 -0.95276,2.33334 -0.52401,0.91666 -0.95275,1.36666 -0.95275,1 z m 3.3994,-9 c 0.0108,-0.55 0.25979,-1.75 0.55335,-2.66667 0.42909,-1.33982 0.5376,-1.40519 0.55336,-0.33333 0.0108,0.73333 -0.23823,1.93333 -0.55336,2.66666 -0.35102,0.81688 -0.56536,0.94599 -0.55335,0.33334 z m 249.55335,-45.32075 c -7.33566,-2.42296 -14.217,-9.14034 -17.04129,-16.63525 -4.48045,-11.8899 -0.37749,-25.28786 9.72273,-31.74889 12.32688,-7.88541 28.17335,-4.3372 36.76409,8.2319 3.62067,5.2975 5.15927,10.36175 5.10587,16.80632 -0.0803,9.69606 -5.2076,17.778 -14.03578,22.1241 -3.80412,1.87276 -5.17774,2.18168 -10.4478,2.34964 -4.65568,0.14837 -6.99873,-0.1141 -10.06782,-1.12782 z M 89.952897,159.12747 C 70.641745,153.67314 64.611512,128.07013 79.410904,114.3685 c 12.749693,-11.80396 32.183916,-7.85536 40.057846,8.13886 2.0641,4.19279 2.19788,4.89162 2.19738,11.47862 -4.7e-4,6.22327 -0.20309,7.44638 -1.79725,10.84911 -2.53901,5.41949 -7.64274,10.58121 -12.72064,12.86518 -4.86786,2.1895 -12.309576,2.80716 -17.195343,1.4272 z M 366.37187,64.378375 c -6.22551,-2.311997 -9.84645,-7.020551 -10.24795,-13.326148 -0.33665,-5.286864 0.66966,-8.449338 3.78986,-11.910233 9.42768,-10.457077 26.88621,-3.861437 26.88621,10.157313 0,4.284551 -1.11573,7.400127 -3.78284,10.563258 -3.78029,4.483339 -11.26498,6.513912 -16.64528,4.51581 z"
         id="path5155" />
      <path
         style="fill:#fd7b64;stroke-width:0.666667"
         d="m 411.63536,793.99864 c -28.52907,-4.32113 -54.00298,-17.8566 -75.08729,-39.89726 -2.81523,-2.94293 -6.04023,-5.82733 -7.16667,-6.40987 -1.12644,-0.58253 -2.04712,-1.1264 -2.04596,-1.20866 10e-4,-0.0823 1.17518,-0.16327 2.60893,-0.18 1.95757,-0.0227 3.74195,-0.79094 7.16455,-3.08394 21.29154,-14.2644 34.50024,-35.62706 37.8656,-61.24066 0.60065,-4.57147 2.42047,-7.01894 6.49694,-8.73774 1.94069,-0.81826 7.67657,-3.57206 12.7464,-6.11946 41.88133,-21.04382 73.46133,-58.93063 87.51004,-104.98655 2.358,-7.73022 2.51152,-9.62013 1.20234,-14.80118 -0.29685,-1.1748 0.1659,-0.7813 1.56802,1.33333 2.4999,3.77029 4.28161,5.37552 12.16839,10.96315 19.55027,13.85098 35.76745,33.62032 44.60094,54.37018 1.17071,2.75 2.71041,6.35 3.42154,8 1.82296,4.22966 3.70938,11.49471 5.79901,22.33334 1.63988,8.5058 1.797,10.69283 1.77219,24.66666 -0.0245,13.771 -0.21355,16.35227 -1.85575,25.33333 -2.46963,13.50627 -3.91804,18.6558 -7.74886,27.5496 -8.85434,20.55654 -22.16658,36.8966 -41.99154,51.5422 -4.57832,3.3822 -17.78671,10.3518 -25.33086,13.36613 -19.48263,7.7844 -42.61061,10.40134 -63.69796,7.2074 z M 153.41094,561.82058 c -0.61998,-1.68763 -3.56824,-13.81738 -5.06066,-20.8206 -1.26737,-5.94714 -2.00032,-12.33333 -1.41551,-12.33333 0.24842,0 1.71473,0.64736 3.25845,1.43857 1.85301,0.94974 2.46697,1.55005 1.80678,1.76663 -0.55,0.18043 -1.18292,0.60769 -1.40649,0.94947 -0.67939,1.03859 2.47182,16.91472 4.84397,24.40446 0.5341,1.68636 1.00297,2.14786 1.9346,1.90424 1.13184,-0.29598 1.11811,-0.17068 -0.17262,1.57512 -1.89942,2.5691 -3.12223,2.92913 -3.78852,1.11544 z m 366.92238,-21.56536 c -7.9104,-0.82504 -18.05342,-2.54036 -23.84728,-4.03292 -3.60601,-0.92894 -7.69687,-1.58023 -9.0908,-1.4473 l -2.53442,0.2417 1.27159,-1.71992 c 2.05092,-2.77402 2.96889,-16.90535 1.98972,-30.63013 -1.70492,-23.8972 -5.88498,-42.79441 -13.51018,-61.07672 -4.0875,-9.80025 -5.4135,-14.27569 -4.95777,-16.73322 0.2186,-1.17881 0.69222,-2.32546 1.05249,-2.54812 0.9806,-0.60605 4.64404,1.56624 9.87968,5.85828 7.21412,5.91396 18.06787,12.9229 27.07649,17.48498 41.28952,20.9095 88.13674,21.44326 129.92068,1.48026 7.86492,-3.7576 8.97551,-4.52084 13.26536,-9.11653 4.0924,-4.38416 4.40995,-4.61168 2.5224,-1.80723 -3.06161,4.54883 -5.57471,10.50715 -7.36358,17.4583 -2.05069,7.96855 -6.52743,18.54877 -11.14225,26.33334 -18.62566,31.41894 -50.75323,53.22057 -86.86955,58.9493 -6.48634,1.02885 -22.89287,1.80339 -27.66258,1.30593 z M 97.55889,335.75926 c -0.0027,-2.64387 -0.710606,-4.59959 -3.843466,-10.61866 -16.405206,-31.51878 -19.396793,-72.20987 -7.705373,-104.80727 3.113286,-8.68032 4.123493,-10.96171 8.265633,-18.66667 13.652056,-25.39473 32.660386,-42.90037 59.307106,-54.61862 9.18602,-4.03967 14.50364,-5.62127 29.75054,-8.84858 8.11382,-1.71746 31.25725,-1.71282 39.33333,0.008 16.70305,3.55877 21.29174,5.11013 34.15335,11.5467 6.4115,3.20864 7.25716,3.36668 10.17998,1.90255 l 2,-1.00186 -2.22252,1.86771 c -1.22238,1.02724 -3.47238,3.9336 -5,6.45858 -3.09722,5.11936 -2.38009,4.74765 -14.11081,7.31414 -16.09714,3.52179 -32.64425,8.9862 -45.30263,14.96045 -6.95846,3.28414 -9.29982,4.60486 -17.69737,9.98286 -15.58694,9.98226 -31.68567,25.35 -44.09718,42.09488 -17.06411,23.02188 -30.05678,55.25287 -33.54085,83.20494 -1.10051,8.82924 -1.30561,9.42705 -4.95318,14.43663 -1.32483,1.81954 -2.882286,4.36954 -3.461006,5.66667 l -1.05222,2.35842 z"
         id="path5153" />
      <path
         style="fill:#fd9a13;stroke-width:0.666667"
         d="m 292.66666,681.82705 c -34.37808,-7.78667 -55.30643,-17.26894 -77,-34.88735 -8.87643,-7.20898 -10.08519,-8.5313 -11.66069,-12.75618 -0.78968,-2.11761 -1.93908,-4.47318 -2.55421,-5.2346 -0.61514,-0.76142 0.0816,-0.0114 1.54823,1.66666 4.96159,5.6768 11.73506,11.96746 18.00462,16.72123 6.45081,4.89122 22.03444,14.66317 23.3838,14.66317 0.4208,0 1.48056,0.55987 2.35501,1.24416 4.03839,3.16019 26.64779,11.03997 39.5899,13.79784 5.89942,1.25707 9.96017,3.02393 10.56352,4.59627 0.4425,1.15313 0.0958,1.1686 -4.23018,0.1888 z m -109.41837,-75.6604 c -0.82925,-1.05737 -0.80567,-1.08095 0.2517,-0.25171 0.64167,0.50324 1.16667,1.02824 1.16667,1.16667 0,0.54869 -0.54746,0.19554 -1.41837,-0.91496 z m -10.94238,-18.21102 c -0.24168,-0.39106 -0.29645,-0.854 -0.1217,-1.02875 0.17475,-0.17476 0.49538,0.1452 0.7125,0.71102 0.45079,1.17474 0.0666,1.38137 -0.5908,0.31773 z m -7.26306,-16.42689 c -0.36178,-0.95014 -0.28521,-1.02671 0.3732,-0.3732 0.45562,0.45222 0.66045,0.99016 0.45519,1.19542 -0.20526,0.20526 -0.57803,-0.16474 -0.82839,-0.82222 z m -13.75998,-70.69542 -1.61621,-1.83333 1.83334,1.6162 c 1.71352,1.5106 2.13906,2.05046 1.6162,2.05046 -0.11941,0 -0.94441,-0.825 -1.83333,-1.83333 z M 96.581624,467.49999 c -0.829247,-1.05738 -0.805667,-1.08096 0.251706,-0.25171 0.641667,0.50323 1.166667,1.02823 1.166667,1.16667 0,0.54869 -0.54746,0.19554 -1.418373,-0.91496 z m 572.418356,-47.5 c 0.66367,-0.73334 1.35667,-1.33334 1.54,-1.33334 0.18333,0 -0.20967,0.6 -0.87333,1.33334 -0.66367,0.73333 -1.35667,1.33333 -1.54,1.33333 -0.18334,0 0.20966,-0.6 0.87333,-1.33333 z m 2.33333,-2.25171 c 0,-0.13843 0.525,-0.66343 1.16667,-1.16667 1.0574,-0.82924 1.08093,-0.80566 0.25173,0.25171 -0.87093,1.1105 -1.4184,1.46365 -1.4184,0.91496 z M 73.438591,403.99999 c 0,-0.91667 0.15132,-1.29167 0.33626,-0.83333 0.18494,0.45833 0.18494,1.20833 0,1.66666 -0.18494,0.45834 -0.33626,0.0833 -0.33626,-0.83333 z M 717.38591,328.94444 c 0.032,-0.77664 0.19,-0.9346 0.4028,-0.40278 0.1926,0.48124 0.16893,1.05625 -0.0527,1.27778 -0.22153,0.22152 -0.37913,-0.17223 -0.3502,-0.875 z m 0.744,-5.94445 c 0.0133,-1.1 0.163,-1.46929 0.33207,-0.82065 0.169,0.64865 0.15793,1.54865 -0.0247,2 -0.1826,0.45136 -0.32087,-0.0794 -0.30733,-1.17935 z m -0.0247,-24.33333 c 0,-0.91667 0.15134,-1.29167 0.33627,-0.83334 0.18493,0.45834 0.18493,1.20834 0,1.66667 -0.18493,0.45833 -0.33627,0.0833 -0.33627,-0.83333 z M 422.99999,287.23123 c -0.73334,-0.41038 -4.33334,-3.65701 -8,-7.21473 -11.66176,-11.31527 -26.15529,-20.89167 -39.33333,-25.98897 -2.93334,-1.13461 -6.68334,-2.58874 -8.33334,-3.23138 -4.9263,-1.9187 -4.54715,-3.13522 3.3025,-10.59606 12.96381,-12.32167 20.26166,-26.70692 21.91605,-43.2001 l 0.60185,-6 0.0898,6.68007 c 0.11007,8.18823 -1.36041,14.03524 -5.69451,22.64285 -4.0764,8.09583 -8.09204,13.60584 -14.69323,20.16116 -3.03735,3.01624 -5.52246,5.90752 -5.52246,6.42506 0,0.55751 2.24143,1.83194 5.5,3.12718 15.7145,6.24632 28.67927,14.234 40.74543,25.10348 9.61112,8.65794 9.59027,8.64355 10.7894,7.44442 0.52847,-0.52847 1.71517,-4.55112 2.6371,-8.9392 1.99724,-9.50622 5.17974,-20.51788 7.34475,-25.41334 1.20273,-2.71958 6.92043,-10.34152 10.17597,-13.56501 0.315,-0.3119 -2.83161,5.61507 -6.1938,11.66667 -2.79118,5.02383 -6.94985,19.0601 -8.95302,30.21807 -1.91053,10.64199 -3.04695,12.54455 -6.37916,10.67983 z m 293.05259,-6.95346 c 0.032,-0.77663 0.19,-0.9346 0.4028,-0.40278 0.1926,0.48125 0.16893,1.05626 -0.0527,1.27778 -0.22153,0.22153 -0.37913,-0.17222 -0.3502,-0.875 z m -198.05164,-37.0293 c -18.27234,-2.11467 -36.95505,-10.86574 -50.83154,-23.80971 -3.20683,-2.99132 -6.15155,-5.43877 -6.54383,-5.43877 -0.39228,0 -1.339,0.3349 -2.10383,0.74422 -1.18147,0.63231 -1.32698,0.57846 -0.96761,-0.35805 0.23264,-0.60625 0.90549,-2.76204 1.49522,-4.79064 0.91344,-3.14215 2.02582,-4.68363 7.51144,-10.40903 23.85378,-24.89647 53.28374,-40.16629 86.58058,-44.92255 9.97615,-1.42504 29.65985,-1.4453 39.85861,-0.041 13.34778,1.83786 16.16894,2.73318 21.69961,6.88657 3.48724,2.61881 4.43522,3.60487 3.18194,3.30971 -2.21416,-0.52145 -3.87735,0.95787 -3.892,3.46174 -0.0175,3.00346 -2.45157,13.50157 -4.3555,18.78571 -13.62965,37.82757 -51.51993,61.22414 -91.63309,56.58181 z m 181.70857,-9.71972 c -0.3618,-0.95014 -0.2852,-1.02671 0.3732,-0.3732 0.4556,0.45222 0.66047,0.99016 0.4552,1.19542 -0.20526,0.20526 -0.57806,-0.16474 -0.8284,-0.82222 z M 454.66665,218.33333 c 0.86117,-0.91667 1.71576,-1.66667 1.89909,-1.66667 0.18333,0 -0.37125,0.75 -1.23242,1.66667 -0.86117,0.91666 -1.71575,1.66666 -1.89909,1.66666 -0.18333,0 0.37126,-0.75 1.23242,-1.66666 z m 235.91493,0.5 c -0.8292,-1.05738 -0.80567,-1.08096 0.25173,-0.25171 1.11047,0.87091 1.46367,1.41837 0.91494,1.41837 -0.1384,0 -0.6634,-0.525 -1.16667,-1.16666 z m -12.3116,-15.66667 -1.27,-1.5 1.5,1.26999 c 1.4096,1.19348 1.80347,1.73001 1.27,1.73001 -0.12653,0 -0.80153,-0.675 -1.5,-1.5 z m -4.64527,-4.66667 -1.95806,-2.16666 2.16666,1.95806 c 1.19167,1.07693 2.16667,2.05193 2.16667,2.16666 0,0.51504 -0.55007,0.0616 -2.37527,-1.95806 z m -4.0214,-4 -1.27,-1.5 1.5,1.27 c 0.825,0.69849 1.5,1.37349 1.5,1.5 0,0.5335 -0.53653,0.13963 -1.73,-1.27 z m -26.93666,-19.16666 c -0.60086,-0.38831 -0.68309,-0.65033 -0.20602,-0.65646 0.4367,-0.005 0.9794,0.28979 1.20602,0.65646 0.51153,0.82769 0.28074,0.82769 -1,0 z M 383.42949,154.16666 c -0.72746,-1.70002 -0.711,-1.73924 0.22633,-0.53924 0.55596,0.71174 1.01083,1.53674 1.01083,1.83333 0,1.01327 -0.45222,0.54024 -1.23716,-1.29409 z M 273.89992,144.8072 c 0.82252,-1.15512 1.84052,-2.31346 2.26222,-2.57408 0.42171,-0.26064 0.0938,0.47122 -0.72874,1.62634 -0.82252,1.15512 -1.84052,2.31346 -2.26223,2.57408 -0.4217,0.26064 -0.0938,-0.47122 0.72875,-1.62634 z m 102.6817,-0.64054 c -0.82925,-1.05737 -0.80567,-1.08095 0.2517,-0.2517 1.1105,0.87091 1.46366,1.41837 0.91496,1.41837 -0.13843,0 -0.66343,-0.525 -1.16666,-1.16667 z m -99.2483,-3.08504 c 0,-0.13843 0.525,-0.66343 1.16667,-1.16666 1.05737,-0.82925 1.08095,-0.80567 0.25171,0.2517 -0.87092,1.1105 -1.41838,1.46366 -1.41838,0.91496 z m 10,-8.66666 c 0,-0.13844 0.525,-0.66344 1.16667,-1.16667 1.05737,-0.82925 1.08095,-0.80567 0.25171,0.25171 -0.87092,1.1105 -1.41838,1.46365 -1.41838,0.91496 z m 46.5,-12.18982 c 0.45834,-0.18494 1.20834,-0.18494 1.66667,0 0.45833,0.18494 0.0833,0.33626 -0.83333,0.33626 -0.91667,0 -1.29167,-0.15132 -0.83334,-0.33626 z M 320.84601,119.538 c 0.64865,-0.16902 1.54865,-0.15791 2,0.0247 0.45135,0.18262 -0.0793,0.32091 -1.17935,0.30732 -1.1,-0.0136 -1.4693,-0.163 -0.82065,-0.33202 z m 5.33333,0 c 0.64865,-0.16902 1.54865,-0.15791 2,0.0247 0.45136,0.18262 -0.0794,0.32091 -1.17935,0.30732 -1.1,-0.0136 -1.46929,-0.163 -0.82065,-0.33202 z m 3.65398,0.0205 c 0.45834,-0.18494 1.20834,-0.18494 1.66667,0 0.45833,0.18494 0.0833,0.33626 -0.83333,0.33626 -0.91667,0 -1.29167,-0.15132 -0.83334,-0.33626 z"
         id="path5151" />
      <path
         style="fill:#fc6a31;stroke-width:0.666667"
         d="m 327.23254,746.01691 c -1.87871,-1.15393 -7.58045,-9.3454 -11.84481,-17.01693 -5.18193,-9.32227 -10.13119,-21.86747 -12.78911,-32.41747 -1.14306,-4.53706 -2.94536,-9.81966 -4.00512,-11.73913 -1.05976,-1.9194 -1.92684,-3.6444 -1.92684,-3.83333 0,-0.89007 3.52118,-0.18734 5.79522,1.1566 2.42658,1.43406 3.16795,1.49833 16.87144,1.46173 17.80232,-0.0473 27.05527,-1.28273 44.80839,-5.98153 6.52158,-1.72614 6.47991,-1.70674 10.28881,-4.7898 1.52012,-1.2304 6.06178,-3.71354 10.09256,-5.51794 25.91565,-11.6015 48.78667,-29.82203 66.53463,-53.00579 8.92743,-11.66171 19.53197,-32.08388 24.92476,-48 3.06704,-9.052 3.64191,-11.52086 3.79762,-16.3095 0.13349,-4.1055 0.77821,-7.55638 2.36649,-12.66666 l 2.18301,-7.02384 -0.0191,-18 c -0.0108,-10.20798 -0.37714,-20.85983 -0.84625,-24.60635 -1.64223,-13.1155 -6.43028,-30.48136 -12.80024,-46.42534 -2.13109,-5.33409 -4.8146,-12.68409 -5.96337,-16.33333 -1.14876,-3.64924 -3.12601,-8.28498 -4.39388,-10.30165 -3.41933,-5.43876 -6.222,-11.58415 -5.59394,-12.26577 0.66493,-0.72163 4.77539,2.75426 7.7482,6.55202 1.17024,1.49499 3.87024,3.75121 6,5.01382 2.12975,1.26262 5.79475,3.96163 8.14444,5.9978 21.65365,18.76445 43.46209,29.76363 69.40545,35.00495 20.41403,4.12424 37.24505,4.01314 57.9693,-0.38267 18.87174,-4.00287 39.82674,-12.98567 47.35308,-20.29891 1.28334,-1.24699 3.68334,-3.26061 5.33334,-4.4747 10.0446,-7.39096 14.36333,-11.09543 20.10786,-17.2479 8.37614,-8.97095 11.4586,-12.86946 17.98727,-22.74875 5.87593,-8.89167 7.7682,-12.39644 11.5992,-21.48322 1.39127,-3.3 2.7376,-6.3 2.99187,-6.66666 0.43113,-0.62179 3.41279,-10.1162 3.29573,-10.49467 -0.0293,-0.0946 0.42593,-1.31864 1.01146,-2.72009 0.5856,-1.40145 1.6348,-5.60145 2.3316,-9.33333 0.69687,-3.73189 1.4532,-7.53525 1.6808,-8.45191 0.2276,-0.91667 0.57974,-7.81667 0.78254,-15.33334 0.5334,-19.77301 -1.37114,-36.21638 -5.907,-50.99999 -4.47433,-14.58288 -10.0776,-27.43941 -15.9804,-36.66667 -1.64193,-2.56667 -3.15353,-5.11782 -3.3592,-5.66923 -0.20567,-0.55141 -1.7102,-2.65141 -3.34347,-4.66667 -1.63326,-2.01525 -3.246,-4.15356 -3.58386,-4.75179 -1.15807,-2.05019 -5.9508,-7.46657 -11.96447,-13.52122 -6.214,-6.25637 -7.4616,-7.36766 -11.98327,-10.67404 -1.46666,-1.07247 -2.96666,-2.31968 -3.33333,-2.77157 -0.36667,-0.45189 -2.46667,-1.94963 -4.66667,-3.32829 -2.2,-1.37866 -4.1,-2.75653 -4.22222,-3.06192 -0.12222,-0.3054 -0.5486,-0.55527 -0.9475,-0.55527 -0.39891,0 -1.19891,-0.41693 -1.77778,-0.92652 -1.73024,-1.52313 -13.33317,-7.44435 -19.0525,-9.72288 -8.65615,-3.44854 -10.37909,-4.21863 -10.7381,-4.79952 -0.69965,-1.13205 9.724,3.00967 18.7381,7.44537 23.59248,11.6095 42.59514,28.36255 57.47434,50.67022 18.88573,28.31448 28.02379,63.31505 25.60253,98.06261 -0.9696,13.91484 -2.83727,23.70402 -6.79267,35.60405 -9.37613,28.208 -26.92673,53.60859 -49.2842,71.32772 -2.75,2.17948 -7.85,6.88658 -11.33333,10.46021 -6.00098,6.15654 -6.77064,6.70618 -14.66667,10.47399 -41.54406,19.82394 -88.49644,19.24096 -129.67047,-1.61006 -9.00862,-4.56208 -19.86237,-11.57102 -27.07649,-17.48498 -5.23564,-4.29204 -8.89908,-6.46433 -9.87968,-5.85828 -0.36027,0.22266 -0.83389,1.36931 -1.05249,2.54812 -0.45573,2.45753 0.87027,6.93297 4.95777,16.73322 7.6252,18.28231 11.80526,37.17952 13.51018,61.07672 0.97762,13.70301 0.0608,27.85661 -1.98352,30.62177 -3.58868,4.85405 -4.27314,9.08572 -2.70084,16.69804 0.71676,3.47018 0.61936,4.24858 -1.38134,11.04013 -11.51754,39.09716 -36.62432,73.46823 -69.83857,95.60871 -8.07191,5.3807 -22.12263,12.96908 -30.7464,16.60521 -4.07647,1.7188 -5.89629,4.16627 -6.49694,8.73774 -3.35427,25.5292 -16.58123,46.9778 -37.69666,61.12833 -4.53777,3.041 -8.13562,4.08333 -10.04532,2.91033 z M 197.89535,626.1605 c -7.65249,-8.73568 -10.52769,-12.42592 -16.03852,-20.58503 -7.2477,-10.73065 -15.96334,-28.37704 -19.87579,-40.24215 -1.64558,-4.99044 -2.88366,-6.65448 -4.61437,-6.20189 -0.92515,0.24193 -1.39647,-0.22363 -1.92919,-1.90565 -2.3673,-7.4744 -5.52562,-23.37464 -4.84397,-24.38638 0.22357,-0.33184 0.94023,-0.8004 1.59257,-1.04124 1.09624,-0.40473 1.15707,-1.33529 0.80304,-12.2847 -0.59622,-18.43921 -0.60558,-18.47099 -6.03333,-20.459 -1.44235,-0.52829 -2.26699,-0.98166 -1.83253,-1.0075 1.50383,-0.0894 4.55084,1.37827 6.27476,3.02247 1.43772,1.37122 1.74722,2.29682 1.8249,5.45758 0.126,5.12647 0.75189,14.6738 1.12363,17.13964 0.16583,1.1 0.60322,5.45 0.97197,9.66667 0.81841,9.35839 2.08888,15.61634 4.40715,21.70836 2.03457,5.34648 2.82461,7.86252 3.30823,10.53555 0.19012,1.05081 1.23526,3.81331 2.32255,6.13887 1.08728,2.32555 1.97688,4.43431 1.97688,4.68613 0,0.25181 1.05,2.64089 2.33333,5.30905 1.28333,2.66816 2.33333,5.07601 2.33333,5.35079 0,0.27477 0.40686,0.97321 0.90412,1.55209 0.49727,0.57887 1.9575,3.00249 3.24495,5.38582 4.3641,8.07882 7.83673,13.42454 12.99217,20 1.58116,2.01667 3.54622,4.52446 4.3668,5.57286 0.82058,1.04841 2.12835,2.54841 2.90615,3.33334 0.77781,0.78492 2.441,2.77714 3.69599,4.42714 5.02829,6.61097 4.23656,6.19172 -2.21482,-1.17282 z M 138.33333,496.50291 c -2.2,-0.7655 -3.7,-1.48656 -3.33333,-1.60235 0.36666,-0.11579 2.61666,0.51857 5,1.40971 5.28295,1.97531 3.91203,2.13377 -1.66667,0.19264 z m -12.5,-5.21234 C 123.725,490.20233 122,489.16243 122,488.9797 c 0,-0.29784 7.93344,3.47886 8.61111,4.0993 0.87267,0.79898 -1.44782,-0.0696 -4.77778,-1.78843 z m -12.03481,-7.3489 c -7.33198,-5.21536 -15.60607,-13.34926 -21.302623,-20.94168 -4.640646,-6.18511 -11.473239,-19.00371 -13.828033,-25.94272 -2.07068,-6.1018 -1.15468,-5.07745 1.292367,1.44523 6.76768,18.03947 18.954479,34.07426 34.039769,44.78785 5.3538,3.80228 6.48766,4.70964 5.88528,4.70964 -0.20976,0 -2.9488,-1.82625 -6.08676,-4.05832 z M 76.719298,430.94443 c 0.032,-0.77663 0.18996,-0.9346 0.402773,-0.40278 0.19258,0.48125 0.1689,1.05626 -0.0526,1.27778 -0.221533,0.22153 -0.379093,-0.17222 -0.350147,-0.875 z m -0.666667,-2.66666 c 0.032,-0.77664 0.18996,-0.9346 0.402773,-0.40278 0.19258,0.48124 0.1689,1.05625 -0.0526,1.27778 -0.221533,0.22152 -0.379093,-0.17223 -0.350146,-0.875 z m -0.61404,-2.94445 c 0,-0.91667 0.15132,-1.29167 0.33626,-0.83333 0.18494,0.45833 0.18494,1.20833 0,1.66666 -0.18494,0.45834 -0.33626,0.0833 -0.33626,-0.83333 z m -0.719293,-3.05555 c 0.032,-0.77664 0.18996,-0.9346 0.402773,-0.40278 0.19258,0.48124 0.1689,1.05625 -0.0526,1.27778 -0.221533,0.22152 -0.379093,-0.17223 -0.350147,-0.875 z m -1.06444,-7.17494 c -0.2524,-2.69344 -0.312794,-5.46843 -0.134214,-6.16667 0.178574,-0.69822 0.377367,0.0805 0.44176,1.7305 0.0644,1.64999 0.351634,4.42499 0.638314,6.16666 0.28668,1.74167 0.294386,3.16667 0.01713,3.16667 -0.277253,0 -0.7106,-2.20372 -0.962993,-4.89716 z m -0.183034,-18.10284 c -0.0218,-1.46667 0.200554,-4.01667 0.494147,-5.66667 0.491587,-2.76273 0.535787,-2.81546 0.558847,-0.66666 0.0138,1.28333 -0.208594,3.83333 -0.494147,5.66666 -0.5058,3.24739 -0.520213,3.26458 -0.558847,0.66667 z m 1.324807,-10.66667 c 0.0136,-1.1 0.163,-1.46929 0.332027,-0.82064 0.169026,0.64864 0.157913,1.54864 -0.02467,2 -0.18262,0.45135 -0.320913,-0.0794 -0.307327,-1.17936 z m 0.64196,-3.66666 c 0,-0.91667 0.15132,-1.29167 0.33626,-0.83334 0.18494,0.45834 0.18494,1.20834 0,1.66667 -0.18494,0.45833 -0.33626,0.0833 -0.33626,-0.83333 z m 0.599073,-2.46559 c -0.12218,-2.59144 7.767273,-22.86775 8.89778,-22.86775 0.380847,0 0.174647,0.52433 -2.22848,5.66667 -0.85676,1.83333 -2.699366,6.63333 -4.094686,10.66667 -1.39532,4.03333 -2.553894,6.97382 -2.574614,6.53441 z m 9.931753,-24.81061 c 0.375647,-0.7019 2.975067,-4.356 5.776487,-8.12021 2.80142,-3.76421 5.73654,-8.23198 6.5225,-9.92838 0.785953,-1.69641 2.506036,-4.56731 3.822416,-6.37979 3.63228,-5.00117 3.83838,-5.60321 4.93781,-14.42381 3.48407,-27.95207 16.47674,-60.18306 33.54085,-83.20494 12.41151,-16.74488 28.51024,-32.11262 44.09718,-42.09488 8.39755,-5.378 10.73891,-6.69872 17.69737,-9.98284 12.65838,-5.97425 29.20549,-11.43866 45.30263,-14.96045 11.66721,-2.5526 11.03035,-2.23203 14,-7.04694 1.46667,-2.37802 4.5931,-6.25669 6.94763,-8.61928 4.20429,-4.21867 4.24676,-4.24188 2.37136,-1.29561 -1.05028,1.65 -2.5884,3.75251 -3.41803,4.67225 -2.17592,2.41224 -7.8857,14.91223 -9.15255,20.03701 -1.58804,6.42402 -1.47012,20.89463 0.23256,28.53865 3.5657,16.00787 11.6735,29.91665 23.29047,39.95437 4.97598,4.29952 6.09581,5.53142 5.83298,6.41676 -0.22365,0.75332 -0.76656,1.04496 -7.10442,3.81637 -13.58749,5.94151 -26.21709,14.74792 -38.03816,26.52335 -11.9144,11.8684 -18.9099,21.32564 -25.55009,34.54123 -2.20722,4.3929 -2.61152,4.83334 -4.43678,4.83334 -1.10454,0 -4.02576,-1.01432 -6.49161,-2.25403 -5.54452,-2.78753 -15.31732,-6.02587 -22.81669,-7.5606 -4.20358,-0.86025 -8.76498,-1.15046 -17.66667,-1.12397 -10.53936,0.0313 -12.90438,0.24856 -19.43004,1.78446 -9.45422,2.22519 -20.07638,6.38752 -27.0867,10.61402 -5.88466,3.54784 -15.26439,12.20521 -18.72236,17.2805 -1.15183,1.69054 -3.85361,5.14054 -6.003956,7.66666 -2.150347,2.52613 -4.934567,6.16796 -6.187153,8.09296 -2.209047,3.39491 -3.650554,4.80893 -2.267034,2.2238 z M 222.92431,240.63598 c 4.96703,-1.86095 9.93274,-6.50491 12.47293,-11.66477 1.84109,-3.73979 2.12806,-5.03498 2.17283,-9.80671 0.044,-4.68841 -0.2272,-6.10857 -1.84202,-9.64609 -2.21695,-4.85657 -7.52688,-10.24794 -12.07431,-12.25948 -15.46454,-6.8407 -32.56659,2.96436 -34.0814,19.53978 -0.6393,6.99534 3.25988,16.09638 8.61259,20.10259 7.4808,5.59896 16.2358,6.92063 24.73938,3.73468 z m 220.43072,-5.92542 c 3.49047,-6.05476 8.74938,-14.20637 11.2107,-17.37723 3.28538,-4.23248 3.58399,-4.5282 3.02925,-3 -0.2662,0.73333 -1.43543,2.40546 -2.59827,3.71583 -1.16286,1.31037 -2.53606,3.33537 -3.05158,4.5 -0.51551,1.16463 -1.16406,2.1175 -1.44122,2.1175 -0.27716,0 -0.51227,0.375 -0.52247,0.83333 -0.0102,0.45834 -0.9102,2.01178 -2,3.4521 -1.0898,1.44032 -1.99272,2.94032 -2.00649,3.33333 -0.0138,0.39301 -1.07878,1.91457 -2.36671,3.38124 l -2.34168,2.66667 z m -50.4818,-47.0439 c 0.004,-2.2 0.1282,-3.01963 0.27658,-1.82139 0.14837,1.19823 0.14531,2.99823 -0.007,4 -0.15212,1.00176 -0.27352,0.0214 -0.26978,-2.17861 z m -0.70512,-8 c 0.007,-1.46667 0.14392,-1.98817 0.30338,-1.15889 0.15946,0.82927 0.15341,2.02927 -0.0135,2.66666 -0.16686,0.6374 -0.29734,-0.0411 -0.28994,-1.50777 z m -0.78216,-4.72222 c 0.032,-0.77663 0.18996,-0.9346 0.40278,-0.40278 0.19258,0.48125 0.1689,1.05626 -0.0526,1.27778 -0.22153,0.22153 -0.3791,-0.17222 -0.35015,-0.875 z m -0.66666,-2.66666 c 0.032,-0.77664 0.18996,-0.9346 0.40277,-0.40278 0.19258,0.48124 0.1689,1.05625 -0.0526,1.27778 -0.22153,0.22152 -0.37909,-0.17223 -0.35015,-0.875 z m -2.0088,-6.45966 c -0.84818,-2.64997 -2.10502,-5.93117 -2.79299,-7.29156 -1.6358,-3.23465 -1.56933,-4.21103 0.0812,-1.19323 1.49187,2.72765 4.93295,12.62386 4.52973,13.02707 -0.15171,0.15171 -0.9698,-1.89232 -1.81798,-4.54228 z m -7.89835,-15.98479 c -2.63836,-3.8963 -3.21678,-5.19233 -1.34349,-3.01023 1.79091,2.08612 4.1064,5.84356 3.60106,5.84356 -0.18646,0 -1.20236,-1.275 -2.25757,-2.83333 z m -5.18742,-7.33333 -1.95806,-2.16667 2.16666,1.95806 c 1.19167,1.07693 2.16667,2.05193 2.16667,2.16667 0,0.51504 -0.55009,0.0616 -2.37527,-1.95806 z m -98.95806,-1.15392 c 0,-0.63187 7.44124,-7.39464 10.08749,-9.16776 0.86855,-0.58196 -0.36855,0.71484 -2.74911,2.88178 -2.38056,2.16694 -5.00556,4.60126 -5.83334,5.4096 -0.82777,0.80833 -1.50504,1.2027 -1.50504,0.87638 z m 93.66666,-3.86528 c -1.46666,-1.36723 -4.01666,-3.64131 -5.66666,-5.05352 -2.05366,-1.75769 -2.29279,-2.09369 -0.75807,-1.06514 2.30484,1.54466 10.02117,8.58321 9.42473,8.59688 -0.18333,0.004 -1.53333,-1.111 -3,-2.47822 z m -79,-8.57702 c 0,-0.46822 11.38953,-5.73648 11.70967,-5.41634 0.14778,0.14778 -2.42644,1.49972 -5.72049,3.00432 -3.29405,1.5046 -5.98918,2.59001 -5.98918,2.41202 z m 63.66667,-2.23712 C 354.77338,126.3 354.88797,126 355.25464,126 c 0.36666,0 0.85207,0.3 1.07868,0.66666 0.22662,0.36667 0.11202,0.66667 -0.25464,0.66667 -0.36667,0 -0.85208,-0.3 -1.07869,-0.66667 z m -4.33333,-2 c -0.55,-0.35544 -0.7,-0.64624 -0.33334,-0.64624 0.36667,0 1.11667,0.2908 1.66667,0.64624 0.55,0.35544 0.7,0.64625 0.33333,0.64625 -0.36666,0 -1.11666,-0.29081 -1.66666,-0.64625 z m -45.66667,-2 c 0.73333,-0.31512 1.78333,-0.57295 2.33333,-0.57295 0.63032,0 0.5071,0.21181 -0.33333,0.57295 -0.73333,0.31513 -1.78333,0.57296 -2.33333,0.57296 -0.63032,0 -0.5071,-0.21181 0.33333,-0.57296 z m 39.54167,-0.4554 c 0.48124,-0.19258 1.05625,-0.1689 1.27778,0.0526 0.22152,0.22152 -0.17223,0.37909 -0.875,0.35014 -0.77664,-0.032 -0.9346,-0.18996 -0.40278,-0.40277 z m -35.33334,-0.66667 c 0.48125,-0.19258 1.05626,-0.1689 1.27778,0.0526 0.22153,0.22153 -0.17222,0.37909 -0.875,0.35015 -0.77663,-0.032 -0.9346,-0.18996 -0.40278,-0.40278 z m 30.45834,-0.21126 c -1.08694,-0.46707 -1.12501,-0.58161 -0.20602,-0.61981 0.62003,-0.0258 1.31274,0.25314 1.53935,0.61981 0.47377,0.76659 0.45061,0.76659 -1.33333,0 z m -27,-0.63398 c 1.6656,-0.56609 5.80274,-0.91996 5.27778,-0.45144 -0.15278,0.13635 -1.77778,0.42116 -3.61112,0.6329 -2.24794,0.25963 -2.79064,0.20055 -1.66666,-0.18146 z m 23.875,-0.48809 c 0.48124,-0.19258 1.05625,-0.1689 1.27778,0.0526 0.22152,0.22152 -0.17223,0.37909 -0.875,0.35014 -0.77664,-0.032 -0.9346,-0.18996 -0.40278,-0.40277 z m -12.66667,-0.66667 c 0.48125,-0.19258 1.05625,-0.1689 1.27778,0.0526 0.22153,0.22153 -0.17223,0.37909 -0.875,0.35015 -0.77663,-0.032 -0.9346,-0.18996 -0.40278,-0.40278 z"
         id="path5149" />
      <path
         style="fill:#fd770c;stroke-width:0.666667"
         d="m 293.99999,679.39225 c -1.28333,-0.66854 -4.73333,-1.72654 -7.66667,-2.35114 -12.93297,-2.75386 -35.55048,-10.63598 -39.5899,-13.79697 -0.87445,-0.68429 -1.93421,-1.24416 -2.35501,-1.24416 -1.34936,0 -16.93299,-9.77195 -23.3838,-14.66317 -3.43304,-2.60304 -8.28851,-6.74371 -10.78992,-9.20148 -5.3679,-5.27425 -16.84624,-18.69296 -21.89098,-25.59157 -1.96156,-2.68241 -4.13708,-5.62711 -4.8345,-6.54378 -3.6569,-4.80656 -15.11808,-26.13586 -16.47855,-30.66666 -0.27525,-0.91667 -1.17584,-3.16667 -2.00131,-5 -0.82548,-1.83334 -1.72969,-4.38334 -2.00937,-5.66667 -0.27968,-1.28333 -1.52209,-4.99195 -2.76092,-8.24136 -2.80906,-7.36805 -4.07062,-13.27809 -4.92922,-23.09197 -0.36892,-4.21667 -0.95384,-10.66667 -1.29985,-14.33333 -0.346,-3.66667 -0.63979,-8.93938 -0.65288,-11.71713 -0.031,-6.58451 -0.63291,-7.13305 -11.71341,-10.67489 -15.71714,-5.02394 -27.49232,-11.95014 -38.22716,-22.48538 -13.438996,-13.18908 -21.552322,-27.20151 -26.398162,-45.59193 -5.860934,-22.24278 -3.260947,-47.41433 7.014966,-67.91486 2.503613,-4.99473 11.0836,-17.09596 13.86304,-19.55247 1.341393,-1.18554 1.436946,-1.19148 1.436946,-0.0893 0,2.86302 12.50813,17.73804 21.78814,25.91107 16.55727,14.58218 37.80761,25.67099 57.65906,30.08752 7.98542,1.77659 8.39835,1.56007 21.23823,-11.13559 10.63391,-10.51447 21.20097,-19.07357 31.74613,-25.7137 10.48739,-6.60376 31.97041,-15.84057 43.56843,-18.73263 10.61304,-2.64645 20.83451,-4.32338 32.69831,-5.36447 9.76845,-0.85722 10.84607,-1.51684 14.74611,-9.02623 6.42911,-12.37903 10.90744,-32.60121 11.67612,-52.72422 1.40745,-36.8455 -11.96634,-72.60254 -37.05186,-99.06425 -8.99838,-9.49204 -24.72071,-21.87819 -27.77101,-21.87819 -1.71978,0 1.11226,-4.28147 7.29945,-11.03529 12.75979,-13.92836 27.60829,-21.13287 45.53344,-22.09288 18.88386,-1.01136 35.95922,5.56296 49.57705,19.08808 8.67493,8.61588 15.14412,20.0151 18.3723,32.37342 1.54203,5.90327 1.75107,8.04079 1.82552,18.66667 0.0752,10.73428 -0.0793,12.56254 -1.46521,17.33333 -3.58966,12.35719 -10.27738,23.1615 -20.13772,32.53343 -7.84965,7.46084 -8.2288,8.67736 -3.3025,10.59606 1.65,0.64264 5.4,2.09677 8.33334,3.23138 13.18935,5.10168 27.68992,14.68563 39.33333,25.99684 11.30516,10.98261 11.80128,10.85559 14.41646,-3.69104 2.46953,-13.7364 6.18811,-24.98673 11.45839,-34.66667 C 449.7848,225.30174 457.70318,214 460.25905,214 c 0.59386,0 3.70352,2.44745 6.91035,5.43877 30.85891,28.78517 76.87982,32.42335 110.66228,8.74841 18.51286,-12.97392 31.26593,-32.64352 35.13302,-54.18717 0.62526,-3.48334 1.2614,-6.97524 1.41364,-7.7598 0.15224,-0.78456 0.74741,-1.60706 1.32261,-1.82778 2.79694,-1.07329 24.88239,8.75833 34.9657,15.56541 20.29226,13.69898 37.34586,32.13054 48.58133,52.50667 16.6758,30.24265 23.0442,67.64068 17.37713,102.0464 -4.77707,29.00222 -20.177,58.32552 -42.11133,80.18484 -5.1246,5.10709 -15.11093,13.49389 -19.33683,16.23961 l -1.82302,1.18448 0.82302,-2.23659 c 1.35793,-3.69018 1.07413,-30.0196 -0.41214,-38.23658 -1.6762,-9.26701 -4.08096,-18.62824 -6.50931,-25.33929 -1.31343,-3.62984 -1.90956,-6.28693 -1.64605,-7.33681 0.22721,-0.9053 2.01735,-4.12353 3.97808,-7.15162 4.51988,-6.98034 5.91896,-11.21073 5.87232,-17.75598 -0.0977,-13.70588 -8.88493,-26.43332 -21.30448,-30.85736 -2.64442,-0.94198 -5.56804,-1.37493 -9.48872,-1.40514 -5.00591,-0.0386 -6.39353,0.24141 -11.90024,2.40126 -3.42846,1.34472 -6.57846,2.43953 -7,2.43293 -0.42154,-0.007 -4.36643,-2.53867 -8.76643,-5.62681 -17.61395,-12.36235 -36.73064,-20.25945 -56,-23.13357 -7.10527,-1.05978 -25.70687,-1.03116 -34,0.0523 -26.09016,3.40864 -52.30305,15.8589 -70.91321,33.68145 -10.2777,9.84273 -20.87644,24.44091 -26.83036,36.9548 -4.91042,10.32068 -4.63285,11.2585 5.45034,18.4156 9.21636,6.54182 21.09377,17.36114 29.45536,26.83138 3.5725,4.04616 7.2001,7.53352 8.06134,7.74968 1.13171,0.28404 2.14884,1.64452 3.66838,4.90674 1.15638,2.48256 3.14148,6.16373 4.41134,8.1804 1.26986,2.01667 3.24873,6.65241 4.3975,10.30165 1.14876,3.64924 3.83228,10.99924 5.96336,16.33333 6.36996,15.94398 11.15802,33.30983 12.80024,46.42533 0.46912,3.74653 0.83545,14.39838 0.84626,24.60636 l 0.0191,17.99999 -2.25691,7.33334 c -1.24131,4.03333 -2.36363,7.45649 -2.49405,7.60702 -0.13042,0.15053 -0.76397,-0.19826 -1.40788,-0.77509 -2.87945,-2.57945 -17.17438,-7.87089 -26.50409,-9.81081 -18.47387,-3.84124 -40.03157,-3.48684 -57.67847,0.94821 -30.85009,7.75329 -58.19724,27.12249 -75.23852,53.28927 -7.60833,11.68254 -15.35524,29.84596 -18.38541,43.10648 -3.61865,15.83573 -4.39,40.78378 -1.43751,46.49325 l 1.10749,2.14166 -1.85046,-0.0293 c -1.01774,-0.016 -2.90045,-0.5764 -4.18378,-1.24493 z m -40.60392,-71.5346 c 4.27505,-1.97929 8.63848,-6.22841 10.74855,-10.46697 1.24573,-2.50232 1.52204,-4.14661 1.52204,-9.05736 0,-5.33037 -0.22078,-6.43573 -1.97819,-9.90419 -5.52698,-10.90809 -18.6217,-14.94055 -29.56908,-9.10567 -7.37362,3.9301 -11.09946,10.31128 -11.09946,19.00986 0,6.28464 1.60322,10.51356 5.51296,14.54198 6.85169,7.05965 16.29092,8.95118 24.86318,4.98235 z M 403.01741,478.60701 c 7.65348,-1.41482 14.06458,-6.32002 17.19567,-13.15658 2.18189,-4.76402 2.04578,-13.1876 -0.29368,-18.17631 -2.12093,-4.52272 -6.36275,-8.73935 -11.14701,-11.0808 -8.58699,-4.20255 -20.39721,-1.21547 -26.7373,6.7625 -3.42339,4.30777 -4.8923,9.25684 -4.50345,15.17307 0.40628,6.18159 2.17417,10.12657 6.46329,14.4226 3.83947,3.84568 6.73145,5.16408 14.71595,6.70878 0.20766,0.0402 2.14559,-0.25379 4.30653,-0.65326 z m -97.18409,-50.95926 c 4.805,-5.08927 1.23237,-12.9811 -5.87654,-12.9811 -2.24628,0 -3.17654,0.41975 -5.02346,2.26667 -1.92576,1.92576 -2.26666,2.73142 -2.26666,5.35679 0,7.70836 7.90884,10.92654 13.16666,5.35764 z M 687.22498,274.41064 c 18.1122,-9.29225 18.177,-35.81359 0.10833,-44.34586 -3.10126,-1.46446 -4.59186,-1.73139 -9.66666,-1.73102 -5.05734,3.7e-4 -6.57634,0.27073 -9.66827,1.72087 -18.16377,8.51897 -19.21674,35.15062 -1.74271,44.07778 4.38544,2.24044 5.74671,2.50698 11.74431,2.29967 4.61973,-0.15969 6.32407,-0.53315 9.225,-2.02144 z"
         id="path5147" />
      <path
         style="fill:#fd510c;stroke-width:0.666667"
         d="m 305.89071,683.41511 c -3.31867,-0.7064 -5.64643,-2.34226 -6.96721,-4.8964 -2.94918,-5.70306 -2.17568,-30.66094 1.44075,-46.48697 3.9273,-17.18646 14.44166,-39.34366 24.53269,-51.69842 13.28847,-16.26948 25.74034,-26.33834 43.65126,-35.29738 16.32091,-8.16372 32.41932,-12.15097 51.78512,-12.82611 20.18155,-0.70359 37.16551,2.38085 53,9.62523 6.26067,2.86431 6.91958,3.80545 6.52333,9.31751 -0.76306,10.61441 -11.93836,37.48993 -22.25206,53.51408 -17.6295,27.3905 -43.14297,49.27006 -73.08151,62.67246 -4.03078,1.8044 -8.57244,4.28754 -10.09256,5.51794 -3.8089,3.08306 -3.76723,3.06366 -10.28881,4.7898 -8.97709,2.376 -14.67847,3.57233 -22.56259,4.73433 -7.94162,1.17053 -31.79942,1.86167 -35.68841,1.03393 z m -67.6746,-74.33456 c -5.93528,-1.94162 -11.14322,-6.54293 -13.67325,-12.08057 -2.12306,-4.64687 -2.14485,-12.64334 -0.0469,-17.21966 2.29762,-5.01195 5.07986,-8.03514 9.62347,-10.45686 10.94738,-5.83488 24.0421,-1.80242 29.56907,9.10567 1.75742,3.46846 1.9782,4.57382 1.9782,9.90419 0,7.03206 -1.28365,10.3172 -5.85538,14.98524 -5.3882,5.50172 -14.75278,8.00036 -21.59517,5.76199 z M 395.51312,478.63061 c -6.88083,-1.35805 -12.97876,-5.99476 -16.07876,-12.22585 -2.33344,-4.69029 -2.68899,-12.21803 -0.8114,-17.17878 3.5588,-9.40258 11.65839,-14.90655 21.80519,-14.81743 3.7474,0.0329 5.5545,0.41944 8.34424,1.78477 4.78426,2.34145 9.02608,6.55808 11.14701,11.0808 2.33946,4.98871 2.47557,13.41229 0.29368,18.17631 -1.89031,4.12739 -6.43189,8.96681 -10.21313,10.88291 -2.53047,1.28229 -9.9059,3.19453 -11.28907,2.92693 -0.20766,-0.0402 -1.64665,-0.32352 -3.19776,-0.62966 z m 164.3349,-21.35313 c -6.93054,-0.73335 -21.00757,-3.62391 -27.17042,-5.57915 -21.69066,-6.88163 -38.12912,-16.18492 -56.07212,-31.73381 -2.34969,-2.03617 -6.01469,-4.73518 -8.14444,-5.9978 -2.12976,-1.26261 -4.82976,-3.51883 -6,-5.01382 -2.4733,-3.15965 -6.76352,-7.04857 -7.57071,-6.86256 -2.13509,0.49203 -4.83754,-1.5888 -10.72822,-8.26051 -8.36159,-9.47023 -20.239,-20.28956 -29.45536,-26.83137 -10.08319,-7.1571 -10.36076,-8.09492 -5.45034,-18.4156 5.95392,-12.5139 16.55266,-27.11208 26.83036,-36.95481 18.61016,-17.82254 44.82305,-30.2728 70.91321,-33.68145 8.29313,-1.08349 26.89473,-1.11211 34,-0.0523 19.26936,2.87412 38.38605,10.77122 56,23.13357 4.4,3.08814 8.34489,5.6202 8.76643,5.6268 0.42154,0.007 3.57154,-1.08821 7,-2.43293 5.50671,-2.15985 6.89433,-2.43984 11.90024,-2.40126 3.92068,0.0302 6.8443,0.46316 9.48872,1.40515 12.41955,4.42404 21.2068,17.15147 21.30448,30.85735 0.0467,6.54525 -1.35244,10.77564 -5.87232,17.75599 -1.96073,3.02808 -3.75087,6.24631 -3.97808,7.15161 -0.26334,1.04923 0.33031,3.70057 1.63738,7.31284 5.07896,14.03639 7.40141,26.93185 7.86968,43.69659 0.55316,19.80398 -0.3814,22.73298 -9.03708,28.32288 -14.22614,9.18735 -38.87471,17.11145 -59.07945,18.99307 -8.34865,0.77749 -19.59132,0.76157 -27.15196,-0.0385 z M 296.96826,429.75183 c -2.84183,-1.26912 -4.3016,-3.80129 -4.3016,-7.46172 0,-2.62537 0.3409,-3.43103 2.26666,-5.35679 1.84692,-1.84692 2.77718,-2.26667 5.02346,-2.26667 4.77802,0 8.04321,3.37351 8.04321,8.31002 0,5.01234 -6.30638,8.88542 -11.03173,6.77516 z M 176.33333,396.37998 c -20.21183,-5.2364 -39.16271,-15.36022 -55.21186,-29.49489 -10.02355,-8.82787 -21.78814,-23.06882 -21.78814,-26.37439 0,-2.16744 2.6956,-5.71298 9.09358,-11.96086 8.98903,-8.77814 21.95177,-15.30492 37.80971,-19.03732 6.52566,-1.5359 8.89068,-1.7531 19.43004,-1.78446 8.90169,-0.0265 13.46309,0.26372 17.66667,1.12397 7.49937,1.53473 17.27217,4.77307 22.81669,7.5606 2.46585,1.23971 5.38707,2.25403 6.49161,2.25403 1.82526,0 2.22956,-0.44044 4.43678,-4.83334 6.64019,-13.21559 13.63569,-22.67283 25.55009,-34.54123 11.82107,-11.77543 24.45067,-20.58184 38.03816,-26.52335 6.33786,-2.77141 6.88077,-3.06305 7.10442,-3.81637 0.26283,-0.88534 -0.857,-2.11724 -5.83298,-6.41676 -15.82743,-13.67579 -24.60477,-33.29112 -24.60477,-54.98596 0,-11.04162 0.91232,-15.21587 5.43068,-24.84774 3.59449,-7.66244 4.8155,-9.36858 6.70466,-9.36858 3.20605,0 18.68893,12.12665 27.93333,21.87819 32.19859,33.96501 44.44178,82.18705 32.96466,129.83736 -2.04728,8.49984 -4.92306,16.8181 -7.58892,21.95111 -3.90004,7.50939 -4.97766,8.16901 -14.74611,9.02623 -11.8638,1.04109 -22.08527,2.71802 -32.69831,5.36447 -11.59802,2.89206 -33.08104,12.12887 -43.56843,18.73263 -10.54284,6.63866 -21.11237,15.19938 -31.73967,25.70729 -8.04917,7.95875 -11.60351,11.02615 -13.33333,11.50671 -3.13006,0.86956 -3.40502,0.84416 -10.35856,-0.95734 z M 670.66665,276.08119 c -8.81845,-2.89296 -14.51992,-9.16932 -16.36412,-18.01415 -1.8216,-8.73645 0.57512,-16.83945 6.83125,-23.09558 4.90843,-4.90843 9.21427,-6.63717 16.53287,-6.6377 5.0748,-3.7e-4 6.5654,0.26656 9.66666,1.73102 18.06867,8.53227 18.00387,35.05361 -0.10833,44.34586 -2.90093,1.48829 -4.60527,1.86175 -9.225,2.02144 -3.11667,0.10773 -6.41667,-0.0501 -7.33333,-0.35089 z M 208.33333,241.76338 c -9.10832,-2.34349 -14.65056,-7.50699 -17.69453,-16.48533 -4.48683,-13.2341 4.60748,-27.59774 18.95155,-29.9323 10.60775,-1.72646 21.60107,4.23446 26.1377,14.17266 1.61482,3.53752 1.88602,4.95768 1.84202,9.64609 -0.0448,4.77173 -0.33174,6.06692 -2.17283,9.80671 -4.87489,9.9023 -16.65492,15.47032 -27.06391,12.79217 z"
         id="path5145" />
    </g>
  </g>
</svg>
