<?xml version="1.0" encoding="UTF-8" standalone="no"?>
<!-- Created with Inkscape (http://www.inkscape.org/) -->

<svg
   version="1.1"
   id="svg4121"
   width="444.67908"
   height="496.5658"
   viewBox="0 0 444.67908 496.56579"
   sodipodi:docname="search.svg"
   inkscape:version="1.2.2 (b0a84865, 2022-12-01)"
   xmlns:inkscape="http://www.inkscape.org/namespaces/inkscape"
   xmlns:sodipodi="http://sodipodi.sourceforge.net/DTD/sodipodi-0.dtd"
   xmlns="http://www.w3.org/2000/svg"
   xmlns:svg="http://www.w3.org/2000/svg">
  <defs
     id="defs4125" />
  <sodipodi:namedview
     id="namedview4123"
     pagecolor="#ffffff"
     bordercolor="#000000"
     borderopacity="0.25"
     inkscape:showpageshadow="2"
     inkscape:pageopacity="0.0"
     inkscape:pagecheckerboard="0"
     inkscape:deskcolor="#d1d1d1"
     showgrid="false"
     inkscape:zoom="1.5435872"
     inkscape:cx="234.51866"
     inkscape:cy="237.11002"
     inkscape:window-width="3440"
     inkscape:window-height="1412"
     inkscape:window-x="1440"
     inkscape:window-y="28"
     inkscape:window-maximized="0"
     inkscape:current-layer="g4127" />
  <g
     inkscape:groupmode="layer"
     inkscape:label="Image"
     id="g4127"
     transform="translate(-95.092268,-95.200869)">
    <path
       style="fill:#808080;stroke-width:0.448327"
       d="m 187.55398,499.80885 c -8.75349,-2.00129 -15.7762,-7.15429 -19.51708,-14.3209 -2.51037,-4.80924 -3.23116,-8.37387 -2.90359,-14.35949 0.17083,-3.12171 0.59593,-5.38476 1.47741,-7.86523 2.45081,-6.89653 -0.64284,-3.06276 63.14329,-78.24949 9.09068,-10.71547 16.52851,-19.66625 16.52851,-19.89063 0,-0.22437 -1.20686,-1.74136 -2.6819,-3.37109 -11.98027,-13.23659 -21.28759,-29.87902 -25.90457,-46.31992 -4.17737,-14.87547 -5.02772,-31.73647 -2.34747,-46.54666 5.24314,-28.97199 23.11022,-54.92604 49.40326,-71.76411 21.57058,-13.8138 46.52824,-20.95519 73.18185,-20.94024 34.96346,0.0196 66.82188,11.49391 93.38754,33.63499 19.41506,16.18143 34.29063,40.21714 39.35696,63.59233 3.38358,15.61131 3.12586,33.27194 -0.69984,47.95594 -12.02513,46.15554 -53.74207,79.29731 -106.87738,84.90811 -11.28139,1.19126 -27.9836,0.63906 -39.56597,-1.3081 -5.65651,-0.95095 -14.25024,-3.08286 -20.3479,-5.04786 l -5.42135,-1.74706 -0.6926,0.97649 c -0.58605,0.82627 -26.64124,30.23891 -59.36767,67.01773 -4.61508,5.18654 -11.44973,12.8752 -15.18813,17.08591 -3.73839,4.21071 -6.93315,7.65855 -7.09944,7.66188 -0.16631,0.003 -1.92098,1.35533 -3.89929,3.00446 -3.8587,3.21663 -6.94687,4.82316 -11.32952,5.89383 -3.33741,0.81531 -9.06686,0.81492 -12.63512,-6.6e-4 z m 165.7283,-150.86071 c 12.89573,-2.32834 24.35748,-8.02377 33.62946,-16.71072 5.12954,-4.80591 8.34235,-9.08968 11.7551,-15.67358 4.33058,-8.3546 6.11272,-15.574 6.12514,-24.81266 0.0288,-21.37838 -12.32221,-40.00605 -33.84155,-51.03969 -4.21013,-2.15867 -11.25317,-4.49385 -16.85325,-5.58785 -5.8114,-1.13527 -19.57463,-1.16435 -25.16446,-0.0531 -23.62272,4.69592 -41.6786,19.3912 -48.87821,39.78092 -2.93913,8.32378 -3.75886,18.54683 -2.16915,27.05227 4.38785,23.47644 24.46221,42.26145 50.35476,47.12054 7.6001,1.42627 16.87743,1.39809 25.04216,-0.0761 z"
       id="path4131" />
  </g>
</svg>
