<?xml version="1.0" encoding="UTF-8" standalone="no"?>
<!-- Created with Inkscape (http://www.inkscape.org/) -->

<svg
   version="1.1"
   id="svg4507"
   width="698"
   height="1254.6667"
   viewBox="0 0 698 1254.6667"
   sodipodi:docname="thermometer.svg"
   inkscape:version="1.2.2 (b0a84865, 2022-12-01)"
   xmlns:inkscape="http://www.inkscape.org/namespaces/inkscape"
   xmlns:sodipodi="http://sodipodi.sourceforge.net/DTD/sodipodi-0.dtd"
   xmlns="http://www.w3.org/2000/svg"
   xmlns:svg="http://www.w3.org/2000/svg">
  <defs
     id="defs4511" />
  <sodipodi:namedview
     id="namedview4509"
     pagecolor="#ffffff"
     bordercolor="#000000"
     borderopacity="0.25"
     inkscape:showpageshadow="2"
     inkscape:pageopacity="0.0"
     inkscape:pagecheckerboard="0"
     inkscape:deskcolor="#d1d1d1"
     showgrid="false"
     inkscape:zoom="0.81854405"
     inkscape:cx="349.40087"
     inkscape:cy="626.72253"
     inkscape:window-width="3440"
     inkscape:window-height="1412"
     inkscape:window-x="1440"
     inkscape:window-y="28"
     inkscape:window-maximized="0"
     inkscape:current-layer="g4513" />
  <g
     inkscape:groupmode="layer"
     inkscape:label="Image"
     id="g4513">
    <path
       style="fill:#666666;stroke-width:0.666667"
       d="m 293.11328,1218.0629 c -1.28333,-0.1478 -5.59838,-0.5842 -9.58899,-0.9698 -31.55616,-3.0484 -66.5252,-14.456 -94.17678,-30.7222 -63.2628,-37.2149 -105.056172,-99.9446 -114.217642,-171.4348 -1.79822,-14.0322 -2.45431,-36.83444 -1.395,-48.48297 5.59906,-61.56921 34.528902,-116.26574 82.808312,-156.56247 l 5.76324,-4.81034 0.38331,-10.8136 c 0.21083,-5.94747 0.70182,-91.3636 1.09108,-189.8136 1.27506,-322.47406 2.14146,-453.23587 3.05894,-461.66668 0.47481,-4.36311 3.35318,-18.66226 5.03241,-25 1.56577,-5.90953 8.50597,-20.352362 13.03573,-27.127902 20.01439,-29.937191 52.0718,-51.190893 89.37826,-59.256795 26.97897,-5.833028 54.40677,-4.528688 79.82713,3.796208 10.20123,3.340795 27.49982,11.940515 35.66667,17.731122 9.42785,6.6847 23.96075,21.474307 29.92241,30.450955 8.66915,13.05338 12.55495,22.192772 16.77689,39.459102 4.80474,19.6498 4.49968,12.51848 5.25953,122.94731 0.37971,55.18334 1.01431,144.43334 1.41021,198.33334 0.3959,53.9 1.1018,156.51582 1.56866,228.03514 0.49086,75.19447 1.10473,130.4748 1.45557,131.07754 0.3337,0.57326 3.75673,3.5234 7.60673,6.5558 9.3045,7.3286 29.53906,27.77406 36.94642,37.33153 26.84511,34.6372 42.68191,72.66507 48.16961,115.66667 1.6519,12.94393 1.639,41.72864 -0.024,54.00004 -6.2467,46.0913 -23.4376,85.3448 -52.55358,120 -7.21797,8.5911 -24.28255,24.9999 -33.22075,31.944 -33.84944,26.2978 -73.65641,42.7936 -116.00974,48.0739 -7.81741,0.9746 -38.75486,1.8601 -43.97454,1.2585 z m 32.33333,-58.9586 c 26.26444,-2.9314 53.33173,-12.8052 75.4742,-27.5317 11.55105,-7.6824 18.43122,-13.2835 27.53699,-22.4177 13.93077,-13.9742 24.09169,-28.1823 32.68359,-45.7018 8.54009,-17.4138 13.06507,-31.6348 16.1216,-50.6666 1.25038,-7.7856 1.50044,-11.9866 1.50795,-25.3334 0.009,-16.73184 -0.45143,-21.54691 -3.44555,-35.99997 -3.61897,-17.4694 -12.44242,-39.23121 -22.147,-54.62261 -13.37015,-21.205 -33.80127,-41.5158 -54.02886,-53.71073 -3.34502,-2.01667 -6.68917,-4.11867 -7.43142,-4.67107 -1.2728,-0.94726 -1.38456,-2.08486 -1.9649,-20 -1.74284,-53.80267 -1.96968,-96.29167 -1.97524,-369.99561 -0.007,-317.29653 0.2801,-295.44315 -4.03434,-307.66667 -4.81866,-13.65206 -11.83836,-24.92278 -21.6063,-34.69072 -16.42226,-16.422262 -35.94781,-24.594002 -58.69072,-24.562962 -16.15771,0.0221 -30.87293,4.41706 -44.99632,13.43906 -10.4085,6.648942 -23.2857,21.605292 -29.99354,34.836302 -3.82829,7.55117 -8.35947,22.80727 -9.99283,33.64498 -0.77365,5.13334 -1.52078,9.87682 -1.66029,10.54107 -0.13952,0.66426 0.003,24.66426 0.31631,53.33334 0.59225,54.16228 0.92677,88.71411 2.00535,207.1256 1.08376,118.98164 1.93845,206.31935 2.31603,236.66668 0.19845,15.95 0.36254,43.1 0.36466,60.33333 0.002,17.23333 0.3242,38.53333 0.71574,47.33333 1.26043,28.32881 2.31099,58.63847 2.06809,59.66667 -0.12992,0.55 -2.964,2.63747 -6.29796,4.6388 -14.01596,8.4136 -32.40066,23.90027 -42.13217,35.49074 -12.1864,14.51433 -24.30388,35.34086 -30.76159,52.87047 -10.05514,27.29493 -12.81649,59.67097 -7.57554,88.82097 9.51073,52.8983 43.02058,97.6015 91.37218,121.8932 20.36386,10.2308 41.70879,15.9352 66.91855,17.884 4.96172,0.3835 22.47968,-0.182 29.33333,-0.947 z m -31.19868,-45.3768 c -63.61953,-5.25 -113.67765,-57.3096 -117.7443,-122.4522 -2.21624,-35.50124 8.42669,-68.54597 31.26999,-97.08878 12.58211,-15.72146 27.14681,-27.38313 45.22991,-36.2148 3.42298,-1.67173 6.33058,-3.37233 6.46135,-3.77906 0.22868,-0.71134 1.2466,-77.04534 3.32142,-249.07288 0.53731,-44.55 1.27713,-103.65 1.64404,-131.33333 0.3669,-27.68334 0.96343,-76.58334 1.32561,-108.66667 1.03672,-91.83639 1.27252,-100.92237 2.7419,-105.65283 1.87218,-6.02715 5.73223,-12.14034 10.95355,-17.34718 16.21559,-16.17061 42.70381,-15.30946 58.81371,1.91208 5.39968,5.77228 7.22533,9.16896 8.48438,15.78554 0.97268,5.11157 1.08413,29.97183 1.19836,267.30239 0.0693,143.91667 0.28482,275.72541 0.47902,292.90834 l 0.35308,31.24167 6.33333,2.4646 c 16.69164,6.49547 30.18175,15.1028 42.90798,27.3774 41.76819,40.28593 52.30209,103.49791 26.15879,156.97421 -21.18371,43.3314 -62.1515,71.5912 -109.73344,75.6946 -8.51465,0.7343 -10.7282,0.7285 -20.19868,-0.053 z M 493.92459,725.05565 c -15.12058,-2.56686 -21.8821,-19.71533 -12.13828,-30.78486 5.9416,-6.75 9.05166,-7.47874 35.99367,-8.43347 11.1833,-0.39627 41.4833,-1.494 67.3333,-2.43927 54.5316,-1.9942 60.2166,-1.96366 64.9486,0.3486 6.9454,3.3938 10.5003,8.7764 10.9303,16.54974 0.233,4.2144 0.037,5.315 -1.5096,8.47633 -2.4208,4.94773 -6.8201,8.6876 -12.1598,10.33687 -4.7114,1.4552 -2.4123,1.34126 -87.2095,4.32026 -25.6667,0.90167 -50.26667,1.77087 -54.66667,1.93154 -4.4,0.16066 -9.58491,0.0233 -11.52202,-0.30574 z m -0.28425,-86.02994 c -6.8861,-0.93693 -12.56104,-4.87113 -15.48223,-10.73319 -1.35486,-2.71884 -1.7115,-4.42188 -1.7115,-8.17274 0,-8.117 3.9189,-13.86691 11.96958,-17.56211 3.64446,-1.67278 4.01498,-1.70392 26.03039,-2.18779 12.2834,-0.26997 32.8883,-0.54246 45.7888,-0.60552 27.8504,-0.13616 28.2255,-0.0703 34.3232,6.02739 3.0238,3.02377 4.0205,4.57867 4.9211,7.6766 2.683,9.22916 -1.5116,18.54595 -10.3664,23.0253 -2.7613,1.39683 -4.2466,1.55761 -18.6667,2.02042 -23.9795,0.76963 -72.53297,1.09306 -76.80624,0.51164 z m 4.43611,-79.88147 c -7.15808,-1.09142 -13.14658,-5.35878 -15.87332,-11.31121 -2.12488,-4.63858 -1.95363,-11.9675 0.38413,-16.43993 2.68537,-5.13744 7.03977,-8.59354 12.83142,-10.18434 1.53746,-0.42229 20.2041,-1.18916 44.7269,-1.83747 l 42.0882,-1.11268 4.8631,1.47711 c 4.0427,1.22794 5.4492,2.06327 8.3379,4.95193 4.3634,4.36342 5.9983,8.72198 5.5177,14.70981 -0.5567,6.93533 -4.7971,12.8337 -11.2842,15.69628 -4.8468,2.13876 -11.0773,2.57348 -47.8883,3.34134 -18.8834,0.3939 -35.68337,0.83022 -37.33337,0.9696 -1.65,0.13938 -4.51657,0.0222 -6.37016,-0.26044 z m -6.77248,-82.32496 c -7.28205,-2.27581 -11.99443,-6.85927 -13.94276,-13.56129 -2.79141,-9.6021 3.23502,-20.10937 13.28149,-23.15676 4.54245,-1.37785 8.4737,-1.50336 84.51248,-2.69814 65.5052,-1.02928 67.3683,-0.99518 72.9452,1.33502 3.4185,1.42832 7.7328,5.71398 9.4443,9.38167 2.2449,4.81038 2.1857,11.49977 -0.1429,16.17274 -3.1862,6.39378 -8.5359,9.72271 -17.4056,10.83086 -4.3402,0.54223 -126.2854,2.81431 -141.21623,2.63113 -2.56667,-0.0315 -5.93086,-0.45234 -7.47598,-0.93523 z m 1.47598,-82.56817 c -6.75875,-3.22143 -11.24506,-10.3221 -11.24506,-17.798 0,-10.08884 6.90281,-17.61421 17.67582,-19.27001 2.32975,-0.35808 22.98587,-0.74381 45.90257,-0.85719 l 41.6667,-0.20613 3.6666,1.72677 c 4.9541,2.33307 7.3574,4.49369 9.6973,8.71808 1.6972,3.06405 1.9669,4.24583 1.9525,8.55515 -0.014,4.0985 -0.3365,5.61182 -1.7904,8.39334 -3.3914,6.4882 -8.897,9.88908 -17.6533,10.90468 -2.8633,0.33211 -23.5061,0.78794 -45.8727,1.01296 l -40.6667,0.40912 z m 31.66663,-79.82949 c -18.77317,-0.25567 -33.18003,-0.72351 -34.35228,-1.11554 -9.6038,-3.2117 -14.96799,-9.9682 -14.96799,-18.85297 0,-7.60665 4.42046,-14.12857 11.90537,-17.56508 2.74333,-1.25953 4.50859,-1.4375 16.0816,-1.62134 7.15,-0.11358 28,0.0603 46.3333,0.38632 32.4044,0.5763 33.4431,0.63529 37.2713,2.11681 7.1537,2.76853 11.7556,8.90985 12.2596,16.36054 0.5171,7.64479 -2.5318,13.48968 -9.0901,17.42654 -4.702,2.8225 -9.7239,3.58911 -22.4954,3.43398 -5.8366,-0.0709 -25.162,-0.32706 -42.9454,-0.56926 z m -34.33387,-82.22707 c -8.73532,-2.73802 -14.28108,-10.87607 -13.48144,-19.78316 0.77614,-8.64544 6.88681,-15.21599 16.06364,-17.27256 1.66619,-0.3734 21.86697,-1.12201 44.89057,-1.66358 23.0236,-0.54157 55.5111,-1.33062 72.1945,-1.75343 33.3548,-0.84533 35.0607,-0.73083 41.1762,2.76371 4.2026,2.40147 7.1447,6.23961 8.5876,11.20305 2.727,9.3808 -2.5515,19.11477 -12.3776,22.82499 -4.1713,1.57502 -5.3806,1.62488 -87.1414,3.59304 -50.52893,1.21634 -66.24897,1.23612 -69.91207,0.0879 z"
       id="path4517" />
    <path
       style="fill:#c83737;stroke-width:1.22168"
       d="m 289.53848,1112.706 c -2.35174,-0.2561 -8.91196,-1.6033 -14.57827,-2.9938 -45.41505,-11.1448 -81.20092,-46.8427 -93.86333,-93.6327 -2.90604,-10.7384 -3.20888,-13.9328 -3.20888,-33.84769 0,-19.95186 0.2995,-23.0975 3.23105,-33.93507 10.20141,-37.71343 34.88568,-69.26546 68.71479,-87.83293 l 9.77345,-5.36426 0.82653,-35.39007 c 0.45459,-19.46452 1.98835,-134.62112 3.40835,-255.90354 1.42,-121.28241 2.98872,-238.95245 3.48603,-261.48897 l 0.90421,-40.97548 3.34796,-6.84297 c 3.75167,-7.66815 11.3965,-15.34326 19.36376,-19.44047 7.9279,-4.07696 21.51032,-4.59176 30.60439,-1.15995 8.18307,3.08802 18.28403,11.70068 22.11019,18.85242 l 2.68795,5.02425 0.7461,267.54821 c 0.41035,147.15152 0.82266,280.76424 0.91626,296.91716 l 0.17017,29.36893 10.87612,4.6054 c 33.76477,14.29737 59.93451,43.21397 72.03271,79.59345 5.07369,15.25668 6.70715,28.27912 5.95117,47.44465 -0.84065,21.31193 -4.56567,35.67443 -14.3105,55.17653 -25.37938,50.7914 -78.22421,80.2616 -133.19021,74.2769 z"
       id="path4597" />
    <path
       style="fill:#4d4d4d;stroke-width:1.22168"
       d="m 284.04091,1216.5891 c -43.27301,-5.3159 -83.23301,-20.9789 -116.67056,-45.731 -13.57399,-10.0482 -37.71312,-34.2697 -47.96908,-48.1329 -21.040154,-28.4405 -36.206742,-63.91 -42.405603,-99.1724 -2.396282,-13.6313 -3.64608,-44.18733 -2.36469,-57.81369 5.724905,-60.87892 34.119563,-113.9869 83.576763,-156.31791 l 4.88672,-4.1826 0.89272,-161.94808 c 0.491,-89.07144 1.4122,-238.36424 2.04713,-331.76178 1.12617,-165.66177 1.21731,-170.1124 3.72758,-182.03052 7.3927,-35.098699 32.70803,-66.177629 68.74962,-84.402001 20.87906,-10.557464 38.70139,-15.072467 63.37188,-16.054257 26.23679,-1.044122 47.84216,3.437385 69.82061,14.48258 15.00144,7.53893 22.3211,12.976995 34.65361,25.745582 17.34904,17.962505 25.20581,33.362026 31.17579,61.105496 2.79185,12.97418 3.26783,48.86738 5.96647,449.92302 0.78218,116.24298 1.78271,214.2436 2.22341,217.77914 0.78628,6.30808 1.02835,6.62786 12.94753,17.10354 24.72723,21.73259 44.21323,46.86571 57.53017,74.2027 41.78702,85.78026 26.10916,188.44938 -39.0478,255.71108 -21.2782,21.9656 -39.11763,35.2901 -63.79147,47.647 -23.97488,12.0069 -52.95553,20.7354 -77.65661,23.3889 -11.06174,1.1884 -43.3867,1.475 -51.66419,0.4581 z m 34.69761,-56.6143 c 41.27376,-3.2089 77.52018,-19.366 106.84974,-47.6289 26.92204,-25.943 44.00007,-56.9464 50.81165,-92.2432 3.51686,-18.224 3.50652,-48.41211 -0.0226,-65.77766 -4.99816,-24.59456 -16.07831,-49.97627 -29.70429,-68.04478 -10.59326,-14.04702 -29.85661,-32.29297 -43.74064,-41.43049 l -11.38351,-7.49189 -0.91616,-10.63736 c -0.50389,-5.85056 -1.3423,-160.44605 -1.86313,-343.54555 l -0.94694,-332.90816 -2.82381,-7.94093 C 379.47045,126.77936 373.85395,117.86086 362.25521,106.21104 354.2792,98.199889 348.8028,93.885993 342.43787,90.600394 310.52165,74.125142 271.79605,79.492697 247.25572,103.79309 c -16.03167,15.87494 -24.53802,33.01175 -29.2623,58.95153 -1.91753,10.52873 -1.92109,24.38392 -0.0551,214.40508 1.0972,111.73192 2.26633,238.88312 2.59804,282.55823 0.33172,43.67511 1.24096,101.62278 2.02052,128.77259 1.41053,49.12424 1.40529,49.37273 -1.0829,51.31062 -1.37517,1.07102 -7.64646,5.52073 -13.93622,9.88824 -13.99352,9.7169 -32.57927,28.00684 -40.96751,40.31548 -14.77419,21.6792 -24.97812,45.91604 -29.31733,69.63584 -3.13821,17.1547 -2.87502,48.0983 0.54224,63.7507 7.3671,33.7442 21.26004,60.4812 43.55453,83.8209 29.5384,30.9232 64.26769,47.5311 111.24297,53.1976 6.82154,0.8229 10.95868,0.7556 26.14584,-0.4251 z"
       id="path4668" />
    <path
       style="fill:#4d4d4d;stroke-width:1.22168"
       d="m 492.08269,723.86036 c -7.67335,-2.31308 -14.40528,-10.71481 -14.40528,-17.97839 0,-4.11859 5.16211,-12.54872 9.21966,-15.05643 5.33067,-3.29453 16.43632,-4.0889 94.62325,-6.76826 46.74581,-1.60191 60.38815,-1.72192 64.63674,-0.5686 13.93729,3.7834 18.92626,20.31173 8.94132,29.62245 -4.64412,4.33054 -7.48839,5.59831 -14.42062,6.42764 -5.38433,0.64415 -138.45806,5.68101 -143.30487,5.4241 -1.08961,-0.0577 -3.47019,-0.55388 -5.2902,-1.10251 z"
       id="path4808" />
    <path
       style="fill:#4d4d4d;stroke-width:1.22168"
       d="m 488.0617,636.66197 c -7.92683,-3.64864 -12.07655,-11.68713 -10.31828,-19.98771 1.25449,-5.92233 4.28583,-9.78125 10.03073,-12.76924 5.0645,-2.63411 6.17659,-2.69276 52.41594,-2.7645 45.86476,-0.0712 47.34026,1.2e-4 50.62429,2.44555 11.60147,8.63896 11.44896,23.09937 -0.32776,31.07739 l -4.50844,3.05421 -47.12572,0.31564 c -38.01225,0.2546 -47.83449,-0.0106 -50.79076,-1.37134 z"
       id="path4810" />
    <path
       style="fill:#4d4d4d;stroke-width:1.22168"
       d="m 492.30089,556.17044 c -2.99263,-1.51184 -6.68254,-4.6168 -8.19979,-6.89992 -6.96258,-10.4771 0.5306,-25.83639 13.43444,-27.53748 12.20027,-1.60834 83.74247,-2.99937 88.40358,-1.71888 2.77922,0.76351 6.64111,3.29234 9.32512,6.10625 4.0648,4.26152 4.5813,5.50407 4.5813,11.02121 0,8.01493 -3.33141,13.47664 -10.26858,16.83486 -4.80835,2.32768 -8.61184,2.66605 -41.79651,3.71831 -50.77166,1.60992 -49.18928,1.6534 -55.47956,-1.52435 z"
       id="path4812" />
    <path
       style="fill:#4d4d4d;stroke-width:1.22168"
       d="m 489.89485,475.69407 c -10.79862,-4.306 -15.55048,-17.75391 -9.46451,-26.78488 5.55272,-8.23968 8.17155,-8.91839 38.12266,-9.88012 14.81025,-0.47555 49.47757,-0.90777 77.03848,-0.96047 l 50.11076,-0.0958 4.38489,2.97961 c 13.01031,8.84073 10.10084,27.45525 -5.04781,32.29541 -2.62095,0.83742 -25.15073,1.83706 -58.02986,2.57476 -66.33169,1.48826 -93.14911,1.45279 -97.11461,-0.12847 z"
       id="path4814" />
    <path
       style="fill:#4d4d4d;stroke-width:1.22168"
       d="m 490.98508,392.35451 c -8.82684,-6.20905 -11.18933,-20.13968 -4.62598,-27.2776 6.69697,-7.28324 8.57554,-7.54317 56.67826,-7.84226 48.54368,-0.30182 48.24148,-0.34309 54.83014,7.48709 5.74787,6.83096 4.06656,18.82073 -3.41932,24.38377 -5.93459,4.41021 -10.46033,4.87263 -54.94372,5.6138 l -44.11267,0.73499 z"
       id="path4816" />
    <path
       style="fill:#4d4d4d;stroke-width:1.22168"
       d="m 511.88449,313.47756 c -20.43135,-0.65733 -23.0116,-0.98436 -26.87699,-3.40653 -11.06941,-6.93642 -12.23268,-20.09492 -2.54984,-28.84279 6.50468,-5.87659 12.04317,-6.32053 61.68898,-4.94473 44.55678,1.23478 45.40247,1.38836 51.02128,9.26607 3.873,5.43004 3.92865,14.68668 0.12034,20.02556 -5.32919,7.47115 -9.13979,8.36207 -36.36904,8.50305 -13.4385,0.0696 -34.60413,-0.2007 -47.03473,-0.60063 z"
       id="path4818" />
    <path
       style="fill:#4d4d4d;stroke-width:1.22168"
       d="m 490.89451,231.61024 c -15.9528,-5.19673 -18.06194,-25.07726 -3.55906,-33.54739 4.94396,-2.88743 22.35913,-3.73926 105.1808,-5.14473 57.44189,-0.97478 56.03504,-1.12773 62.72166,6.81886 7.88271,9.36807 3.73238,23.54583 -8.21422,28.06023 -6.01244,2.27199 -150.06041,5.78997 -156.12918,3.81303 z"
       id="path4820" />
  </g>
</svg>
