<?xml version="1.0" encoding="UTF-8" standalone="no"?>
<!-- Created with Inkscape (http://www.inkscape.org/) -->

<svg
   version="1.1"
   id="svg4912"
   width="597.33331"
   height="758"
   viewBox="0 0 597.33331 758"
   sodipodi:docname="wind.svg"
   inkscape:version="1.2.2 (b0a84865, 2022-12-01)"
   xmlns:inkscape="http://www.inkscape.org/namespaces/inkscape"
   xmlns:sodipodi="http://sodipodi.sourceforge.net/DTD/sodipodi-0.dtd"
   xmlns="http://www.w3.org/2000/svg"
   xmlns:svg="http://www.w3.org/2000/svg">
  <defs
     id="defs4916" />
  <sodipodi:namedview
     id="namedview4914"
     pagecolor="#ffffff"
     bordercolor="#000000"
     borderopacity="0.25"
     inkscape:showpageshadow="2"
     inkscape:pageopacity="0.0"
     inkscape:pagecheckerboard="0"
     inkscape:deskcolor="#d1d1d1"
     showgrid="false"
     inkscape:zoom="1.3548813"
     inkscape:cx="298.91918"
     inkscape:cy="379.36904"
     inkscape:window-width="3440"
     inkscape:window-height="1412"
     inkscape:window-x="1440"
     inkscape:window-y="28"
     inkscape:window-maximized="0"
     inkscape:current-layer="g4918" />
  <g
     inkscape:groupmode="layer"
     inkscape:label="Image"
     id="g4918">
    <path
       style="fill:#ffffff;stroke-width:0.666667"
       d="M 339.66665,726.65827 C 315.74148,724.12567 292.22188,706.55167 273.20799,677 264.71494,663.79996 259.76728,654.1532 252.35076,636.33333 247.59636,624.90979 239.31044,599.82443 235.28481,584.66667 223.5377,540.43515 207.69183,513.20184 188.03457,503.46063 183.29734,501.11309 182.75886,501 176.31764,501 c -6.60464,0 -6.87624,0.0618 -12.48601,2.84156 -15.46585,7.66363 -28.52661,28.48807 -38.11337,60.76901 -1.5881,5.34752 -3.55162,12.87276 -4.36338,16.72276 C 118.00346,597.22839 114.80333,604 110.64305,604 c -1.4727,0 -4.3144,-3.16913 -5.56229,-6.20319 -3.03698,-7.384 -4.03872,-25.47345 -2.07462,-37.46348 2.6788,-16.35286 10.67158,-44.7451 17.35996,-61.66666 10.49455,-26.55113 24.41092,-47.0067 38.50893,-56.60399 27.00127,-18.38127 55.61706,-2.29133 79.04537,44.44522 7.16188,14.28703 11.0864,24.83125 20.14482,54.12413 8.23666,26.63549 11.55118,35.86078 16.95725,47.1971 14.53876,30.48721 30.96618,47.94214 51.97752,55.22862 7.26764,2.52034 18.62024,2.70344 26.52364,0.42781 33.16987,-9.55064 62.71181,-53.26217 77.82431,-115.15223 6.72408,-27.53699 20.78783,-38.18446 31.64113,-23.95504 4.38797,5.75291 7.58736,14.97917 9.07993,26.18425 0.94004,7.05709 0.43157,22.28878 -1.00236,30.02676 -1.87776,10.13308 -12.10916,42.59713 -18.40876,58.4107 -13.18524,33.09825 -29.59474,60.36307 -47.28175,78.55993 -16.94875,17.43734 -34.23238,26.9958 -52.62478,29.1034 -6.25778,0.71707 -6.26294,0.71707 -13.0847,-0.007 z m -17,-212.2773 c -25.51968,-5.40288 -47.22059,-25.54088 -64.70793,-60.04764 -7.71379,-15.22118 -13.75782,-31.48386 -23.29008,-62.66666 -9.22441,-30.17573 -23.07368,-51.64526 -38.274,-59.33346 -5.16975,-2.61482 -5.40997,-2.66654 -12.38359,-2.66654 -7.05335,0 -7.15961,0.0238 -12.97754,2.9067 -12.27578,6.08288 -23.8326,20.93042 -33.11495,42.54414 -5.82683,13.56764 -10.90811,30.06341 -14.54414,47.21582 -2.28194,10.76474 -4.06945,16.3032 -6.39683,19.8201 -1.74748,2.64063 -4.46397,3.82223 -6.24745,2.71748 -1.79482,-1.11177 -4.06596,-5.88491 -5.07222,-10.66006 -2.67078,-12.67395 -1.77201,-25.17327 3.3947,-47.21085 7.20713,-30.7406 14.15678,-51.09583 24.69594,-72.33333 17.96669,-36.20475 39.83541,-54.11463 62.08477,-50.84572 23.37011,3.43356 44.83151,31.00849 60.46258,77.68601 11.4602,34.22247 14.87425,43.03299 20.85751,53.82637 9.65088,17.4095 22.31396,30.44416 35.59775,36.64232 13.63172,6.36049 30.12648,5.10896 45.02687,-3.41638 17.49387,-10.00924 35.12149,-31.14452 48.96918,-58.7134 9.19142,-18.29889 17.08761,-40.33605 23.32899,-65.10793 5.68491,-22.56324 10.71946,-32.35747 18.66915,-36.31897 4.35666,-2.17102 6.69704,-2.20576 10.20242,-0.15147 9.13372,5.35271 14.35272,24.32147 12.44714,45.23976 -0.95701,10.50552 -2.11932,15.96247 -7.02514,32.98249 -8.96844,31.11471 -17.97112,55.10923 -29.1567,77.71032 -24.4338,49.36988 -54.69917,80.65941 -86.21309,89.1305 -6.85431,1.84248 -20.09706,2.37071 -26.33334,1.0504 z M 314.99999,307.3033 c -14.76347,-2.28677 -29.7083,-11.09191 -41.02287,-24.1697 -13.8208,-15.97459 -24.05508,-36.65178 -36.03284,-72.80027 -9.03846,-27.27776 -20.20277,-44.10494 -33.68221,-50.76684 -4.25743,-2.10414 -5.84074,-2.52004 -10.53069,-2.7662 -9.63778,-0.50586 -17.42517,2.98832 -26.44633,11.86638 -12.37463,12.17832 -22.675,30.8204 -31.31022,56.66666 -3.73491,11.17902 -8.69553,29.67865 -9.65329,36 -0.72643,4.79455 -3.49277,15.04267 -5.01697,18.58576 -1.428,3.31948 -3.98933,6.20532 -6.20077,6.98638 -1.82526,0.64467 -4.57244,-2.67101 -6.06094,-7.31517 -0.87931,-2.74345 -1.35051,-6.65787 -1.56657,-13.0139 -0.35264,-10.37411 0.47023,-18.71016 2.90593,-29.43827 0.93296,-4.1093 2.3025,-10.17146 3.04342,-13.47146 5.99528,-26.70278 16.23381,-56.43682 26.52109,-77.02071 13.41507,-26.84228 27.10543,-43.37251 42.71993,-51.581533 12.98595,-6.827127 26.45975,-6.195134 38.45399,1.803686 14.82994,9.889917 27.07663,28.630717 37.77007,57.798557 9.09864,24.81782 10.84368,29.2161 14.19486,35.77756 11.16976,21.86983 24.42148,34.55022 40.38585,38.6447 5.8277,1.49466 18.58725,0.95132 24.15356,-1.02854 12.67132,-4.50701 24.64556,-13.29964 36.49834,-26.80056 11.1487,-12.69895 20.43058,-27.0887 29.83916,-46.25983 11.69895,-23.83805 20.22725,-48.74303 28.20303,-82.3606 3.46539,-14.606437 8.36771,-25.172649 14.54537,-31.350307 6.84604,-6.846039 13.43811,-6.4909 18.59315,1.001678 6.73737,9.792442 8.46091,29.924016 4.28432,50.042562 -2.5992,12.520337 -13.03138,48.174237 -18.86696,64.481357 -24.03788,67.17216 -54.71427,114.42137 -89.38808,137.67972 -14.82687,9.94549 -32.77899,14.90838 -46.33333,12.80889 z"
       id="path4922" />
  </g>
</svg>
